<?xml version="1.0" encoding="utf-8"?>
<!-- Generator: Adobe Illustrator 16.0.0, SVG Export Plug-In . SVG Version: 6.00 Build 0)  -->
<!DOCTYPE svg PUBLIC "-//W3C//DTD SVG 1.1//EN" "http://www.w3.org/Graphics/SVG/1.1/DTD/svg11.dtd">
<svg version="1.1" id="Layer_1" xmlns="http://www.w3.org/2000/svg" xmlns:xlink="http://www.w3.org/1999/xlink" x="0px" y="0px"
	 width="246.93px" height="229.026px" viewBox="0 0 246.93 229.026" enable-background="new 0 0 246.93 229.026"
	 xml:space="preserve">
<g id="MyHR" display="none">
	<path display="inline" fill-rule="evenodd" clip-rule="evenodd" fill="none" d="M-179.396,336.792c0-88.185,0-176.369,0-264.553
		c154.322,0,308.645,0,462.967,0c0,88.184,0,176.368,0,264.553C129.249,336.792-25.073,336.792-179.396,336.792z M-176.056,277.506
		c8.771,0,15.856,0,23.431,0c0.209-3.983,0.507-7.12,0.518-10.258c0.051-13.77-0.046-27.537,0.036-41.307
		c0.083-14.14,5.52-21.127,16.011-20.852c10.51,0.276,15.313,6.909,15.404,21.452c0.064,10.096,0.013,20.195,0.013,30.292
		c0,6.757,0,13.514,0,20.51c8.655,0,15.643,0,22.339,0c0.517-1.92,0.954-2.79,0.958-3.661c0.055-15.146,0.05-30.292,0.085-45.438
		c0.008-3.204-0.176-6.45,0.251-9.604c1.146-8.43,7.822-13.872,16.201-13.527c7.923,0.325,13.98,5.585,14.938,13.408
		c0.443,3.624,0.23,7.332,0.24,11.003c0.032,11.933-0.296,23.877,0.145,35.795c0.333,8.924,4.034,12.374,12.719,12.992
		c3.057,0.216,6.171-0.364,10.894-0.693c0-18.445,0-36.213,0-53.979c7.65,15.426,13.159,30.919,18.635,46.423
		c6.098,17.263,5.074,18.959-13.242,22.509c-0.714,0.139-1.265,1.133-2.531,2.336c0,2.108-0.125,4.832,0.036,7.538
		c0.153,2.562,0.608,5.104,0.9,7.415c32.36,3.088,34.192-6.794,40.579-25.276c0.149-0.434,0.25-0.884,0.397-1.319
		c8.918-26.51,17.809-53.033,26.806-79.518c1.062-3.128,2.712-6.057,4.09-9.078c3.092,27.757,1.152,55.098,2.834,82.802
		c7.606-0.187,13.911,1.814,20.439-1.695c0-10.212-0.06-20.29,0.02-30.367c0.058-7.337-0.428-14.78,0.625-21.987
		c1.647-11.262,9.244-17.373,19.708-17.244c10.232,0.128,17.428,6.717,18.969,18.044c0.676,4.969,0.433,10.076,0.456,15.121
		c0.053,12.275,0.018,24.552,0.018,37.604c14.859,0,28.392,0,42.667,0c0.284-4.075,0.708-7.626,0.747-11.18
		c0.118-11.014-0.306-22.049,0.217-33.04c0.698-14.682,5.549-19.417,19.902-20.999c2.17-0.238,4.305-0.808,6.248-1.183
		c0-7.409,0-14.071,0-21.25c-22.599,0.622-39.829,7.78-47.609,31.012c-3.699-14.501-10.208-26.097-23.97-30.86
		c-13.371-4.626-25.842-1.077-38.001,10.091c0-7.884,0.044-13.313-0.008-18.742c-0.153-16.151-3.519-18.819-21.479-15.558
		c0,7.192,0,14.683,0,23.225c-6.098,0-10.614,0.1-15.125-0.023c-7.021-0.191-11.185,3.072-12.826,9.889
		c-0.965,4.01-2.255,7.941-3.413,11.904c-3.622,12.428-7.25,24.854-10.876,37.281c-0.812-0.005-1.625-0.01-2.437-0.015
		c-5.771-19.542-11.541-39.084-17.308-58.615c-8.416,0-15.663,0-22.86,0c-0.689,2.521-1.259,4.604-1.837,6.713
		c-24.777-11.697-33.966-12-55.677-2.813c-10.13-2.354-18.467-5.735-26.889-5.965c-21.291-0.583-41.168,8.488-42.229,33.329
		C-176.698,238.881-176.056,257.676-176.056,277.506z M189.74,128.139c1.479,6.374-1.669,9.388-6.531,10.807
		c-3.938,1.149-8.094,1.539-12.143,2.322c-13.321,2.576-25.639,7.463-35.467,17.076c-9.376,9.171-15.695,19.863-14.278,36.229
		c2.401-4.422,3.701-6.744,4.935-9.102c7.833-14.959,20.356-23.156,36.848-25.776c16.445-2.612,31.935-0.254,46.39,8.301
		c5.525,3.27,11.178,6.339,16.882,9.286c7.767,4.011,16.129,4.924,23.928,1.112c10.092-4.932,18.412-12.286,24.137-22.375
		c-7.439,2.42-14.32,5.69-21.29,8.757c-4.913,2.161-9.757,2.354-14.234-1.316c-7.274-5.958-13.698-12.862-14.935-22.37
		c-0.655-5.04,0.638-10.963,2.892-15.591c2.907-5.971,12.939-7.996,19.677-5.325c6.554,2.6,8.938,7.424,7.473,15.764
		c-0.65,3.698-1.766,7.313-2.669,10.966c3.624-2.402,6.086-5.14,7.902-8.255c8.639-14.813,5.765-23.61-10.377-29.982
		c-18.53-7.316-37.275-8.702-56.329-1.137c-23.244,9.231-38.515,3.101-48.73-16.464c-0.5-0.957-1.443-1.681-2.179-2.512
		c0.896,7.001,2.966,13.496,6.257,19.298c2.429,4.279,6.205,7.911,9.813,11.378C166.714,127.879,179.252,125.145,189.74,128.139z
		 M20.126,288.062c0,15.401,0,29.808,0,45.501c50.2,0.003,99.752,0.036,149.108-0.022c0-16.279,0-30.687,0-45.479
		C119.448,288.062,70.542,288.062,20.126,288.062z M206.413,98.654c6.892-0.373,13.622-6.708,13.675-12.876
		c0.055-6.249-5.094-10.419-12.02-9.731c-6.23,0.619-12.694,8.084-12.226,14.121C196.202,94.809,201.332,98.929,206.413,98.654z"/>
	<path display="inline" fill-rule="evenodd" clip-rule="evenodd" d="M189.74,128.139c-10.487-2.994-23.025-0.26-32.027-8.91
		c-3.609-3.468-7.385-7.1-9.813-11.378c-3.291-5.802-5.361-12.297-6.257-19.298c0.736,0.832,1.679,1.556,2.179,2.512
		c10.215,19.565,25.486,25.695,48.73,16.464c19.054-7.565,37.799-6.179,56.329,1.137c16.142,6.373,19.016,15.169,10.377,29.982
		c-1.816,3.115-4.279,5.853-7.902,8.255c0.904-3.653,2.02-7.269,2.669-10.966c1.465-8.34-0.919-13.164-7.473-15.764
		c-6.738-2.671-16.77-0.646-19.677,5.325c-2.254,4.628-3.547,10.552-2.892,15.591c1.237,9.508,7.661,16.412,14.935,22.37
		c4.477,3.669,9.321,3.477,14.234,1.316c6.97-3.066,13.85-6.336,21.29-8.757c-5.725,10.089-14.045,17.443-24.137,22.375
		c-7.799,3.812-16.162,2.899-23.928-1.112c-5.704-2.947-11.357-6.016-16.882-9.286c-14.456-8.555-29.945-10.913-46.39-8.301
		c-16.492,2.62-29.015,10.817-36.848,25.776c-1.234,2.357-2.534,4.68-4.935,9.102c-1.417-16.365,4.902-27.057,14.278-36.229
		c9.828-9.613,22.146-14.5,35.467-17.076c4.049-0.783,8.204-1.173,12.143-2.322C188.07,137.527,191.219,134.513,189.74,128.139z"/>
	<path display="inline" fill-rule="evenodd" clip-rule="evenodd" d="M206.413,98.654c-5.081,0.274-10.211-3.846-10.571-8.486
		c-0.468-6.037,5.996-13.502,12.226-14.121c6.926-0.688,12.075,3.482,12.02,9.731C220.035,91.947,213.305,98.282,206.413,98.654z"/>
	<path display="inline" fill-rule="evenodd" clip-rule="evenodd" fill="none" d="M75.231,316.723
		c2.858,1.026,8.023,2.418,5.845,8.596c-2.008,5.694-7.366,6.432-12.615,5.98c-5.058-0.435-8.781-2.598-8.384-8.61
		c0.182-2.738,0.176-5.488,0.308-8.23c0.719-14.846,4.508-17.342,21.812-12.975C79.776,306.778,77.478,311.809,75.231,316.723z"/>
	<path display="inline" fill-rule="evenodd" clip-rule="evenodd" fill="none" d="M90.234,323.497
		c-7.211-7.433-3.313-15.264-3.821-22.576c21.143-2.387,24.859,2.252,18.481,21.83c-4.979-1.456-3.209-5.684-3.854-8.826
		c-0.589-2.874-1.456-5.69-2.341-9.069C89.84,309.104,96.681,317.755,90.234,323.497z"/>
	<path display="inline" fill-rule="evenodd" clip-rule="evenodd" fill="none" d="M136.238,300.873
		c20.963-2.274,24.775,2.535,17.26,24.547c-2.088-8.443-3.529-14.276-4.972-20.109c-0.915-0.044-1.831-0.088-2.748-0.132
		c-0.826,2.657-1.853,5.273-2.427,7.984c-0.635,3.015-0.856,6.116-1.492,10.941c-2.685-2.257-5.323-3.406-5.42-4.739
		C135.987,313.161,136.238,306.905,136.238,300.873z"/>
	<path display="inline" fill-rule="evenodd" clip-rule="evenodd" fill="none" d="M29.757,318.722
		c3.613-0.776,6.499-1.396,9.848-2.117c-1.045-0.978-1.813-1.878-2.749-2.535c-3.698-2.594-8.394-4.813-5.495-10.581
		c2.34-4.655,7.009-4.611,15.793,0.509c-3.281,0.818-5.467,1.363-7.67,1.912c0.067,0.657-0.151,1.812,0.269,2.132
		c7.134,5.448,8.763,8.861,5.761,12.449C42.284,324.352,37.007,323.954,29.757,318.722z"/>
	<path display="inline" fill-rule="evenodd" clip-rule="evenodd" fill="none" d="M55.469,324.941
		c-10.179-11.448-1.676-22.313-5.438-33.17c3.043,0.378,5.946,0.421,5.989,0.79C57.144,302.45,59.641,312.4,55.469,324.941z"/>
	<path display="inline" fill-rule="evenodd" clip-rule="evenodd" fill="none" d="M129.649,324.866
		c-9.55-10.994-2.117-21.574-4.201-31.096c-0.125-0.573,2.412-1.729,5.261-3.67C131.149,302.053,134.397,312.157,129.649,324.866z"
		/>
</g>
<g id="Layer_3">
	<path fill-rule="evenodd" clip-rule="evenodd" fill="none" d="M198.102,237.516c-10,0-20,0-30,0
		c0.931-0.339,1.836-0.798,2.795-0.998c7.244-1.508,10.952-5.282,11.091-11.37c0.135-5.922-3.174-9.528-10.455-11.343
		c-2.095-0.521-4.39-0.607-6.255-1.558c-1.385-0.705-2.225-2.483-3.307-3.784c1.438-1.101,2.756-2.831,4.346-3.133
		c1.767-0.335,4.55-0.02,5.545,1.154c3.246,3.831,5.879,1.627,8.866,0.34c-2.184-8.462-16.169-10.317-22.413-5.511
		c-3.511,2.704-4.676,6.284-4.285,10.573c0.384,4.208,2.981,6.609,6.617,7.965c2.633,0.982,5.618,1.148,8.092,2.386
		c1.902,0.952,3.253,3.006,4.85,4.569c-2.067,1.292-4,3.163-6.246,3.681c-1.634,0.377-4.513-0.467-5.39-1.753
		c-2.872-4.209-6.005-2.906-10.113-1.128c1.234,1.91,1.977,4.227,3.558,5.258c2.979,1.942,6.442,3.144,9.703,4.651
		c-32.333,0-64.667,0-97,0c3.095-1.446,6.19-2.893,9-4.206c1.253,1.022,2.41,1.968,3.566,2.911c0.542-1.382,1.32-2.725,1.563-4.158
		c0.274-1.619,0.069-3.319,0.069-4.984c0.001-10.418,0-10.453-10.163-10.292c-2.074,0.032-4.752-1.054-4.854,2.979
		c-0.091,3.614,1.86,3.614,4.373,3.518c3.261-0.126,3.126,1.764,2.076,3.881c-2.067,4.167-8.344,4.368-11.335,0.422
		c-3.271-4.315-3.273-15.116-0.003-19.564c2.742-3.729,8.673-4.099,10.439,0.019c2.183,5.089,5.327,3.448,8.969,2.876
		c-0.127-1.124-0.056-2.137-0.371-3.01c-2.017-5.593-6.159-8.539-11.969-9.105c-6.875-0.67-12.262,2.242-15.304,8.066
		c-6.582,12.604-1.549,25.522,11.943,30.649c-21.976,0-43.952,0-66,0c0-56.415,0.044-112.83-0.102-169.244
		c-0.009-3.686,1.976-2.745,3.84-2.745c73.087-0.013,146.175-0.011,219.262-0.011c-1.07,0.379-2.112,0.911-3.214,1.109
		c-7.083,1.277-7.396,1.933-3.714,8.039c0.473,0.785,0.823,1.644,1.536,3.09c-1.915-0.353-3.162-0.636-4.424-0.805
		c-5.158-0.688-10.223-0.409-13.662,4.047c-2.348,3.042-3.942,2.229-6.36,0.257c-2.947-2.402-6.013-4.758-10.248-1.853
		c-6.958,4.773-14.951,6.111-23.234,6.396c-13.682,0.471-26.681-2.914-39.705-6.491c-18.127-4.978-36.292-9.906-55.412-8.676
		c-13.651,0.879-19.983,6.682-21.41,20.208c-1.215,11.518-0.411,23.353-5.795,34.173c-0.262,0.526,0.213,1.419,0.485,2.913
		c5.622-3,10.693-5.77,15.824-8.422c2.787-1.439,5.674-3.792,8.521-3.798c8.118-0.019,13.01-5.3,18.345-9.898
		c4.501-3.879,5.819-8.721,3.107-14.371c-0.516-1.074-0.38-2.461-0.545-3.703c1.4,0.075,2.958-0.223,4.175,0.291
		c5.975,2.519,10.479,11.295,8.243,18.089c-1.968,5.979-5.523,11.438-8.636,17.641c2.884,3.686,3.307,7.818-0.772,12.232
		c-2.901,3.139-3.488,6.436-2.748,10.005c1.075,5.189,2.508,10.354,4.402,15.294c0.643,1.677,3.014,3.519,4.82,3.791
		c15.086,2.272,30.218,4.26,45.36,6.136c1.708,0.212,3.568-0.803,5.973-1.402c-3.101-4.034-5.763-7.229-8.116-10.636
		c-2.141-3.099-4.507-3.251-5.957-0.026c-2.907,6.467-7.186,4.823-11.78,2.688c-3.014-1.401-6.078-2.724-8.962-4.358
		c-0.927-0.524-2.06-2.081-1.884-2.907c0.628-2.95,1.777-5.79,2.729-8.671c1.142,1.009,1.351,1.791,1.504,2.584
		c1.414,7.353,2.232,8.289,9.106,5.699c12.258-4.619,24.366-9.691,36.287-15.123c6.251-2.848,12.575-6.273,13.951-14.222
		c0.03-0.172,0.544-0.259,1.167-0.53c9.691,10.756,22.531,17.05,35.11,23.866c3.936,2.132,7.552,5.681,10.061,9.421
		c3.668,5.471,6.274,11.665,9.203,17.615c2.383,4.84,4.012,9.65-2.235,13.119c-0.659,0.366-1.489,1.391-1.386,1.952
		c0.197,1.066,0.982,2.864,1.575,2.886c6.066,0.213,12.143,0.13,19.534,0.13c-1.854-3.351-3.129-5.574-4.319-7.842
		c-0.579-1.104-1.286-2.257-1.435-3.449c-0.374-2.997-0.022-6.143-0.761-9.023c-1.4-5.465-3.56-10.733-4.961-16.197
		c-0.405-1.581,0.208-3.906,1.203-5.273c3.143-4.32,2.333-7.39-2.628-9.704c-3.895-1.816-7.689-3.909-11.325-6.201
		c-3.215-2.027-5.083-4.872-5.097-9.066c-0.029-8.65-0.639-17.298-0.761-25.949c-0.056-3.984-0.917-7.189-4.835-9.009
		c-3.739-1.736-2.675-4.36,0.05-5.253c3.414-1.118,7.333-1.433,10.933-1.072c5.238,0.524,10.371,2.735,15.574,2.828
		c8.221,0.146,12.174-7.779,7.116-14.299c-2.374-3.06-6.507-4.788-9.935-6.976c-1.058-0.675-2.418-0.875-3.64-1.293
		c6.979,0,13.959,0,21,0c0,50,0,100,0,150c-0.424-1.412-0.893-2.813-1.265-4.24c-2.223-8.518-7.99-12.984-16.193-12.514
		c-7.514,0.432-13.123,5.998-14.305,14.196c-1.842,12.771,1.958,19.552,13.764,24.558c-10.333,0-20.667,0-31,0
		c0.924-0.346,1.822-0.814,2.776-1.02c7.111-1.533,10.915-5.464,11.027-11.477c0.107-5.709-3.414-9.426-10.622-11.238
		c-2.404-0.604-4.924-0.977-7.143-1.995c-1.05-0.482-2.168-2.3-2.063-3.397c0.104-1.092,1.66-2.838,2.657-2.893
		c2.363-0.132,5.731-0.288,6.974,1.102c3.247,3.633,5.751,1.491,8.692,0.287c-3.066-7.056-11.13-10.079-18.923-7.283
		c-4.908,1.761-8.189,6.109-7.954,10.932c0.249,5.102,3.151,8.255,7.927,9.697c2.697,0.814,5.605,1.09,8.138,2.23
		c1.542,0.694,3.782,2.913,3.526,3.846c-0.454,1.647-2.692,4.087-3.975,3.967c-3.039-0.284-5.897-2.119-8.942-2.856
		c-2.285-0.553-4.748-0.373-7.131-0.52c0.497,1.836,0.409,4.522,1.604,5.344C190.854,234.429,194.588,235.813,198.102,237.516z
		 M88.128,92.43c1.866,7.551-0.933,12.147-5.358,15.798c-4.224,3.483-8.792,6.552-13.26,9.731c-0.774,0.551-1.784,0.802-2.715,1.095
		c-3.83,1.208-8.195,1.592-11.403,3.723c-7.056,4.688-16.755,5.273-21.417,13.646c-10.661,3.071-20.93,11.142-33.396,1.452
		c7.722,16.354,20.723,12.173,32.983,10.641c-2.951,5.952-1.734,8.899,3.918,8.53c8.468-0.555,13.122,4.571,17.704,10.142
		c2.742,3.333,4.986,7.082,7.784,10.363c4.086,4.792,8.368,5.069,15.175,1.447c7.208-3.835,8.936-6.854,7.111-13.353
		c-1.434-5.108-3.66-10.021-4.769-15.186c-1.113-5.186-2.936-10.554,1.708-15.495c4.896-5.21,3.83-7.998-3.088-9.906
		C94.346,107.122,95.768,102.688,88.128,92.43z M156.342,193.287c-0.97-2.582-1.219-4.752-2.403-6.101
		c-2.886-3.287-1.5-5.099,1.542-6.926c8.407-5.046,16.701-10.283,25.158-15.242c5.979-3.507,6.065-3.359,2.049-8.68
		c-4.428-5.866-4.184-7.179,2.063-11.396c1.058-0.715,2.059-1.516,3.529-2.605c-6.021-2.594-11.524-4.996-17.072-7.291
		c-0.441-0.183-1.251,0.271-1.784,0.602c-5.061,3.14-10.098,6.316-15.562,9.746c2.395,2.256,4.564,4.515,6.96,6.499
		c2.597,2.149,2.601,4.04,0.541,6.687c-6.027,7.743-11.721,15.748-17.773,23.471c-2.127,2.715-5.058,4.785-7.347,7.392
		c-1.176,1.338-2.238,3.652,1.017,3.777C143.349,193.454,149.45,193.287,156.342,193.287z M118.369,235.856
		c-1.702-4.071-3.304-8.04-5.021-11.958c-0.989-2.257-1.554-3.945,1.161-5.785c4.165-2.821,4.377-7.372,3.082-11.71
		c-1.247-4.178-4.43-6.606-8.916-6.779c-5.154-0.198-10.324-0.065-15.473-0.342c-3.62-0.194-4.993,0.975-4.884,4.807
		c0.26,9.152,0.154,18.317,0.043,27.476c-0.036,2.98,0.058,4.886,4.072,4.947c4.287,0.064,4.571-2,4.345-5.198
		c-0.141-1.988-0.272-4.038,0.064-5.979c0.236-1.36,1.459-3.741,1.913-3.667c2.011,0.33,4.38,0.924,5.709,2.301
		c1.389,1.439,1.75,3.879,2.537,5.891C109.8,237.006,109.796,237.008,118.369,235.856z M123.354,217.652
		c0,5.159-0.181,10.33,0.141,15.47c0.071,1.132,1.883,3.037,2.956,3.082c6.813,0.282,13.648,0.28,20.46-0.005
		c1.028-0.043,2.74-2.059,2.741-3.162c0-1.091-1.686-3.016-2.775-3.122c-3.958-0.389-7.998,0.069-11.955-0.322
		c-1.159-0.115-2.81-1.84-3.088-3.083c-0.939-4.194,0.473-6.768,5.406-6.019c1.301,0.197,2.662,0.087,3.989,0.012
		c2.156-0.123,4.839,0.794,4.722-3.158c-0.118-3.96-2.912-2.805-4.983-2.978c-1.985-0.166-3.994-0.135-5.988-0.066
		c-3.147,0.109-3.297-1.864-3.323-4.261c-0.027-2.504,0.339-4.167,3.468-4.014c3.818,0.188,7.679,0.272,11.467-0.123
		c1.183-0.123,2.761-1.765,3.154-3.024c0.761-2.44-0.675-3.576-3.241-3.547c-6.657,0.075-13.321-0.119-19.965,0.184
		c-1.105,0.051-2.955,1.998-3.035,3.167C123.163,207.652,123.358,212.659,123.354,217.652z M51.611,236.079
		c-3.714-11.798-7.076-23.093-11.005-34.188c-0.494-1.396-3.912-2.057-6.087-2.473c-2.344-0.448-4.474-0.063-5.358,3.02
		c-1.878,6.547-4.127,12.988-6.203,19.479c-1.483,4.639-2.932,9.288-4.396,13.933c0.38,0.417,0.76,0.833,1.14,1.251
		c2.094-0.984,5.14-1.412,6.103-3.059c2.79-4.769,7.744-7.238,13.176-5.298c0.918,0.327,2.09,1.463,2.186,2.33
		C41.895,237.668,46.426,236.544,51.611,236.079z M50.955,167.281c-6.544,8.805-12.607,16.962-18.888,25.413
		c1.358,0.341,1.831,0.559,2.305,0.563c4.811,0.041,9.622,0.086,14.432,0.05c4.707-0.036,5.262-1.035,3.021-5.194
		c-3.369-6.251-3.365-6.242,2.857-9.483c0.982-0.512,1.904-1.141,3.24-1.948C55.602,173.551,53.465,170.668,50.955,167.281z"/>
	<path fill-rule="evenodd" clip-rule="evenodd" fill="none" d="M235.102,237.516c9.25-1.916,13.008-8.679,15-17
		c0,5,0.077,10.003-0.089,14.998c-0.023,0.688-1.222,1.885-1.915,1.913C243.772,237.604,239.436,237.516,235.102,237.516z"/>
	<g>
		<path fill-rule="evenodd" clip-rule="evenodd" d="M229.814,44.176c1.222,0.418,2.583,0.618,3.64,1.293
			c3.428,2.188,7.562,3.916,9.935,6.976c5.058,6.52,1.104,14.445-7.116,14.299c-5.203-0.093-10.336-2.304-15.574-2.828
			c-3.6-0.36-7.519-0.046-10.933,1.072c-2.726,0.893-3.79,3.517-0.05,5.253c3.918,1.819,4.78,5.024,4.835,9.009
			c0.122,8.651,0.731,17.299,0.761,25.949c0.014,4.194,1.882,7.039,5.097,9.066c3.636,2.292,7.431,4.385,11.325,6.201
			c4.961,2.314,5.771,5.384,2.628,9.704c-0.994,1.367-1.608,3.692-1.203,5.273c1.401,5.464,3.561,10.732,4.961,16.197
			c0.738,2.881,0.387,6.026,0.761,9.023c0.148,1.192,0.855,2.345,1.435,3.449c1.19,2.268,2.465,4.491,4.319,7.842
			c-7.392,0-13.468,0.083-19.534-0.13c-0.593-0.021-1.378-1.819-1.575-2.886c-0.104-0.562,0.727-1.586,1.386-1.952
			c6.248-3.469,4.618-8.279,2.235-13.119c-2.929-5.95-5.535-12.145-9.203-17.615c-2.508-3.74-6.125-7.289-10.061-9.421
			c-12.579-6.816-25.419-13.11-35.11-23.866c-0.623,0.271-1.137,0.358-1.167,0.53c-1.376,7.948-7.699,11.374-13.951,14.222
			c-11.921,5.432-24.029,10.504-36.287,15.123c-6.874,2.59-7.692,1.653-9.106-5.699c-0.153-0.793-0.362-1.575-1.504-2.584
			c-0.952,2.881-2.102,5.721-2.729,8.671c-0.176,0.826,0.957,2.383,1.884,2.907c2.885,1.635,5.949,2.957,8.962,4.358
			c4.594,2.135,8.873,3.778,11.78-2.688c1.45-3.225,3.816-3.072,5.957,0.026c2.354,3.407,5.015,6.602,8.116,10.636
			c-2.405,0.6-4.265,1.614-5.973,1.402c-15.142-1.876-30.273-3.863-45.36-6.136c-1.806-0.272-4.177-2.114-4.82-3.791
			c-1.894-4.939-3.327-10.104-4.402-15.294c-0.74-3.569-0.153-6.866,2.748-10.005c4.079-4.414,3.656-8.547,0.772-12.232
			c3.113-6.203,6.667-11.661,8.636-17.641c2.236-6.794-2.268-15.57-8.243-18.089c-1.216-0.514-2.774-0.216-4.175-0.291
			c0.165,1.242,0.03,2.629,0.545,3.703c2.712,5.65,1.394,10.492-3.107,14.371c-5.335,4.599-10.228,9.88-18.345,9.898
			c-2.847,0.006-5.734,2.358-8.521,3.798c-5.131,2.652-10.203,5.422-15.824,8.422c-0.272-1.494-0.747-2.387-0.485-2.913
			c5.384-10.82,4.58-22.655,5.795-34.173c1.426-13.526,7.759-19.329,21.41-20.208c19.12-1.23,37.284,3.698,55.412,8.676
			c13.023,3.577,26.023,6.962,39.705,6.491c8.283-0.285,16.276-1.623,23.234-6.396c4.235-2.905,7.301-0.55,10.248,1.853
			c2.418,1.972,4.013,2.785,6.36-0.257c3.439-4.456,8.503-4.734,13.662-4.047c1.262,0.169,2.51,0.452,4.424,0.805
			c-0.713-1.446-1.063-2.305-1.536-3.09c-3.683-6.106-3.369-6.762,3.714-8.039c1.103-0.198,2.145-0.73,3.214-1.109
			C225.814,44.176,227.814,44.176,229.814,44.176z M225.534,58.409c-0.081,0.425-0.162,0.849-0.242,1.273
			c4.313,1.208,8.577,2.864,12.971,3.359c1.357,0.152,4.242-2.767,4.368-4.434c0.231-3.072-2.492-3.887-5.312-3.207
			C233.378,56.353,229.461,57.402,225.534,58.409z"/>
		<path fill-rule="evenodd" clip-rule="evenodd" d="M88.841,71.09c7.64,10.258,6.217,14.692-9.023,32.628
			c6.918,1.908,7.984,4.696,3.088,9.906c-4.644,4.941-2.821,10.31-1.708,15.495c1.109,5.164,3.335,10.077,4.769,15.186
			c1.824,6.498,0.097,9.518-7.111,13.353c-6.807,3.622-11.088,3.345-15.175-1.447c-2.798-3.281-5.042-7.03-7.784-10.363
			c-4.582-5.57-9.236-10.696-17.704-10.142c-5.652,0.369-6.869-2.578-3.918-8.53c-12.26,1.532-25.261,5.714-32.983-10.641
			c12.466,9.689,22.735,1.619,33.396-1.452c4.661-8.372,14.361-8.957,21.417-13.646c3.208-2.131,7.573-2.515,11.403-3.723
			c0.931-0.293,1.941-0.544,2.715-1.095c4.468-3.18,9.036-6.248,13.26-9.731C87.908,83.237,90.707,78.641,88.841,71.09z"/>
		<path fill-rule="evenodd" clip-rule="evenodd" d="M157.055,171.947c-6.893,0-12.994,0.167-19.08-0.067
			c-3.255-0.125-2.193-2.439-1.017-3.777c2.289-2.606,5.22-4.677,7.347-7.392c6.053-7.723,11.747-15.728,17.773-23.471
			c2.06-2.646,2.056-4.537-0.541-6.687c-2.396-1.984-4.565-4.243-6.96-6.499c5.463-3.43,10.501-6.606,15.562-9.746
			c0.532-0.331,1.342-0.784,1.784-0.602c5.547,2.295,11.051,4.697,17.072,7.291c-1.47,1.09-2.471,1.891-3.529,2.605
			c-6.247,4.217-6.491,5.529-2.063,11.396c4.016,5.32,3.93,5.173-2.049,8.68c-8.457,4.959-16.751,10.196-25.158,15.242
			c-3.043,1.827-4.429,3.639-1.542,6.926C155.836,167.195,156.085,169.365,157.055,171.947z"/>
		<path fill-rule="evenodd" clip-rule="evenodd" d="M51.667,145.941c2.51,3.387,4.647,6.27,6.967,9.399
			c-1.336,0.808-2.258,1.437-3.24,1.948c-6.222,3.241-6.227,3.232-2.857,9.483c2.242,4.159,1.687,5.158-3.021,5.194
			c-4.811,0.036-9.622-0.009-14.432-0.05c-0.474-0.004-0.947-0.222-2.305-0.563C39.06,162.903,45.123,154.746,51.667,145.941z"/>
	</g>
	<path fill-rule="evenodd" clip-rule="evenodd" fill="none" d="M224.821,79.749c3.927-1.007,7.844-2.057,11.785-3.008
		c2.82-0.68,5.543,0.135,5.312,3.207c-0.126,1.667-3.011,4.586-4.368,4.434c-4.394-0.495-8.657-2.151-12.971-3.359
		C224.66,80.598,224.741,80.174,224.821,79.749z"/>
	<path fill-rule="evenodd" clip-rule="evenodd" fill="none" d="M226.138,217.866c0.715-3.083,0.905-6.4,2.316-9.073
		c0.878-1.663,3.62-3.259,5.493-3.222c1.845,0.036,4.489,1.76,5.316,3.457c2.741,5.627,2.704,11.706,0.098,17.369
		c-0.807,1.754-3.424,3.74-5.181,3.71c-2.045-0.034-4.847-1.705-5.886-3.498C226.878,224.166,226.818,220.937,226.138,217.866z"/>
	<path fill-rule="evenodd" clip-rule="evenodd" fill="none" d="M101.662,205.297c4.143-0.129,7.939,0.252,7.955,5.022
		c0.017,5.014-3.943,5.125-7.822,5.458c-4.413,0.379-5.143-1.526-5.172-5.439C96.591,206.132,97.885,204.422,101.662,205.297z"/>
	<path fill-rule="evenodd" clip-rule="evenodd" fill="none" d="M34.83,210.068c0.805,2.472,1.745,4.911,2.364,7.43
		c0.357,1.451,0.553,4.246,0.21,4.347c-1.816,0.53-3.837,0.54-5.762,0.394c-0.457-0.035-1.289-1.484-1.139-2.078
		c0.863-3.419,1.97-6.775,2.994-10.153C33.941,210.027,34.386,210.048,34.83,210.068z"/>
</g>
</svg>
