<?xml version="1.0" encoding="utf-8"?>
<!-- Generator: Adobe Illustrator 16.0.0, SVG Export Plug-In . SVG Version: 6.00 Build 0)  -->
<!DOCTYPE svg PUBLIC "-//W3C//DTD SVG 1.1//EN" "http://www.w3.org/Graphics/SVG/1.1/DTD/svg11.dtd">
<svg version="1.1" id="Layer_1" xmlns="http://www.w3.org/2000/svg" xmlns:xlink="http://www.w3.org/1999/xlink" x="0px" y="0px"
	 width="266.411px" height="243.544px" viewBox="0 0 266.411 243.544" enable-background="new 0 0 266.411 243.544"
	 xml:space="preserve">
<g id="MyHR" display="none">
	<g display="inline">
		<path fill-rule="evenodd" clip-rule="evenodd" d="M130.295,103.436c-16.937-4.834-37.185-0.419-51.723-14.39
			c-5.828-5.6-11.926-11.465-15.849-18.375c-5.314-9.371-8.657-19.86-10.104-31.166c1.188,1.343,2.712,2.512,3.519,4.057
			c16.497,31.597,41.159,41.497,78.696,26.589c30.771-12.217,61.043-9.978,90.969,1.836c26.068,10.291,30.709,24.497,16.758,48.42
			c-2.933,5.03-6.91,9.453-12.762,13.332c1.459-5.9,3.261-11.738,4.312-17.71c2.366-13.468-1.484-21.259-12.069-25.458
			c-10.881-4.313-27.083-1.043-31.777,8.599c-3.64,7.475-5.728,17.041-4.67,25.179c1.998,15.355,12.372,26.505,24.119,36.127
			c7.23,5.926,15.053,5.615,22.987,2.125c11.255-4.952,22.367-10.233,34.381-14.142c-9.246,16.293-22.682,28.17-38.98,36.134
			c-12.595,6.156-26.1,4.683-38.643-1.795c-9.212-4.759-18.341-9.716-27.264-14.996c-23.345-13.816-48.359-17.624-74.917-13.406
			c-26.633,4.231-46.858,17.469-59.507,41.627c-1.993,3.807-4.092,7.558-7.97,14.699c-2.287-26.429,7.917-43.696,23.059-58.507
			c15.872-15.524,35.764-23.417,57.277-27.577c6.538-1.265,13.249-1.895,19.609-3.75
			C127.599,118.597,132.683,113.729,130.295,103.436z"/>
		<path fill-rule="evenodd" clip-rule="evenodd" d="M157.221,55.82c-8.206,0.443-16.491-6.21-17.071-13.705
			c-0.757-9.749,9.683-21.805,19.744-22.804c11.185-1.111,19.501,5.623,19.412,15.715C179.219,44.988,168.352,55.218,157.221,55.82z
			"/>
	</g>
</g>
<g id="Layer_3" display="none">
	<g display="inline">
		<path fill-rule="evenodd" clip-rule="evenodd" d="M249.296,44.176c1.222,0.418,2.583,0.618,3.64,1.293
			c3.428,2.188,7.562,3.916,9.935,6.976c5.058,6.52,1.104,14.445-7.116,14.299c-5.203-0.093-10.336-2.304-15.574-2.828
			c-3.6-0.36-7.519-0.046-10.933,1.072c-2.726,0.893-3.79,3.517-0.05,5.253c3.918,1.819,4.78,5.024,4.835,9.009
			c0.122,8.651,0.731,17.299,0.761,25.949c0.014,4.194,1.882,7.039,5.097,9.066c3.636,2.292,7.431,4.385,11.325,6.201
			c4.961,2.314,5.771,5.384,2.628,9.704c-0.994,1.367-1.608,3.692-1.203,5.273c1.401,5.464,3.561,10.732,4.961,16.197
			c0.738,2.881,0.387,6.026,0.761,9.023c0.148,1.192,0.855,2.345,1.435,3.449c1.19,2.268,2.465,4.491,4.319,7.842
			c-7.392,0-13.468,0.083-19.534-0.13c-0.593-0.021-1.378-1.819-1.575-2.886c-0.104-0.562,0.727-1.586,1.386-1.952
			c6.248-3.469,4.618-8.279,2.235-13.119c-2.929-5.95-5.535-12.145-9.203-17.615c-2.508-3.74-6.125-7.289-10.061-9.421
			c-12.579-6.816-25.419-13.11-35.11-23.866c-0.623,0.271-1.137,0.358-1.167,0.53c-1.376,7.948-7.699,11.374-13.951,14.222
			c-11.921,5.432-24.029,10.504-36.287,15.123c-6.874,2.59-7.692,1.653-9.106-5.699c-0.153-0.793-0.362-1.575-1.504-2.584
			c-0.952,2.881-2.102,5.721-2.729,8.671c-0.176,0.826,0.957,2.383,1.884,2.907c2.885,1.635,5.949,2.957,8.962,4.358
			c4.594,2.135,8.873,3.778,11.78-2.688c1.45-3.225,3.816-3.072,5.957,0.026c2.354,3.407,5.015,6.602,8.116,10.636
			c-2.405,0.6-4.265,1.614-5.973,1.402c-15.142-1.876-30.273-3.863-45.36-6.136c-1.806-0.272-4.177-2.114-4.82-3.791
			c-1.894-4.939-3.327-10.104-4.402-15.294c-0.74-3.569-0.153-6.866,2.748-10.005c4.079-4.414,3.656-8.547,0.772-12.232
			c3.113-6.203,6.667-11.661,8.636-17.641c2.236-6.794-2.268-15.57-8.243-18.089c-1.216-0.514-2.774-0.216-4.175-0.291
			c0.165,1.242,0.03,2.629,0.545,3.703c2.712,5.65,1.394,10.492-3.107,14.371c-5.335,4.599-10.228,9.88-18.345,9.898
			c-2.847,0.006-5.734,2.358-8.521,3.798c-5.131,2.652-10.203,5.422-15.824,8.422c-0.272-1.494-0.747-2.387-0.485-2.913
			c5.384-10.82,4.58-22.655,5.795-34.173c1.426-13.526,7.759-19.329,21.41-20.208c19.12-1.23,37.284,3.698,55.412,8.676
			c13.023,3.577,26.023,6.962,39.705,6.491c8.283-0.285,16.276-1.623,23.234-6.396c4.235-2.905,7.301-0.55,10.248,1.853
			c2.418,1.972,4.013,2.785,6.36-0.257c3.439-4.456,8.503-4.734,13.662-4.047c1.262,0.169,2.51,0.452,4.424,0.805
			c-0.713-1.446-1.063-2.305-1.536-3.09c-3.683-6.106-3.369-6.762,3.714-8.039c1.103-0.198,2.145-0.73,3.214-1.109
			C245.296,44.176,247.296,44.176,249.296,44.176z M245.015,58.409c-0.081,0.425-0.162,0.849-0.242,1.273
			c4.313,1.208,8.577,2.864,12.971,3.359c1.357,0.152,4.242-2.767,4.368-4.434c0.231-3.072-2.492-3.887-5.312-3.207
			C252.859,56.353,248.942,57.402,245.015,58.409z"/>
		<path fill-rule="evenodd" clip-rule="evenodd" d="M108.322,71.09c7.64,10.258,6.217,14.692-9.023,32.628
			c6.918,1.908,7.984,4.696,3.088,9.906c-4.644,4.941-2.821,10.31-1.708,15.495c1.109,5.164,3.335,10.077,4.769,15.186
			c1.824,6.498,0.097,9.518-7.111,13.353c-6.807,3.622-11.088,3.345-15.175-1.447c-2.798-3.281-5.042-7.03-7.784-10.363
			c-4.582-5.57-9.236-10.696-17.704-10.142c-5.652,0.369-6.869-2.578-3.918-8.53c-12.26,1.532-25.261,5.714-32.983-10.641
			c12.466,9.689,22.735,1.619,33.396-1.452c4.661-8.372,14.361-8.957,21.417-13.646c3.208-2.131,7.573-2.515,11.403-3.723
			c0.931-0.293,1.941-0.544,2.715-1.095c4.468-3.18,9.036-6.248,13.26-9.731C107.389,83.237,110.188,78.641,108.322,71.09z"/>
		<path fill-rule="evenodd" clip-rule="evenodd" d="M176.536,171.947c-6.893,0-12.994,0.167-19.08-0.067
			c-3.255-0.125-2.193-2.439-1.017-3.777c2.289-2.606,5.22-4.677,7.347-7.392c6.053-7.723,11.747-15.728,17.773-23.471
			c2.06-2.646,2.056-4.537-0.541-6.687c-2.396-1.984-4.565-4.243-6.96-6.499c5.463-3.43,10.501-6.606,15.562-9.746
			c0.532-0.331,1.342-0.784,1.784-0.602c5.547,2.295,11.051,4.697,17.072,7.291c-1.47,1.09-2.471,1.891-3.529,2.605
			c-6.247,4.217-6.491,5.529-2.063,11.396c4.016,5.32,3.93,5.173-2.049,8.68c-8.457,4.959-16.751,10.196-25.158,15.242
			c-3.043,1.827-4.429,3.639-1.542,6.926C175.317,167.195,175.566,169.365,176.536,171.947z"/>
		<path fill-rule="evenodd" clip-rule="evenodd" d="M71.148,145.941c2.51,3.387,4.647,6.27,6.967,9.399
			c-1.336,0.808-2.258,1.437-3.24,1.948c-6.222,3.241-6.227,3.232-2.857,9.483c2.242,4.159,1.687,5.158-3.021,5.194
			c-4.811,0.036-9.622-0.009-14.432-0.05c-0.474-0.004-0.947-0.222-2.305-0.563C58.542,162.903,64.604,154.746,71.148,145.941z"/>
	</g>
</g>
<g id="QM_x2B_" display="none">
	<g>
		<path display="inline" fill-rule="evenodd" clip-rule="evenodd" d="M162.721,98.958c0-14.023,0.354-28.059-0.108-42.068
			c-0.397-12.074-5.305-16.73-16.374-17.107c-11.835-0.404-17.491,4.484-17.983,17.128c-0.546,14.006-0.125,28.051-0.125,42.079
			c-1.159,0.165-2.319,0.33-3.479,0.495c-0.922-2.108-2.599-4.201-2.643-6.327c-0.26-12.756-0.621-25.542-0.026-38.276
			c0.665-14.178,8.236-20.717,22.777-21.041c14.635-0.324,23.196,5.856,24.111,19.667c0.996,15.042,0.225,30.202,0.225,45.309
			C166.971,98.864,164.847,98.911,162.721,98.958z"/>
		<path display="inline" fill-rule="evenodd" clip-rule="evenodd" d="M188.624,108.703c16.754,0,33.605-1.076,50.229,0.393
			c10.443,0.924,14.327,9.685,14.285,23.398c-0.033,10.686-3.304,20.45-14.654,21.496c-16.593,1.53-33.43,0.393-50.164,0.393
			c-0.156-1.027-0.314-2.057-0.471-3.086c2.476-0.895,4.933-2.504,7.429-2.565c12.267-0.302,24.563,0.205,36.813-0.352
			c10.776-0.491,15.512-5.793,15.876-16.06c0.393-11.063-4.447-17.247-15.614-18.125c-9.55-0.752-19.199-0.258-28.804-0.297
			c-5.04-0.022-10.081-0.005-15.121-0.005C188.494,112.163,188.559,110.433,188.624,108.703z"/>
		<path display="inline" fill-rule="evenodd" clip-rule="evenodd" d="M128.082,164.305c0,13.382-0.044,26.764,0.016,40.145
			c0.038,8.385,1.362,15.9,11.174,18.692c12.925,3.678,22.5-2.315,23.29-15.719c0.624-10.592,0.055-21.248,0.255-31.871
			c0.072-3.83,0.842-7.646,1.292-11.467c1.337-0.053,2.675-0.105,4.012-0.158c0.444,4.756,1.24,9.51,1.259,14.266
			c0.048,11.149,0.558,22.393-0.668,33.426c-1.455,13.091-9.835,18.179-25.621,17.411c-13.415-0.65-20.342-6.27-20.998-18.93
			c-0.715-13.773-0.234-27.615-0.023-41.424c0.025-1.639,1.625-3.256,2.495-4.883C125.737,163.964,126.909,164.135,128.082,164.305z
			"/>
		<path display="inline" fill-rule="evenodd" clip-rule="evenodd" d="M101.539,154.374c-16.679,0-33.468,1.156-50.001-0.397
			c-11.475-1.078-14.436-11.375-14.522-21.72c-0.086-10.09,1.567-21.29,13.171-22.544c16.857-1.824,34.057-0.467,51.112-0.467
			c0.075,1.55,0.148,3.1,0.222,4.65c-6.344,0-12.688-0.003-19.03,0.001c-6.935,0.004-13.87-0.06-20.803,0.045
			c-9.205,0.138-16.984,2.375-19.011,13.096c-2.392,12.634,3.662,20.813,16.632,21.418c9.58,0.446,19.2,0.008,28.799,0.171
			c4.5,0.076,8.992,0.64,13.487,0.982C101.574,151.197,101.557,152.785,101.539,154.374z"/>
		<path display="inline" fill-rule="evenodd" clip-rule="evenodd" d="M87.434,204.587c2.779-3.015,5.989-5.742,8.247-9.104
			c4.82-7.186,2.869-15.794-4.066-19.119c-8.204-3.932-11.615,1.786-14.611,7.734c-1.908,3.786-3.263,7.85-5.133,11.657
			c-6.638,13.521-16.488,17.804-26.43,11.624c-8.841-5.496-11.723-22.311-4.667-31.466c2.839-3.683,7.581-5.901,11.457-8.785
			c0.789,0.963,1.578,1.925,2.368,2.889c-3.216,3.551-6.958,6.758-9.535,10.725c-4.927,7.581-2.951,17.785,3.948,20.957
			c9.156,4.208,13.839-1.531,17.306-8.846c1.589-3.352,2.601-6.971,4.114-10.363c5.282-11.843,12.68-16.238,21.928-13.174
			c9.151,3.033,14.274,14.457,9.924,25.303c-2.024,5.049-7.065,8.887-10.739,13.274C90.174,206.792,88.804,205.688,87.434,204.587z"
			/>
		<path display="inline" fill-rule="evenodd" clip-rule="evenodd" d="M39.029,8.185c19.726,0,39.452-0.047,59.175,0.109
			c1.252,0.01,2.894,1.323,3.671,2.487c3.83,5.732,0.028,30.097-5.263,34.78c-9.247,8.185-24.485,4.14-28.662-7.647
			c-0.525-1.482-0.741-3.084-1.02-4.646c-1.085-6.095-0.122-14.641-3.75-17.636c-3.917-3.231-12.12-1.205-18.443-1.624
			c-1.98-0.131-3.927-0.757-5.89-1.156C38.908,11.297,38.969,9.741,39.029,8.185z M97.4,23.467c2.093-11.15-6.7-8.872-13.928-9.479
			c-8.568-0.719-12.6,1.868-11.917,11.233c0.857,11.745,4.986,17.902,13.434,17.807C93.385,42.933,97.602,36.716,97.4,23.467z"/>
		<path display="inline" fill-rule="evenodd" clip-rule="evenodd" d="M102.915,68.889c-14.76,0-28.051-0.138-41.338,0.036
			c-17.291,0.225-19.062-3.672-18.766,17.4c0.047,3.374-1.154,6.765-1.778,10.146c-1.084-0.055-2.169-0.111-3.255-0.166
			c0-8.818-0.485-17.68,0.307-26.425c0.227-2.521,4.105-6.704,6.354-6.733c18.484-0.239,36.978,0.304,55.465,0.743
			C100.401,63.901,100.864,65.414,102.915,68.889z"/>
	</g>
	<g display="inline">
		
			<path fill-rule="evenodd" clip-rule="evenodd" fill="none" stroke="#000000" stroke-width="6" stroke-linecap="round" stroke-linejoin="round" stroke-miterlimit="10" d="
			M159.024,101.934c0-14.888,0.207-29.777-0.057-44.657c-0.272-15.415-7.395-22.332-22.273-22.332
			c-14.878,0-21.999,6.917-22.272,22.332c-0.264,14.88-0.058,29.77-0.058,44.657"/>
		
			<path fill-rule="evenodd" clip-rule="evenodd" fill="none" stroke="#000000" stroke-width="6" stroke-linecap="round" stroke-linejoin="round" stroke-miterlimit="10" d="
			M181.354,158.618c15.46,0,30.919,0.096,46.379-0.029c14.728-0.117,20.092-5.137,20.611-18.865
			c0.683-18.04-3.769-24.819-18.902-25.585c-15.991-0.808-32.057-0.181-48.088-0.181"/>
		
			<path fill-rule="evenodd" clip-rule="evenodd" fill="none" stroke="#000000" stroke-width="6" stroke-linecap="round" stroke-linejoin="round" stroke-miterlimit="10" d="
			M114.364,170.642c0,15.46-0.095,30.919,0.026,46.379c0.119,14.657,7.893,22.33,22.304,22.33c14.006,0,21.917-7.622,22.251-22.332
			c0.352-15.451,0.079-30.917,0.079-46.377"/>
		
			<path fill-rule="evenodd" clip-rule="evenodd" fill="none" stroke="#000000" stroke-width="6" stroke-linecap="round" stroke-linejoin="round" stroke-miterlimit="10" d="
			M88.599,113.958c-13.742,0-27.486-0.203-41.224,0.053c-15.167,0.286-25.767,9.659-25.767,22.277
			c0,12.917,10.753,22.271,25.765,22.32c13.742,0.045,27.483,0.01,41.226,0.01"/>
		
			<path fill-rule="evenodd" clip-rule="evenodd" fill="none" stroke="#000000" stroke-width="6" stroke-linecap="round" stroke-linejoin="round" stroke-miterlimit="10" d="
			M35.35,179.23c-11.403,2.321-12.93,12.953-12.927,20.611c0.003,6.175,2.283,16.368,12.929,17.156
			c8.068,0.595,14.2-0.262,17.728-10.087c2.257-6.291,4.86-13.008,8.207-18.996c4.429-7.928,12.193-12.223,20.223-6.651
			c7.881,5.465,9.431,14.356,5.443,23.763c-2.384,5.62-6.756,8.392-12.096,10.275"/>
		
			<path fill-rule="evenodd" clip-rule="evenodd" fill="none" stroke="#000000" stroke-width="6" stroke-linecap="round" stroke-linejoin="round" stroke-miterlimit="10" d="
			M55.962,10.896c0,6.299,0.256,12.609-0.053,18.891c-0.615,12.411,6.686,15.309,17.228,15.563
			c11.188,0.27,13.663-6.434,13.733-15.559c0.053-6.895,0.01-13.788,0.01-22.33c-22.298,0-42.927,0-63.555,0"/>
		
			<path fill-rule="evenodd" clip-rule="evenodd" fill="none" stroke="#000000" stroke-width="6" stroke-linecap="round" stroke-linejoin="round" stroke-miterlimit="10" d="
			M88.599,65.863c-20.628,0-41.258,0-63.556,0c0,11.959,0,22.298,0,32.635"/>
	</g>
</g>
<g id="QM_crown" display="none">
	<path display="inline" fill-rule="evenodd" clip-rule="evenodd" fill="none" d="M1128.303,102.327c0,66.052,0,132.104,0,198.157
		c-178.846,0-357.693,0-536.539,0c4.412-1.163,7.808-3.584,9.59-7.909c0.718-1.743,1.404-3.516,1.898-5.332
		c2.904-10.683,5.749-21.382,8.613-32.076c0.874-3.262,1.746-6.524,2.675-9.994c-3.408,0-6.44,0-9.7,0
		c-1.904,8.598-3.797,17.143-5.859,26.451c-0.418-1.211-0.62-1.669-0.734-2.147c-1.777-7.443-3.512-14.897-5.357-22.324
		c-0.194-0.779-0.994-1.95-1.586-1.997c-2.74-0.213-5.506-0.094-8.473-0.094c0.269,1.104,0.414,1.801,0.608,2.483
		c3.225,11.34,6.552,22.652,9.652,34.026c2.032,7.456-0.019,10.074-7.8,10.607c-0.254,0.017-0.499,0.142-1.107,0.323
		c0,2.614,0,5.298,0,7.982c-194.482,0-388.965,0-583.643,0c0-76.159,0-152.318,0-228.477c0.312,0.822,0.711,1.621,0.924,2.468
		c6.569,26.216,13.115,52.438,19.678,78.655c0.97,3.874,2.001,7.732,3.176,12.259c3.762-9.9,11.013-13.902,20.257-14.814
		c9.285-0.915,16.77,2.889,23.055,10c-0.196-7.317-4.818-20.48-8.866-25.735c-4.809-6.244-11.127-7.698-18.204-4.088
		c-1.677,0.855-3.328,1.855-4.773,3.051c-2.766,2.289-5.375,4.766-8.306,7.394c0.394-1.042,0.693-1.852,1.005-2.656
		c3.607-9.299,4.101-18.753,1.417-28.367c-3.187-11.417-9.603-20.92-17.797-29.243c-3.565-3.622-7.693-6.689-11.566-10.008
		c0-23.43,0-46.86,0-70.383c44.937,0,89.875,0,134.812,0c-1.916,4.153-3.507,8.498-5.819,12.417
		c-3.996,6.771-5.202,13.36-0.446,20.211c0.032,0.046-0.013,0.145-0.021,0.218c-10.509-7.519-19.077-3.921-21.711,1.713
		c-2.858,6.114,0.537,16.447,6.403,18.791c0.398-1.739,0.599-3.551,1.231-5.197c1.495-3.896,6.901-6.227,10.857-4.85
		c3.283,1.143,4.505,4.877,2.9,9.47c-0.728,2.082-1.818,4.037-2.743,6.047c3.283-0.3,6.49-0.83,9.694-0.819
		c3.155,0.01,6.309,0.568,9.209,0.86c-0.955-2.854-2.294-5.581-2.733-8.446c-0.777-5.076,2.605-8.06,7.651-7.226
		c4.572,0.756,6.967,3.215,7.625,7.851c0.119,0.837,0.187,1.683,0.327,2.97c4.331-3.311,6.569-7.269,7.5-12.168
		c1.133-5.964-3.09-14.185-11.771-13.058c-3.603,0.468-7.077,1.923-10.426,2.876c0.175-0.387,0.546-1.363,1.042-2.272
		c2.099-3.845,2.13-7.754,0.372-11.699c-0.732-1.642-1.626-3.211-2.411-4.832c-2.073-4.281-4.127-8.571-6.189-12.857
		c330.803,0,661.606,0,992.409,0c0,33.567,0,67.135,0,100.703c-2.791,0.046-5.598,0.287-8.37,0.079
		c-2.329-0.175-3.27,0.749-3.978,2.844c-6.313,18.681-12.721,37.329-19.106,55.984c-1.771,5.176-3.564,10.345-5.503,15.969
		c-0.415-1.049-0.661-1.601-0.854-2.17c-3.838-11.342-7.667-22.686-11.502-34.028c-4.095-12.112-8.178-24.229-12.324-36.323
		c-0.279-0.816-1.009-2.063-1.587-2.097c-3.463-0.198-6.943-0.098-10.73-0.098c0.376,1.248,0.596,2.1,0.888,2.926
		c10.048,28.441,20.107,56.878,30.139,85.325c0.317,0.902,0.71,1.998,0.477,2.84c-1.808,6.545-4.161,12.866-8.534,18.215
		c-4.171,5.104-9.433,7.332-16.043,6.067c-1.98-0.379-4.002-0.553-6.274-0.856c0,2.544,0.09,4.698-0.029,6.839
		c-0.084,1.502,0.556,2.185,1.937,2.276c3.321,0.218,6.649,0.6,9.969,0.549c10.341-0.161,17.838-4.99,22.436-14.24
		c1.241-2.495,2.442-5.035,3.362-7.658c9.211-26.254,18.345-52.535,27.535-78.796
		C1122.849,117.348,1125.602,109.847,1128.303,102.327z M906.314,76.43c0.212,0.002,0.425,0.004,0.637,0.006
		c0,38.821,0,77.641,0,116.5c3.996,0,7.726,0,11.528,0c0-42.392,0-84.575,0-127.099c-6.172,0-12.192,0.067-18.21-0.041
		c-1.794-0.032-2.459,0.672-2.984,2.292c-9.422,29.048-18.903,58.077-28.381,87.107c-1.973,6.043-3.98,12.075-6.132,18.597
		c-0.436-1.173-0.705-1.828-0.924-2.499c-3.359-10.274-6.723-20.547-10.064-30.827c-7.822-24.07-15.658-48.137-23.404-72.232
		c-0.612-1.905-1.506-2.488-3.433-2.441c-5.049,0.125-10.104,0.036-15.156,0.049c-0.861,0.002-1.722,0.089-2.575,0.136
		c0,42.504,0,84.685,0,127.015c3.838,0,7.491,0,11.502,0c0-38.898,0-77.661,0-116.423c0.74,0.603,1.037,1.241,1.253,1.905
		c11.479,35.385,22.946,70.775,34.438,106.157c0.912,2.809,1.254,6.483,3.221,8.066c1.721,1.385,5.369,0.251,8.144,0.49
		c2.144,0.185,2.895-0.708,3.519-2.651c6.884-21.44,13.877-42.846,20.836-64.263C895.526,109.662,900.918,93.045,906.314,76.43z
		 M176.467,179.754c0.201-0.526,0.209-0.633,0.267-0.688c0.524-0.493,1.06-0.975,1.588-1.464
		c17.076-15.833,24.455-35.35,20.562-58.311c-6.252-36.875-41.813-59.928-78.649-51.611c-41.078,9.275-62.153,55.81-41.944,92.612
		c16.255,29.602,52.379,41.659,83.614,27.984c1.153-0.504,2.808-0.575,3.996-0.168c6.647,2.281,13.217,4.787,19.824,7.185
		c8.303,3.014,16.57,6.1,25.54,6.628c12.127,0.715,22.418-4.604,27.058-14.187c3.969-8.197,2.188-17.341-4.618-23.713
		c-6.402-5.993-15.438-6.969-23.291-2.473c-2.703,1.548-4.62,3.747-5.138,6.924c-0.517,3.169,1.042,6.242,3.843,7.705
		c2.753,1.437,6.011,1.02,8.308-1.064c2.194-1.989,3.272-5.58,1.696-8.135c-1.272-2.063-3.481-3.55-5.093-5.115
		c7.14-3.049,15.939,1.842,17.031,10.112c1.143,8.657-5.685,17.994-14.365,18.996c-3.588,0.414-7.543,0.392-10.927-0.692
		C195.915,187.121,186.266,183.326,176.467,179.754z M404.905,188.106c6.781,10.986,16.969,15.567,29.669,15.58
		c0-3.705,0-7.08,0-10.622c-0.989,0-1.795,0.017-2.601-0.002c-7.672-0.185-13.715-3.232-17.838-9.897
		c-0.95-1.536-0.969-2.42,0.208-3.93c2.592-3.324,5.305-6.707,7.092-10.48c11.283-23.822,11.459-48.239,2.699-72.762
		c-4.355-12.194-12.155-21.91-24.115-27.597c-18.075-8.594-48.331-7.214-62.534,23.073c-10.172,21.693-10.286,44.324-3.622,67.037
		c3.377,11.509,9.403,21.619,19.595,28.368C370.105,197.899,387.287,197.402,404.905,188.106z M136.174,206.417
		c-28.595,0-57.189-0.043-85.783,0.069c-2.813,0.011-5.818,0.511-8.393,1.594c-5.785,2.435-6.263,8.067-1.24,11.892
		c3.421,2.604,7.379,3.93,11.63,3.668c14.481-0.892,28.949-2.006,43.428-2.956c13.127-0.86,26.278-2.458,39.389-2.212
		c18.362,0.345,36.698,2.088,55.044,3.254c9.893,0.628,19.776,1.446,29.677,1.892c4.629,0.208,8.929-1.318,12.341-4.619
		c3.549-3.434,3.131-8.198-1.274-10.313c-2.816-1.352-6.182-2.157-9.308-2.175C193.183,206.352,164.678,206.417,136.174,206.417z
		 M996.667,193.013c-0.357-3.854-0.925-7.342-0.963-10.835c-0.151-13.893-0.109-27.788-0.198-41.681
		c-0.038-5.95,0.016-11.916-0.39-17.845c-0.833-12.199-7.662-19.824-19.714-21.992c-4.053-0.729-8.247-1.068-12.363-0.979
		c-14.925,0.327-25.479,7.637-32.35,20.85c2.419,1.434,4.716,2.796,6.905,4.094c0.312-0.207,0.406-0.239,0.456-0.306
		c0.585-0.798,1.158-1.605,1.743-2.404c7.077-9.662,16.318-14.604,28.563-13.639c10.208,0.804,15.724,5.274,16.752,14.569
		c0.354,3.196,0.056,6.465,0.056,9.943c-3.681,0.832-7.456,1.645-11.211,2.541c-10.689,2.551-21.433,4.91-31.403,9.804
		c-11.54,5.665-16.583,14.98-15.828,27.646c0.686,11.514,8.031,19.841,19.461,21.616c11.939,1.854,22.923-0.828,32.855-7.73
		c1.968-1.368,3.911-2.771,6.096-4.32c0.522,3.782,0.994,7.208,1.471,10.667C990.077,193.013,993.295,193.013,996.667,193.013z
		 M527.173,147.634c21.373,0,42.417,0,64.136,0c-0.605-5.567-0.885-10.781-1.792-15.884c-1.591-8.94-4.844-17.246-11.706-23.544
		c-16.776-15.396-44.797-10.091-55.057,10.891c-8.778,17.954-8.475,36.67-1.234,55.083c4.072,10.355,12.07,17.006,23.029,19.409
		c4.526,0.992,9.29,1.285,13.941,1.251c14.526-0.105,28.436-9.604,33.297-22.503c-2.749-1.464-5.516-2.939-8.235-4.388
		c-2.476,3.291-4.83,6.472-7.239,9.61c-9.73,12.678-29.486,10.26-37.643,2.487C529.455,171.264,527.542,159.949,527.173,147.634z
		 M674.316,147.694c-0.867-6.579-1.305-12.694-2.547-18.641c-1.666-7.969-5.011-15.288-11.171-20.899
		c-16.77-15.274-44.723-10.005-54.938,10.802c-8.822,17.969-8.539,36.672-1.352,55.112c4.001,10.267,11.859,16.971,22.715,19.425
		c4.607,1.041,9.464,1.35,14.207,1.35c15.996,0.001,26.15-8.994,33.553-22.415c-2.882-1.538-5.645-3.012-8.385-4.475
		c-2.528,3.336-4.943,6.576-7.413,9.774c-9.577,12.398-29.185,10.066-37.267,2.508c-9.397-8.79-11.338-20.187-11.707-32.541
		C631.324,147.694,652.305,147.694,674.316,147.694z M693.953,193.018c0-1.388,0-2.458,0-3.527c0-20.474-0.017-40.948,0.045-61.421
		c0.003-1.142,0.303-2.658,1.059-3.359c4.025-3.739,8.132-7.41,12.419-10.842c4.387-3.512,9.412-5.532,15.166-5.685
		c10.879-0.289,17.137,4.901,18.563,15.719c0.317,2.405,0.502,4.847,0.507,7.271c0.04,19.572,0.022,39.144,0.022,58.716
		c0,1.031,0,2.062,0,3.002c3.822,0,7.188,0,10.573,0c0.05-0.788,0.112-1.325,0.112-1.862c0.005-20.835,0.049-41.67-0.042-62.504
		c-0.014-3.133-0.405-6.316-1.058-9.384c-2.123-9.974-7.787-16.705-18.133-18.757c-13.009-2.58-24.233,0.992-33.817,10.028
		c-1.66,1.565-3.322,3.127-5.549,5.222c0-5.209,0-9.655,0-14.102c-3.664,0-6.969,0-10.366,0c0,30.564,0,60.979,0,91.485
		C686.95,193.018,690.251,193.018,693.953,193.018z M508.132,101.542c-3.613,0-6.988,0-10.654,0c0,1.211,0,2.272,0,3.333
		c0,20.563,0.014,41.126-0.039,61.689c-0.003,1.062-0.245,2.493-0.943,3.124c-4.54,4.106-9.083,8.24-13.927,11.972
		c-4.966,3.826-10.777,5.166-17.077,4.609c-7.558-0.667-12.521-4.33-14.396-11.708c-0.986-3.883-1.414-8.002-1.444-12.019
		c-0.144-19.209-0.064-38.42-0.064-57.63c0-1.063,0-2.125,0-3.328c-3.667,0-7.03,0-10.452,0c-0.051,0.822-0.123,1.447-0.124,2.072
		c-0.005,20.653-0.027,41.307,0.025,61.96c0.007,2.603,0.261,5.229,0.665,7.803c2.182,13.884,11.008,21.205,25.066,21.555
		c11.218,0.28,20.287-4.056,28.147-11.623c1.365-1.314,2.785-2.572,4.728-4.361c0,5.206,0,9.58,0,13.942c3.64,0,7.01,0,10.489,0
		C508.132,162.439,508.132,132.158,508.132,101.542z M240.954,140.502c-3.906-2.99-7.96-6.781-12.634-9.512
		c-7.228-4.223-13.805-2.436-18.676,4.283c-0.895,1.234-1.844,2.515-2.357,3.924c-1.902,5.229-3.687,10.502-5.395,15.798
		c-0.545,1.691-0.718,3.503-1.061,5.26c6.458-6.862,13.981-10.563,23.304-9.674c9.342,0.891,16.585,5.046,20.302,14.854
		c7.989-31.878,15.807-63.078,23.8-94.974c-6.729,5.076-12.213,10.383-16.963,16.403
		C238.416,103.162,232.438,120.791,240.954,140.502z M1016.988,193.003c0-1.407,0-2.479,0-3.552
		c-0.001-15.781-0.01-31.563,0.013-47.345c0.003-1.707,0.098-3.426,0.316-5.117c1.943-15.058,16.293-28.843,29.757-27.098
		c0.409,0.053,0.845-0.098,1.285-0.156c0-3.438,0-6.708,0-9.992c-5.41-0.436-10.493-0.05-15.284,2.18
		c-7.217,3.359-12.066,9.091-16.157,15.951c0-5.421,0-10.842,0-16.342c-3.681,0-6.978,0-10.429,0c0,30.552,0,60.956,0,91.471
		C1010.005,193.003,1013.302,193.003,1016.988,193.003z M344.417,231.868c-3.755,0-7.04,0-10.445,0c0,1.208-0.002,2.193,0,3.18
		c0.018,12.44-0.157,24.886,0.127,37.32c0.173,7.563,4.993,12.74,12.288,13.975c2.294,0.388,4.675,0.532,6.997,0.42
		c9.029-0.439,15.152-4.702,15.552-12.722c0.695-13.996,0.193-28.052,0.193-42.191c-3.319,0-6.671,0-10.175,0
		c0,2.897,0,5.591,0,8.285c-0.001,9.916,0.032,19.833-0.017,29.75c-0.023,4.768-2.133,7.238-6.272,7.616
		c-5.293,0.483-8.22-2.127-8.236-7.495c-0.037-11.72-0.012-23.439-0.012-35.159C344.417,233.88,344.417,232.912,344.417,231.868z
		 M96.734,189.839c-3.513-2.771-6.391-4.939-9.141-7.258c-1.167-0.984-2.129-1.24-3.612-0.655c-4.94,1.948-9.897,3.881-14.946,5.516
		c-3.833,1.241-7.765,2.494-11.74,2.911c-11.15,1.172-20.618-8.201-19.308-19.04c0.285-2.361,1.449-4.886,2.923-6.779
		c3.435-4.412,10.542-5.749,14.378-3.061c-0.645,0.225-1.255,0.381-1.817,0.642c-3.288,1.526-4.982,5.079-4.095,8.53
		c0.884,3.435,4.101,5.664,7.759,5.374c3.523-0.279,6.36-3.108,6.561-6.754c0.189-3.443-1.399-6.063-4.182-7.999
		c-6.421-4.464-15.583-4.511-21.891-0.122c-6.989,4.862-10.533,13.574-8.636,21.23c2.581,10.421,11.964,17.992,23.656,18.384
		c4.982,0.167,10.193-0.158,14.967-1.471C77.281,196.627,86.726,193.141,96.734,189.839z M828.823,248.606
		c-1.357-0.874-2.243-1.464-3.148-2.023c-7.95-4.916-15.267-1.72-16.171,7.618c-0.69,7.131-0.274,14.373-0.248,21.564
		c0.005,1.321,0.388,2.676,0.784,3.957c1.945,6.29,7.752,8.889,13.712,6.01c1.96-0.947,3.669-2.413,5.598-3.714
		c0.077,1.325,0.151,2.613,0.224,3.86c3.007,0,5.751,0,8.52,0c0-18.153,0-36.104,0-54.072c-3.16,0-6.09,0-9.27,0
		c0,2.84,0,5.522,0,8.206C828.823,242.702,828.823,245.392,828.823,248.606z M486.191,267.762c0-3.364,0.017-6.499-0.004-9.635
		c-0.045-6.863-4.312-12.05-11.02-13.426c-8.065-1.653-15.7,1.153-17.716,7.672c-2.662,8.61-2.746,17.736,0.004,26.303
		c2.473,7.701,13.584,10.586,21.786,6.518c4.806-2.384,6.59-6.518,6.922-11.724c-3.225,0-6.251,0-9.404,0
		c-0.126,0.616-0.202,1.137-0.341,1.64c-0.757,2.738-2.392,3.898-5.398,3.853c-2.878-0.044-4.882-1.417-5.221-4.083
		c-0.287-2.266-0.059-4.597-0.059-7.117C472.669,267.762,479.31,267.762,486.191,267.762z M842.94,265.496
		c-0.017,0.001-0.033,0.001-0.05,0.001c0,2.701-0.148,5.413,0.028,8.104c0.533,8.084,4.614,12.26,12.648,13.142
		c9.998,1.097,16.703-3.691,17.174-12.631c0.303-5.747,0.255-11.532-0.009-17.284c-0.298-6.464-4.175-11.053-10.069-12.032
		c-2.714-0.451-5.587-0.517-8.318-0.188c-6.813,0.82-10.834,5.123-11.366,11.977C842.749,259.538,842.94,262.524,842.94,265.496z
		 M663.308,265.428c0-2.433,0.045-4.866-0.008-7.299c-0.177-8.175-4.552-12.924-12.623-13.755
		c-11.297-1.164-17.348,4.19-17.427,15.495c-0.032,4.593-0.11,9.197,0.146,13.778c0.443,7.939,4.503,12.082,12.409,13.055
		c11.185,1.375,17.495-4.151,17.504-15.327C663.311,269.392,663.309,267.409,663.308,265.428z M769.02,265.709
		c-0.015,0-0.028,0-0.044,0c0-2.793,0.146-5.595-0.027-8.377c-0.484-7.81-4.768-12.22-12.554-12.924
		c-1.955-0.177-3.974-0.095-5.921,0.175c-6.332,0.873-10.229,4.164-10.956,10.454c-0.699,6.049-0.623,12.223-0.454,18.329
		c0.221,8.002,4.5,12.368,12.438,13.336c11.197,1.365,17.5-4.145,17.519-15.315C769.023,269.494,769.02,267.602,769.02,265.709z
		 M888.459,285.893c0-1.06,0-2.028,0-2.997c0-8.21,0-16.419,0-24.629c0-3.432,2.977-6.764,6.08-6.811
		c2.521-0.038,3.448,1.7,3.448,6.472c0.001,8.39-0.004,16.779,0.008,25.17c0.001,0.946,0.094,1.894,0.141,2.778
		c3.281,0,6.208,0,9.351,0c0-1.178,0-2.154,0-3.13c-0.002-9.834,0.091-19.668-0.039-29.5c-0.091-6.955-4.826-10.465-11.436-8.511
		c-1.933,0.571-3.653,1.878-5.446,2.891c-0.718,0.405-1.37,0.929-2.254,1.537c-0.146-1.554-0.252-2.688-0.365-3.893
		c-3.043,0-5.949,0-8.949,0c0,13.628,0,27.031,0,40.622C882.15,285.893,885.159,285.893,888.459,285.893z M403.847,285.92
		c0-11.579,0.225-23.005-0.105-34.414c-0.142-4.917-3.428-7.446-8.405-7.089c-2.311,0.166-4.601,1.271-6.792,2.204
		c-1.265,0.538-2.313,1.585-3.702,2.576c-0.163-1.496-0.294-2.695-0.426-3.904c-3.072,0-5.972,0-8.928,0c0,13.64,0,27.031,0,40.605
		c3.156,0,6.162,0,9.458,0c0-1.071,0-2.039,0-3.007c0-8.652-0.01-17.305,0.007-25.956c0.004-2.271,3.499-5.404,6.043-5.483
		c2.343-0.073,3.468,1.526,3.474,5.049c0.015,8.831,0.001,17.664,0.012,26.496c0.001,0.954,0.084,1.908,0.132,2.923
		C397.829,285.92,400.754,285.92,403.847,285.92z M775.252,285.867c3.156,0,6.144,0,9.335,0c0-1.187,0-2.165,0-3.144
		c-0.001-8.295-0.003-16.589,0-24.883c0.001-3.061,3.318-6.442,6.258-6.387c2.351,0.044,3.324,1.724,3.326,5.776
		c0.004,8.565,0.001,17.129,0.001,25.694c0,0.963,0,1.925,0,2.918c3.334,0,6.327,0,9.36,0c0-11.405,0.188-22.577-0.08-33.738
		c-0.132-5.47-3.488-8.205-8.95-7.688c-2.222,0.21-4.39,1.391-6.488,2.339c-1.178,0.531-2.164,1.487-3.469,2.418
		c-0.144-1.518-0.256-2.715-0.365-3.873c-3.13,0-6.039,0-8.928,0C775.252,258.953,775.252,272.351,775.252,285.867z
		 M708.469,231.808c0,18.159,0,36.052,0,54.07c9.019,0,17.875,0,26.832,0c0-3.049,0-5.893,0-9.086c-5.492,0-10.845,0-16.461,0
		c0-15.173,0-29.998,0-44.984C715.273,231.808,711.98,231.808,708.469,231.808z M541.44,254.654
		c-2.222-7.662-9.569-11.73-17.812-9.963c-4.559,0.979-7.921,3.459-8.96,8.272c-1.063,4.928,0.191,9.193,4.353,12.19
		c2.169,1.563,4.707,2.608,7.052,3.934c1.793,1.015,3.837,1.821,5.212,3.254c0.935,0.975,1.505,3.06,1.12,4.301
		c-0.32,1.032-2.198,2.005-3.516,2.22c-3.068,0.501-5.348-1-6.729-3.857c-0.34-0.705-0.639-1.432-0.998-2.243
		c-2.815,0.792-5.477,1.54-8.153,2.292c3.368,9.291,9.826,13.158,18.95,11.406c5.021-0.964,8.501-3.714,9.657-8.934
		c1.155-5.216-0.351-9.322-4.957-12.378c-2.537-1.683-5.367-2.919-8.033-4.414c-1.327-0.745-2.923-1.366-3.77-2.509
		c-0.775-1.044-1.32-3.007-0.836-4.028c0.496-1.05,2.49-2.164,3.602-1.967c1.682,0.297,3.254,1.591,4.697,2.691
		c0.723,0.552,1.056,1.612,1.676,2.623C536.533,256.56,538.999,255.603,541.44,254.654z M423.645,245.053
		c0.276,1.224,0.424,2.008,0.632,2.774c2.85,10.522,5.691,21.047,8.569,31.562c1.875,6.846,1.899,6.778,8.985,6.734
		c1.789-0.012,2.448-0.639,2.899-2.336c3.213-12.101,6.551-24.168,9.829-36.251c0.198-0.729,0.234-1.502,0.38-2.491
		c-1.538,0-2.787,0-4.037,0c-5.296,0-5.272,0.006-6.484,5.166c-1.583,6.738-3.21,13.467-4.986,20.91
		c-0.422-1.479-0.668-2.228-0.85-2.993c-1.646-6.924-3.232-13.862-4.98-20.76c-0.223-0.88-1.214-2.126-1.961-2.21
		C429.162,244.879,426.63,245.053,423.645,245.053z M680.023,285.901c0-10.438,0-20.76,0-31.443c2.009,0,3.747,0,5.384,0
		c0-2.751,0-5.13,0-7.772c-1.906,0-3.575,0-5.211,0c-0.581-6.425-0.321-6.769,5.565-7.649c0-2.554,0-5.104,0-7.786
		c-4.051-0.285-8.029-1.096-11.445,1.361c-4.845,3.484-3.437,9.055-4.11,14.012c-1.293,0.128-2.503,0.248-3.76,0.372
		c0,2.548,0,4.928,0,7.407c1.379,0.11,2.588,0.209,4.021,0.325c0,10.494,0,20.746,0,31.174
		C673.719,285.901,676.727,285.901,680.023,285.901z M573.174,235.806c-3.403,0-6.346,0-9.597,0c0,3.696,0,7.248,0,10.809
		c-1.336,0.156-2.369,0.277-3.437,0.403c0,2.55,0,4.935,0,7.361c1.214,0.13,2.252,0.241,3.467,0.371c0,1.139,0,2.116,0,3.094
		c0.001,6.758-0.049,13.517,0.02,20.273c0.049,4.68,1.891,7.442,5.92,8.157c3.121,0.554,6.366,0.403,9.628,0.569
		c0-3.14,0-5.688,0-8.207c-5.908-0.666-5.957-0.721-5.958-6.45c-0.001-3.874,0-7.749,0-11.624c0-1.941,0-3.884,0-6.11
		c2.271,0,4.108,0,5.924,0c0-2.692,0-5.079,0-7.747c-2.016,0-3.861,0-5.967,0C573.174,242.946,573.174,239.468,573.174,235.806z
		 M500.863,245.212c-3.3,0-6.223,0-9.22,0c0,13.687,0,27.205,0,40.662c3.185,0,6.107,0,9.243,0c0-1.181,0-2.156,0-3.132
		c0-7.566-0.005-15.133,0.001-22.7c0.005-5.554,2.17-7.256,7.646-6.027c0.602,0.135,1.205,0.264,1.905,0.418
		c0-3.412,0-6.692,0-10.015c-4.298-0.25-7.098,1.894-9.576,5.697C500.863,248.093,500.863,246.787,500.863,245.212z M545.88,245.2
		c0,13.646,0,27.112,0,40.708c3.146,0,6.151,0,9.301,0c0-13.633,0-27.093,0-40.708C552.071,245.2,549.125,245.2,545.88,245.2z
		 M419.1,285.912c0-13.626,0-27.083,0-40.651c-3.157,0-6.145,0-9.139,0c0,13.681,0,27.146,0,40.651
		C413.087,285.912,416.017,285.912,419.1,285.912z M555.134,237.93c0-2.907,0-5.629,0-8.367c-3.222,0-6.221,0-9.254,0
		c0,2.886,0,5.55,0,8.367C548.958,237.93,551.9,237.93,555.134,237.93z M419.114,229.544c-3.274,0-6.198,0-9.105,0
		c0,2.926,0,5.645,0,8.337c3.166,0,6.09,0,9.105,0C419.114,235.016,419.114,232.354,419.114,229.544z"/>
	<g display="inline">
		<path fill-rule="evenodd" clip-rule="evenodd" d="M1.392,77.336c3.834,3.286,7.92,6.323,11.45,9.908
			c8.113,8.24,14.464,17.647,17.62,28.951c2.657,9.517,2.168,18.877-1.403,28.083c-0.309,0.796-0.605,1.598-0.996,2.629
			c2.901-2.602,5.485-5.054,8.223-7.319c1.432-1.184,3.065-2.174,4.726-3.021c7.006-3.574,13.261-2.134,18.022,4.047
			c4.007,5.203,8.583,18.234,8.777,25.478c-6.223-7.041-13.633-10.806-22.825-9.9c-9.152,0.902-16.33,4.865-20.055,14.666
			c-1.163-4.482-2.184-8.302-3.144-12.137C15.291,132.765,8.81,106.806,2.306,80.852c-0.21-0.838-0.605-1.63-0.915-2.443
			C1.392,78.052,1.392,77.694,1.392,77.336z"/>
		<path fill-rule="evenodd" clip-rule="evenodd" d="M135.391,7.657c2.042,4.243,4.075,8.49,6.127,12.729
			c0.777,1.604,1.662,3.157,2.387,4.783c1.741,3.905,1.709,7.775-0.368,11.582c-0.491,0.899-0.858,1.866-1.032,2.249
			c3.315-0.943,6.755-2.384,10.322-2.848c8.594-1.116,12.775,7.022,11.653,12.927c-0.921,4.851-3.137,8.769-7.425,12.046
			c-0.138-1.274-0.206-2.111-0.323-2.94c-0.651-4.589-3.022-7.023-7.548-7.772c-4.996-0.826-8.345,2.129-7.575,7.154
			c0.435,2.837,1.76,5.537,2.706,8.362c-2.872-0.289-5.994-0.841-9.118-0.852c-3.172-0.011-6.347,0.513-9.597,0.811
			c0.916-1.99,1.995-3.926,2.715-5.986c1.589-4.547,0.379-8.244-2.871-9.375c-3.916-1.363-9.268,0.944-10.749,4.802
			c-0.625,1.63-0.825,3.423-1.218,5.145c-5.808-2.32-9.169-12.55-6.339-18.603c2.608-5.578,11.09-9.14,21.494-1.696
			c0.009-0.073,0.053-0.17,0.021-0.216c-4.709-6.782-3.515-13.305,0.441-20.009c2.29-3.879,3.865-8.181,5.761-12.292
			C135.034,7.657,135.212,7.657,135.391,7.657z"/>
		<path fill-rule="evenodd" clip-rule="evenodd" d="M175.558,185.078c9.702,3.535,19.254,7.292,29.008,10.419
			c3.35,1.074,7.266,1.095,10.817,0.686c8.594-0.992,15.353-10.235,14.222-18.806c-1.081-8.188-9.792-13.029-16.86-10.011
			c1.595,1.549,3.782,3.021,5.042,5.063c1.56,2.53,0.493,6.084-1.679,8.054c-2.274,2.063-5.5,2.476-8.225,1.054
			c-2.772-1.448-4.316-4.49-3.805-7.627c0.514-3.146,2.411-5.323,5.087-6.855c7.774-4.451,16.72-3.484,23.058,2.449
			c6.738,6.308,8.501,15.36,4.572,23.476c-4.593,9.487-14.781,14.753-26.787,14.045c-8.88-0.523-17.065-3.578-25.285-6.563
			c-6.542-2.374-13.045-4.854-19.626-7.113c-1.176-0.403-2.814-0.333-3.956,0.167c-30.922,13.538-66.685,1.602-82.777-27.705
			c-20.007-36.434,0.857-82.503,41.524-91.686c36.468-8.234,71.672,14.589,77.862,51.095c3.854,22.731-3.451,42.052-20.356,57.728
			c-0.523,0.484-1.053,0.961-1.572,1.45C175.765,184.451,175.756,184.557,175.558,185.078z M105.194,181.204
			c3.681-5.913,8.627-8.813,14.641-9.427c4.128-0.422,8.395-0.325,12.516,0.203c9.885,1.265,19.246,4.605,28.45,8.266
			c2.938,1.168,4.537,0.558,6.523-1.703c20.043-22.822,20.472-61.954,0.815-85.142c-19.64-23.17-51.244-21.88-68.337,3.544
			c-15.819,23.53-16.043,48.309-2.6,73.148C99.286,173.944,102.333,177.274,105.194,181.204z M154.081,188.824
			c-3.785-1.563-7.381-3.042-10.974-4.529c-7.637-3.163-15.466-5.448-23.849-5.025c-4.137,0.208-8.201,0.777-11.813,3.283
			C119.413,194.628,140.574,197.498,154.081,188.824z"/>
		<path fill-rule="evenodd" clip-rule="evenodd" d="M135.668,211.474c28.219,0,56.439-0.065,84.657,0.094
			c3.094,0.018,6.427,0.814,9.215,2.153c4.361,2.095,4.775,6.811,1.261,10.21c-3.378,3.268-7.635,4.779-12.218,4.572
			c-9.801-0.442-19.586-1.251-29.38-1.873c-18.163-1.155-36.315-2.88-54.494-3.222c-12.98-0.244-25.999,1.338-38.995,2.189
			c-14.333,0.94-28.657,2.043-42.994,2.926c-4.208,0.259-8.126-1.053-11.513-3.632c-4.973-3.787-4.5-9.362,1.227-11.773
			c2.549-1.072,5.524-1.567,8.309-1.578C79.051,211.43,107.359,211.474,135.668,211.474z"/>
		<path fill-rule="evenodd" clip-rule="evenodd" d="M239.4,146.218c-8.431-19.514-2.513-36.967,10.217-53.101
			c4.703-5.96,10.132-11.214,16.793-16.239c-7.914,31.578-15.653,62.465-23.563,94.024c-3.68-9.709-10.85-13.823-20.099-14.705
			c-9.23-0.88-16.678,2.784-23.071,9.578c0.339-1.739,0.51-3.533,1.05-5.208c1.691-5.243,3.458-10.464,5.341-15.64
			c0.508-1.395,1.448-2.663,2.333-3.885c4.822-6.652,11.333-8.421,18.489-4.241C231.52,139.505,235.534,143.259,239.4,146.218z"/>
		<path fill-rule="evenodd" clip-rule="evenodd" d="M96.623,195.062c-9.909,3.269-19.259,6.721-28.834,9.355
			c-4.726,1.3-9.885,1.621-14.817,1.456c-11.575-0.389-20.864-7.884-23.419-18.2c-1.877-7.58,1.631-16.205,8.55-21.018
			c6.245-4.345,15.315-4.298,21.671,0.121c2.755,1.916,4.328,4.51,4.141,7.918c-0.199,3.61-3.008,6.411-6.496,6.687
			c-3.621,0.287-6.806-1.919-7.681-5.32c-0.878-3.417,0.8-6.934,4.054-8.444c0.557-0.258,1.16-0.413,1.799-0.636
			c-3.798-2.662-10.834-1.338-14.235,3.03c-1.458,1.875-2.611,4.374-2.894,6.711c-1.296,10.73,8.077,20.01,19.115,18.85
			c3.936-0.414,7.829-1.654,11.623-2.882c4.999-1.618,9.906-3.532,14.797-5.46c1.469-0.579,2.421-0.325,3.576,0.649
			C90.295,190.171,93.145,192.318,96.623,195.062z"/>
	</g>
</g>
<g id="Itemtracker" display="none">
	<g display="inline">
		<path fill-rule="evenodd" clip-rule="evenodd" fill="none" d="M36.705,95.073c-0.837,6.952-1.592,13.223-2.406,19.98
			c2.698-0.14,4.422-0.229,6.55-0.34c1.321-8.831,2.575-17.214,3.924-26.229c-8.16,0-15.178,0-22.823,0
			c-0.941,5.014-1.829,9.74-2.852,15.188c2.928-0.154,4.79-0.251,6.636-0.349c0.833-3.136,1.538-5.791,2.191-8.25
			C30.955,95.073,33.413,95.073,36.705,95.073z M67.5,102.763c0.418-4.751,0.814-9.245,1.257-14.272c-7.673,0-14.479,0-21.914,0
			c-0.899,6.342-1.734,12.228-2.646,18.664c2.561-0.148,3.973-0.23,5.666-0.329c0.82-4.129,1.582-7.964,2.423-12.2
			c2.996,0,5.684,0,8.696,0c0.135,2.747,0.261,5.312,0.399,8.137C63.397,102.763,65.121,102.763,67.5,102.763z M42.129,68.293
			c-0.907,4.176-1.771,8.15-2.633,12.123c-3.155,0-5.849,0-8.879,0c0-2.911,0-5.343,0-8.005c-2.19,0-4.031,0-6.429,0
			c-0.338,4.578-0.646,8.736-1,13.518c7.697,0,14.387,0,21.709,0c0.877-5.74,1.758-11.5,2.695-17.635
			C45.301,68.293,43.895,68.293,42.129,68.293z"/>
		<path fill-rule="evenodd" clip-rule="evenodd" d="M99.741,141.255c-16.46,0-28.75,0-43.896,0
			c-3.267,12.3-6.79,25.571-10.955,41.252c-9.231,0.486-18.542,0.974-33.181,1.743c5.115-27.244,9.553-50.872,14.26-75.942
			c38.225,0,73.313,0,114.114,0c-6.746,45.078-13.015,86.995-19.622,131.148c-10.64,0.551-19.263,0.998-32.751,1.699
			C91.78,207.368,95.554,176.016,99.741,141.255z"/>
		<path fill-rule="evenodd" clip-rule="evenodd" d="M253.716,179.702c-11.895,0-20.51,0-30.601,0
			c-0.693-14.126-1.323-26.948-1.997-40.684c-15.061,0-28.501,0-43.479,0c-4.207,21.179-8.015,40.354-12.114,61.001
			c-8.462,0.491-15.525,0.901-28.328,1.643c4.563-32.18,8.735-61.609,13.232-93.32c37.178,0,71.206,0,109.57,0
			C257.786,133.477,255.808,155.947,253.716,179.702z"/>
		<path fill-rule="evenodd" clip-rule="evenodd" d="M126.865,7.356c8.828,0,15.857,0,27.319,0
			c-4.685,30.671-9.087,59.473-13.474,88.174c-36.611,0-70.063,0-108.547,0c1.768-23.906,3.306-44.697,4.998-67.588
			c11.99,0,21.194,0,32.146,0c0,13.313,0,25.471,0,40.027c15.151,0,28.618,0,44.395,0C118.013,48.108,122.329,28.235,126.865,7.356z
			"/>
	</g>
</g>
<g id="i-GRasp" display="none">
	<g>
		<path display="inline" fill-rule="evenodd" clip-rule="evenodd" fill="none" d="M7.058,272.556
			c0-19.323,0.102-38.647-0.097-57.968c-0.035-3.356,0.571-4.137,4.062-4.132c93.783,0.125,187.566,0.1,281.349,0.1
			c103.444,0,206.889,0.016,310.333-0.073c3.313-0.002,4.486,0.314,4.475,4.215c-0.177,57.302-0.164,114.605-0.019,171.908
			c0.009,3.52-0.827,4.061-4.149,4.042c-28.317-0.161-56.636-0.093-84.954-0.093c0.066-1.696,0.131-3.393,0.197-5.09
			c0.177-0.277,0.475-0.537,0.514-0.832c2.795-21.53,11.838-39.967,27.436-55.094c11.888-11.528,25.832-19.36,41.96-23.456
			c4.612-1.171,9.405-1.263,14.07-2.727c-14.492-0.869-27.354-5.51-39.571-13.132c-20.548-12.819-34.234-30.442-40.801-53.719
			c-1.146-4.065-2.805-7.985-4.559-12.903c-0.867,1.663-1.315,2.187-1.423,2.774c-4.503,24.574-16.134,44.626-36.644,59.447
			c-11.227,8.112-23.541,13.123-36.928,16.22c-5.916,1.368-11.916-0.325-17.688,1.472c-9.927,0.715-19.687,2.578-28.734,6.652
			c-34.586,15.577-52.675,42.596-54.829,80.388c-110,0-220-0.02-330,0.096c-3.424,0.004-4.148-0.664-4.103-4.097
			c0.226-16.997,0.103-33.998,0.103-50.998c0.27-0.053,0.497-0.18,0.683-0.382c0.933,0.503,2.299,0.804,2.341-0.464
			c0.169-5.209,0.157-10.434-0.103-15.637c-0.061-1.211-1.441-0.859-2.275-0.139c-0.152-0.234-0.368-0.36-0.646-0.379
			c0-6.334,0-12.667,0-19c0.261-0.116,0.49-0.277,0.688-0.482c0.638,1.189,1.406,2.372,2.723,2.756
			c5.174,1.51,10.479,0.654,15.72,0.563c1.729-0.03,0.467-1.887,0.797-2.849c5.231,4.179,11.523,2.131,17.326,2.948
			c2.235,0.314,1.846-1.373,1.853-2.597c0.028-5.311,0.068-10.624-0.081-15.931c-0.036-1.264,1.087-3.525-1.113-3.66
			c-2.094-0.128-3.729,1.517-3.9,3.778c-0.213,2.807-0.052,5.64-0.156,8.458c-0.112,3.039-1.432,5.139-4.773,5.166
			c-3.343,0.026-4.732-2.061-4.85-5.091c-0.129-3.315-0.02-6.639-0.095-9.956c-0.02-0.885,0.449-2.273-0.933-2.406
			c-0.86-0.082-1.9,0.469-2.675,1.003c-1.546,1.067-1.532,2.776-1.583,4.475c-0.14,4.669,0.101,9.301,1.05,13.884
			c-2.598-2.52-5.849-2.705-9.14-2.357c-3.03,0.321-4.017-0.725-3.915-3.838c0.231-7.088,0.113-14.189,0.033-21.284
			c-0.013-1.165,0.812-2.862-0.933-3.411c-1.361-0.43-2.56,0.565-3.488,1.467c-0.798,0.775-1.307,1.85-1.943,2.791
			C7.543,272.729,7.338,272.587,7.058,272.556z M72.262,256.784c-0.92,0.083-2.576,0.818-1.042,1.302
			c4.796,1.511,7.203,5.112,9.392,9.345c2.46-3.993,4.643-7.538,9.133-9.116c1.943-0.683,0.668-1.581-0.769-1.633
			c-4.673-1.223-6.137-5.457-8.31-9.256C79.026,251.872,76.831,255.419,72.262,256.784z M119.07,298.558
			c0.236-5.328-1.236-9.073-7.567-9.231c-1.483-0.037-4.111-1.226-3.752-3.042c0.513-2.596,3.088-1.723,5.01-1.389
			c0.481,0.084,0.949,0.314,1.394,0.535c1.586,0.786,2.571,0.711,3.402-1.25c1.054-2.488-0.544-2.867-2.115-3.447
			c-7.701-2.838-12.719,0.456-13.437,8.801c-2.228-5.264-4.925-9.961-11.726-9.694c-4.359-0.851-6.715-4.527-10.093-7.544
			c-1.831,4.241-4.894,6.59-9.024,7.537c-2.701-0.406-5.042,3.088-7.479,1.418c-4.451-3.053-9.093,0.908-13.552-0.996
			c-1.455-0.622-1.258,1.52-1.269,2.561c-0.058,5.664-0.015,11.329-0.075,16.993c-0.019,1.722,0.249,2.811,2.397,2.815
			c2.123,0.004,3.004-0.658,2.918-2.859c-0.13-3.327-0.09-6.664-0.023-9.995c0.057-2.825,1.279-5.108,4.334-5.007
			c2.827,0.094,3.742,2.373,3.735,4.988c-0.008,3.332,0.073,6.668-0.048,9.995c-0.08,2.19,0.814,2.884,2.936,2.876
			c2.088-0.008,2.519-1.021,2.484-2.785c-0.059-2.998-0.04-5.998-0.02-8.997c0.018-2.788,0.315-5.877,3.761-6.009
			c3.597-0.137,4.465,2.736,4.42,5.883c-0.045,3.166,0.011,6.332-0.038,9.497c-0.025,1.646,0.578,2.47,2.336,2.38
			c1.541-0.08,3.13,0.102,3.015-2.207c-0.054-1.098-0.009-2.199-0.009-4.997c3.823,6.677,8.82,7.652,14.409,7.175
			c2.259-0.193,4.304-1.401,4.261-3.443c-0.059-2.807-2.747-1.23-4.24-1.426c-3.196-0.418-7.069,0.931-8.804-4.193
			c3.563,0,6.708-0.291,9.773,0.078c3.422,0.412,5.162-0.773,5.54-4.125c2.534,2.015,5.216,3.672,8.492,4.287
			c1.404,0.264,3.469,0.809,3.08,2.569c-0.453,2.048-2.617,1.595-4.234,1.348c-1.298-0.198-2.544-0.817-3.84-0.924
			c-1.639-0.136-3.031,0.777-3.459,2.302c-0.516,1.838,1.353,2.036,2.453,2.492c5.588,2.317,10.576,1.473,14.757-3.084
			c1.345,4.438,5.259,3.912,8.551,4.203c5.167,0.456,8.217-2.396,9.521-7.525c4.149,6.391,6.656,7.664,13.395,7.49
			c2.787-0.072,5.628-0.879,5.402-3.759c-0.197-2.51-3.257-0.97-4.997-1.149c-3.135-0.326-6.711,0.55-7.942-4.203
			c4.13,0,7.948-0.057,11.762,0.023c1.996,0.041,3.063-0.461,3.067-2.766c0.009-4.5-3.009-9.041-7.196-10.381
			c-4.651-1.488-9.385,0.406-12.028,4.689c-1.548,2.509-1.676,5.283-1.762,8.865c-2.301-3.41-5.307-4.567-8.497-5.49
			c-1.314-0.38-3.567-0.582-3.087-2.453c0.507-1.973,2.67-1.486,4.311-1.223c0.646,0.104,1.295,0.334,1.886,0.621
			c1.764,0.859,2.921,0.902,3.71-1.41c0.887-2.598-0.913-2.796-2.401-3.314c-5.494-1.912-11.097-0.192-12.582,3.798
			c-1.585,4.26,0.468,6.706,7.694,9.241c1.35,0.475,3.45,0.697,3.049,2.592c-0.458,2.164-2.697,1.795-4.171,1.324
			C124.034,296.714,121.449,296.363,119.07,298.558z M62.972,335.198c-0.46-0.978-0.787-1.74-1.169-2.475
			c-1.801-3.457-4.914-6.897,0.624-10.047c0.84-0.479,1.166-2.391,1.198-3.652c0.073-2.895-1.135-5.426-4.057-6.176
			c-4.021-1.033-8.191-1.084-12.237,0.042c-0.346,0.097-0.31,1.849-0.316,2.833c-0.03,4.49-0.192,8.991,0.067,13.467
			c0.122,2.108-1.308,6.047,1.039,6.012c3.317-0.049,1.015-3.953,1.648-6.078c0.382-1.279-0.547-3.223,1.845-3.335
			c1.637-0.077,3.377-0.391,4.322,1.569c0.866,1.797,1.778,3.57,2.727,5.324C59.478,334.194,59.878,336.382,62.972,335.198z
			 M24.204,324.007c0.017,2.359,0.478,4.633,1.558,6.732c2.055,3.995,5.293,5.893,9.807,5.096c4.439-0.782,6.354-3.824,6.832-8.045
			c0.487-4.299-0.748-5.399-5.015-4.498c-0.664,0.141-1.396,0.164-1.568,0.93c-0.241,1.07,0.463,1.506,1.393,1.537
			c3.897,0.133,2.71,2.561,1.89,4.5c-1.708,4.037-6.831,4.484-9.812,0.963c-3.007-3.551-3.083-10.936-0.087-14.471
			c2.257-2.664,4.992-3.051,8.03-1.418c1.07,0.576,2.247,2.419,3.295,0.784c1.172-1.827-1.079-2.509-2.19-3.144
			C31.564,309.105,24.224,314.88,24.204,324.007z M102.474,334.847c4.881,1.657,7.137,1.352,9.159-1.161
			c2.428-3.019,2.745-10.034,0.498-13.251c-2.176-3.115-5.026-3.485-8.282-1.764c-0.537,0.283-0.977,0.757-1.733,0.277
			c-3.082-1.957-2.749,0.396-2.753,2.25c-0.01,4.647-0.176,9.305,0.07,13.938c0.113,2.136-1.175,6.126,0.82,6.1
			C103.697,341.19,101.206,337.137,102.474,334.847z M79.916,328.226c-0.132-9.188-2.77-12.094-9.429-10.158
			c-0.971,0.281-2.8,0.127-2.417,1.812c0.424,1.862,1.888,0.606,2.859,0.398c1.495-0.32,2.945-0.614,4.367,0.175
			c1.518,0.842,2.015,2.239,1.664,3.815c-0.46,2.069-1.857,0.538-2.771,0.491c-4.893-0.248-7.956,1.623-8.167,5.27
			c-0.192,3.308,1.333,5.359,4.705,5.941c3.001,0.52,5.688-2.117,8.75-0.82C79.623,332.842,79.77,330.534,79.916,328.226z
			 M89.204,336.099c2.861-0.311,5.285-0.918,5.984-3.887c0.683-2.898-0.738-4.749-3.281-5.935c-1.05-0.489-2.092-1.001-3.109-1.554
			c-1.313-0.713-2.901-1.461-2.099-3.318c0.719-1.666,2.361-1.586,3.881-1.229c0.802,0.189,1.554,0.58,2.352,0.791
			c0.764,0.201,1.336-0.244,1.448-0.933c0.06-0.37-0.277-1.026-0.617-1.204c-2.117-1.104-4.347-1.647-6.695-0.762
			c-1.825,0.689-3.113,1.835-3.232,3.965c-0.144,2.574,1.39,3.904,3.456,4.92c1.479,0.729,2.972,1.457,4.357,2.342
			c0.857,0.549,1.386,1.493,1.016,2.58c-0.341,1.004-1.118,1.736-2.193,1.72c-1.301-0.02-2.625-0.181-3.888-0.492
			c-1.026-0.253-2.272-1.556-2.778,0.261c-0.416,1.493,1.29,1.7,2.269,2.078C87.137,335.853,88.328,335.929,89.204,336.099z"/>
		<path display="inline" fill-rule="evenodd" clip-rule="evenodd" fill="#FDE377" d="M7.058,272.556
			c0.281,0.031,0.485,0.174,0.615,0.42c0.025,8.696,0.049,17.396,0.073,26.098c-0.198,0.205-0.427,0.366-0.688,0.482
			C7.058,290.556,7.058,281.556,7.058,272.556z"/>
		<path display="inline" fill-rule="evenodd" clip-rule="evenodd" fill="#FDE377" d="M7.058,318.556
			c0.278,0.019,0.493,0.145,0.647,0.373c0.013,5.412,0.024,10.828,0.036,16.245c-0.186,0.202-0.414,0.329-0.683,0.382
			C7.058,329.889,7.058,324.222,7.058,318.556z"/>
		<path display="inline" fill-rule="evenodd" clip-rule="evenodd" fill="#911A52" d="M101.924,289.449
			c-0.374,3.354-2.114,4.54-5.536,4.128c-3.065-0.369-6.21-0.078-9.773-0.078c1.735,5.124,5.608,3.775,8.804,4.193
			c1.493,0.195,4.181-1.381,4.24,1.426c0.043,2.042-2.002,3.25-4.261,3.443c-5.589,0.478-10.586-0.498-14.409-7.175
			c0,2.798-0.045,3.899,0.009,4.997c0.115,2.309-1.475,2.127-3.015,2.207c-1.758,0.09-2.362-0.734-2.336-2.38
			c0.049-3.165-0.007-6.331,0.038-9.497c0.044-3.146-0.823-6.02-4.42-5.883c-3.446,0.132-3.743,3.221-3.761,6.009
			c-0.02,2.999-0.039,5.999,0.02,8.997c0.035,1.764-0.396,2.777-2.484,2.785c-2.122,0.008-3.016-0.686-2.936-2.876
			c0.122-3.327,0.04-6.663,0.048-9.995c0.007-2.615-0.908-4.895-3.735-4.988c-3.055-0.102-4.277,2.182-4.334,5.007
			c-0.067,3.331-0.107,6.668,0.023,9.995c0.085,2.201-0.796,2.863-2.918,2.859c-2.149-0.005-2.416-1.094-2.397-2.815
			c0.06-5.664,0.017-11.329,0.075-16.993c0.011-1.041-0.186-3.183,1.269-2.561c4.459,1.904,9.102-2.057,13.552,0.996
			c2.437,1.67,4.778-1.824,7.476-1.418c4.661,0.348,7.489,3.206,9.721,7.998c1.907-4.875,5.05-7.249,9.399-7.991
			c6.801-0.267,9.498,4.431,11.726,9.694L101.924,289.449z M95.479,288.245c-0.658-2.541-2.317-3.746-4.723-3.553
			c-2.252,0.182-3.717,1.5-4.482,4.35C89.702,288.614,92.627,289.685,95.479,288.245z"/>
		<path display="inline" fill-rule="evenodd" clip-rule="evenodd" fill="#911A52" d="M119.073,298.556
			c2.375-2.192,4.961-1.842,7.787-0.939c1.474,0.471,3.713,0.84,4.171-1.324c0.401-1.895-1.699-2.117-3.049-2.592
			c-7.226-2.535-9.28-4.981-7.694-9.241c1.485-3.99,7.088-5.71,12.582-3.798c1.488,0.519,3.288,0.717,2.401,3.314
			c-0.789,2.313-1.946,2.27-3.71,1.41c-0.591-0.287-1.24-0.517-1.886-0.621c-1.641-0.264-3.804-0.75-4.311,1.223
			c-0.48,1.871,1.773,2.073,3.087,2.453c3.19,0.923,6.196,2.08,8.497,5.49c0.086-3.582,0.214-6.356,1.762-8.865
			c2.644-4.283,7.377-6.178,12.028-4.689c4.187,1.34,7.206,5.881,7.196,10.381c-0.005,2.305-1.071,2.807-3.067,2.766
			c-3.814-0.08-7.632-0.023-11.762-0.023c1.231,4.753,4.807,3.877,7.942,4.203c1.74,0.18,4.8-1.36,4.997,1.149
			c0.226,2.88-2.615,3.687-5.402,3.759c-6.739,0.174-9.246-1.1-13.395-7.49c-1.304,5.13-4.354,7.981-9.521,7.525
			c-3.292-0.291-7.206,0.234-8.552-4.201C119.172,298.446,119.073,298.556,119.073,298.556z M142.739,288.923
			c2.107,0,3.714,0.158,5.273-0.049c1.299-0.172,3.623,0.986,3.702-0.902c0.086-2.087-2.042-3.275-4.194-3.255
			C145.389,284.736,143.854,285.899,142.739,288.923z"/>
		<path display="inline" fill-rule="evenodd" clip-rule="evenodd" fill="#911A52" d="M7.746,299.073
			c-0.024-8.701-0.048-17.401-0.073-26.098c0.636-0.936,1.145-2.01,1.942-2.785c0.928-0.901,2.127-1.896,3.488-1.467
			c1.744,0.549,0.919,2.246,0.933,3.411c0.08,7.095,0.198,14.196-0.033,21.284c-0.102,3.113,0.885,4.159,3.915,3.838
			c3.292-0.348,6.542-0.162,9.14,2.357l-0.071-0.07c-0.33,0.961,0.932,2.817-0.797,2.848c-5.241,0.092-10.546,0.947-15.72-0.563
			C9.152,301.445,8.383,300.263,7.746,299.073z"/>
		<path display="inline" fill-rule="evenodd" clip-rule="evenodd" fill="#911A52" d="M27.057,299.614
			c-0.95-4.583-1.19-9.215-1.05-13.884c0.051-1.698,0.037-3.407,1.583-4.475c0.775-0.534,1.815-1.085,2.675-1.003
			c1.382,0.133,0.913,1.521,0.933,2.406c0.075,3.317-0.034,6.641,0.095,9.956c0.118,3.03,1.507,5.117,4.85,5.091
			c3.342-0.027,4.661-2.127,4.773-5.166c0.104-2.818-0.057-5.651,0.156-8.458c0.171-2.262,1.806-3.906,3.9-3.778
			c2.2,0.135,1.077,2.396,1.113,3.66c0.149,5.307,0.109,10.62,0.081,15.931c-0.007,1.224,0.382,2.911-1.853,2.597
			c-5.803-0.817-12.095,1.23-17.326-2.948C26.986,299.544,27.057,299.614,27.057,299.614z"/>
		<path display="inline" fill-rule="evenodd" clip-rule="evenodd" fill="#911A52" d="M102.007,289.534
			c0.718-8.345,5.736-11.639,13.437-8.801c1.571,0.58,3.169,0.959,2.115,3.447c-0.831,1.961-1.816,2.036-3.402,1.25
			c-0.445-0.221-0.913-0.451-1.394-0.535c-1.922-0.334-4.498-1.207-5.01,1.389c-0.359,1.816,2.269,3.005,3.752,3.042
			c6.331,0.158,7.803,3.903,7.568,9.23c0.001-0.001,0.1-0.11,0.102-0.112c-4.18,4.555-9.167,5.399-14.755,3.082
			c-1.1-0.456-2.969-0.654-2.453-2.492c0.428-1.524,1.82-2.438,3.459-2.302c1.296,0.106,2.542,0.726,3.84,0.924
			c1.618,0.247,3.782,0.7,4.234-1.348c0.389-1.761-1.676-2.306-3.08-2.569c-3.276-0.615-5.958-2.272-8.494-4.289
			C101.924,289.449,102.007,289.534,102.007,289.534z"/>
		<path display="inline" fill-rule="evenodd" clip-rule="evenodd" fill="#911A52" d="M62.972,335.198
			c-3.093,1.184-3.494-1.004-4.312-2.516c-0.948-1.754-1.861-3.527-2.727-5.324c-0.945-1.96-2.685-1.646-4.322-1.569
			c-2.392,0.112-1.463,2.056-1.845,3.335c-0.633,2.125,1.669,6.029-1.648,6.078c-2.347,0.035-0.917-3.903-1.039-6.012
			c-0.259-4.476-0.097-8.977-0.067-13.467c0.007-0.984-0.03-2.736,0.316-2.833c4.045-1.126,8.216-1.075,12.237-0.042
			c2.922,0.75,4.13,3.281,4.057,6.176c-0.032,1.262-0.358,3.174-1.198,3.652c-5.537,3.149-2.425,6.59-0.624,10.047
			C62.185,333.458,62.512,334.221,62.972,335.198z M53.739,323.384c3.618-0.066,7.032-0.046,7.11-4.248
			c0.086-4.588-3.533-4.222-6.767-4.522c-3.635-0.337-4.397,1.129-4.406,4.498C49.666,322.661,50.717,324.116,53.739,323.384z"/>
		<path display="inline" fill-rule="evenodd" clip-rule="evenodd" fill="#911A52" d="M24.211,324.005
			c0.013-9.125,7.354-14.899,14.126-11.031c1.111,0.635,3.362,1.316,2.19,3.144c-1.048,1.635-2.225-0.208-3.295-0.784
			c-3.038-1.633-5.773-1.246-8.03,1.418c-2.996,3.535-2.919,10.92,0.087,14.471c2.981,3.521,8.104,3.074,9.812-0.963
			c0.82-1.939,2.007-4.367-1.89-4.5c-0.929-0.031-1.633-0.467-1.393-1.537c0.172-0.766,0.904-0.789,1.568-0.93
			c4.267-0.901,5.501,0.199,5.015,4.498c-0.478,4.221-2.393,7.263-6.832,8.045c-4.514,0.797-7.752-1.101-9.807-5.096
			C24.682,328.64,24.221,326.366,24.211,324.005z"/>
		<path display="inline" fill-rule="evenodd" clip-rule="evenodd" fill="#911A52" d="M102.474,334.847
			c-1.268,2.29,1.223,6.344-2.221,6.39c-1.996,0.026-0.707-3.964-0.82-6.1c-0.246-4.634-0.081-9.291-0.07-13.938
			c0.004-1.854-0.329-4.207,2.753-2.25c0.756,0.479,1.196,0.006,1.733-0.277c3.256-1.722,6.106-1.352,8.282,1.764
			c2.247,3.217,1.93,10.232-0.498,13.251C109.611,336.198,107.355,336.504,102.474,334.847z M102.148,326.824
			c-0.419,3.536-0.043,6.82,4.388,6.772c4.525-0.049,4.4-3.803,4.46-6.957c0.061-3.145-0.458-6.517-4.467-6.507
			C102.272,320.143,101.615,323.341,102.148,326.824z"/>
		<path display="inline" fill-rule="evenodd" clip-rule="evenodd" fill="#911A52" d="M79.916,328.226
			c-0.146,2.309-0.293,4.616-0.439,6.924c-3.062-1.297-5.749,1.34-8.75,0.82c-3.372-0.582-4.897-2.634-4.705-5.941
			c0.211-3.646,3.274-5.518,8.167-5.27c0.914,0.047,2.31,1.578,2.771-0.491c0.351-1.576-0.146-2.974-1.664-3.815
			c-1.421-0.789-2.872-0.495-4.367-0.175c-0.971,0.208-2.435,1.464-2.859-0.398c-0.383-1.685,1.446-1.53,2.417-1.812
			C77.146,316.132,79.784,319.038,79.916,328.226z M72.781,326.726c-2.316,0.339-4.271,1.08-4.096,3.947
			c0.136,2.236,1.529,3.313,3.679,3.104c2.441-0.235,4.637-0.976,4.69-4.063C77.107,326.608,74.6,327.226,72.781,326.726z"/>
		<path display="inline" fill-rule="evenodd" clip-rule="evenodd" fill="#911A52" d="M89.204,336.099
			c-0.875-0.17-2.067-0.246-3.13-0.656c-0.979-0.378-2.684-0.585-2.269-2.078c0.505-1.816,1.751-0.514,2.778-0.261
			c1.263,0.312,2.587,0.473,3.888,0.492c1.075,0.017,1.852-0.716,2.193-1.72c0.37-1.087-0.159-2.031-1.016-2.58
			c-1.386-0.885-2.878-1.613-4.357-2.342c-2.066-1.016-3.6-2.346-3.456-4.92c0.119-2.13,1.408-3.275,3.232-3.965
			c2.348-0.886,4.578-0.343,6.695,0.762c0.34,0.178,0.677,0.834,0.617,1.204c-0.112,0.688-0.684,1.134-1.448,0.933
			c-0.798-0.211-1.55-0.602-2.352-0.791c-1.521-0.357-3.162-0.438-3.881,1.229c-0.802,1.857,0.786,2.605,2.099,3.318
			c1.018,0.553,2.06,1.064,3.109,1.554c2.543,1.186,3.964,3.036,3.281,5.935C94.488,335.181,92.065,335.788,89.204,336.099z"/>
		<path display="inline" fill-rule="evenodd" clip-rule="evenodd" fill="#FDE377" d="M90.281,279.84
			c-4.349,0.742-7.492,3.116-9.399,7.991c-2.232-4.792-5.061-7.65-9.721-7.998c4.133-0.947,7.196-3.296,9.027-7.537
			C83.566,275.313,85.922,278.989,90.281,279.84z"/>
		<path display="inline" fill-rule="evenodd" clip-rule="evenodd" fill="#FDE377" d="M88.976,256.682
			c1.437,0.052,2.712,0.95,0.769,1.633c-4.49,1.578-6.672,5.123-9.133,9.116c-2.189-4.232-4.596-7.834-9.392-9.345
			c-1.534-0.483,0.122-1.219,1.042-1.303C77.843,258.178,83.415,258.36,88.976,256.682z"/>
		<path display="inline" fill-rule="evenodd" clip-rule="evenodd" fill="#911A52" d="M88.976,256.682
			c-5.561,1.679-11.133,1.496-16.713,0.102c4.568-1.364,6.764-4.911,8.403-9.357C82.839,251.225,84.303,255.459,88.976,256.682z"/>
		<path display="inline" fill-rule="evenodd" clip-rule="evenodd" fill="#911A52" d="M7.741,335.174
			c-0.011-5.417-0.022-10.833-0.036-16.245c0.833-0.715,2.213-1.066,2.273,0.145c0.26,5.203,0.272,10.428,0.103,15.637
			C10.04,335.978,8.673,335.677,7.741,335.174z"/>
		<path display="inline" fill-rule="evenodd" clip-rule="evenodd" fill="none" d="M95.479,288.245
			c-2.852,1.439-5.777,0.369-9.205,0.797c0.766-2.85,2.23-4.168,4.482-4.35C93.162,284.499,94.821,285.704,95.479,288.245z"/>
		<path display="inline" fill-rule="evenodd" clip-rule="evenodd" fill="none" d="M142.739,288.923
			c1.115-3.023,2.65-4.187,4.781-4.206c2.152-0.021,4.28,1.168,4.194,3.255c-0.079,1.889-2.403,0.73-3.702,0.902
			C146.453,289.081,144.846,288.923,142.739,288.923z"/>
		<path display="inline" fill-rule="evenodd" clip-rule="evenodd" fill="none" d="M53.739,323.384
			c-3.022,0.732-4.073-0.723-4.063-4.272c0.009-3.369,0.771-4.835,4.406-4.498c3.234,0.301,6.854-0.065,6.767,4.522
			C60.771,323.338,57.356,323.317,53.739,323.384z"/>
		<path display="inline" fill-rule="evenodd" clip-rule="evenodd" fill="none" d="M102.148,326.824
			c-0.534-3.483,0.124-6.682,4.381-6.691c4.01-0.01,4.528,3.362,4.467,6.507c-0.061,3.154,0.065,6.908-4.46,6.957
			C102.105,333.645,101.729,330.36,102.148,326.824z"/>
		<path display="inline" fill-rule="evenodd" clip-rule="evenodd" fill="none" d="M72.781,326.726
			c1.818,0.5,4.326-0.117,4.273,2.988c-0.053,3.088-2.249,3.828-4.69,4.063c-2.15,0.208-3.543-0.868-3.679-3.104
			C68.511,327.806,70.465,327.064,72.781,326.726z"/>
	</g>
	<g display="inline">
		<g>
			<g>
				<path fill-rule="evenodd" clip-rule="evenodd" d="M179.314,200.658c-0.065,1.696-0.131,3.393-0.196,5.09c-59,0-118,0-177,0
					c2.154-37.792,20.243-64.811,54.829-80.388c9.048-4.075,18.807-5.938,28.727-6.652c1.484,0.072,2.976,0.188,4.468,0.208
					c36.688,0.512,63.112,17.551,80.148,49.734C175.595,178.676,177.469,189.661,179.314,200.658z"/>
			</g>
			<g>
				<path fill="none" stroke="#FFFFFF" stroke-miterlimit="10" d="M179.314,200.658c-0.065,1.696-0.131,3.393-0.196,5.09
					c-59,0-118,0-177,0c2.154-37.792,20.243-64.811,54.829-80.388c9.048-4.075,18.807-5.938,28.727-6.652
					c1.484,0.072,2.976,0.188,4.468,0.208c36.688,0.512,63.112,17.551,80.148,49.734
					C175.595,178.676,177.469,189.661,179.314,200.658z"/>
			</g>
		</g>
		<path fill-rule="evenodd" clip-rule="evenodd" d="M180.314,199.658c-1.845-10.997-3.719-21.982-9.025-32.007
			c-17.036-32.183-43.46-49.223-80.148-49.734c-1.492-0.021-2.983-0.137-4.468-0.208c5.779-1.797,11.78-0.104,17.695-1.472
			c13.388-3.097,25.701-8.107,36.928-16.22c20.51-14.82,32.142-34.873,36.644-59.447c0.107-0.587,0.555-1.111,1.422-2.774
			c1.754,4.918,3.413,8.838,4.56,12.903c6.565,23.276,20.252,40.899,40.8,53.719c12.217,7.622,25.079,12.262,39.571,13.132
			c-4.665,1.463-9.458,1.555-14.07,2.727c-16.127,4.095-30.072,11.927-41.959,23.456c-15.598,15.127-24.641,33.563-27.436,55.093
			C180.79,199.12,180.491,199.381,180.314,199.658z"/>
	</g>
</g>
<g id="labarchives" display="none">
	<g display="inline">
		<g>
			<path fill-rule="evenodd" clip-rule="evenodd" fill="none" d="M251.423,244.375c-79.961,0-160,0-240.064,0
				c0-81.129,0-162.259,0-243.466c79.961,0,159.948,0,240.064,0C251.423,82.012,251.423,163.193,251.423,244.375z M95.544,33.98
				c4.863,0,9.406-0.004,13.949,0.001c3.529,0.003,6.297,1.972,6.457,5.148c0.39,7.715,0.52,15.525-0.251,23.196
				c-1.031,10.248-6.412,18.848-11.856,27.401c-12.008,18.864-23.717,37.917-35.532,56.903
				c-8.435,13.554-16.98,27.042-25.207,40.722c-4.411,7.334-5.736,15.646-3.554,23.815c3.263,12.213,11.916,16.995,24.162,17.105
				c44.876,0.404,89.758,0.274,134.637,0.098c6.834-0.027,13.563-1.621,18.852-6.67c8.242-7.869,9.319-20.478,3.723-31.203
				c-7.042-13.493-15.347-26.335-23.265-39.361c-8.563-14.087-17.057-28.229-26.084-42.017c-4.46-6.813-10.725-11.768-19.602-11.753
				c-9.948,0.016-16.51,5.654-21.639,13.375c-13.213,19.891-26.468,39.759-39.37,59.852c-3.239,5.044-5.363,10.86-2.637,17.146
				c3.354,7.733,10.196,9.756,17.518,9.842c23.13,0.274,46.264,0.12,69.396,0.116c1.197,0,2.393-0.154,3.59-0.236
				c0-7.153,0-13.996,0-21.123c-1.792,0-3.295,0-4.798,0c-16.622,0.004-33.244,0.02-49.867,0.009c-6.09-0.004-7.97-2.83-4.818-7.806
				c9.129-14.414,18.38-28.752,27.77-42.997c3.117-4.729,6.96-4.549,9.95,0.338c5.906,9.656,11.605,19.439,17.368,29.182
				c7.563,12.786,15.219,25.521,22.55,38.439c1.292,2.275,1.914,5.441,1.56,8.02c-0.526,3.83-5.57,6.362-11.508,6.37
				c-37.123,0.048-74.246,0.086-111.368-0.042c-2.897-0.01-6.055-0.794-8.626-2.12c-4.423-2.28-4.565-7.849-1.015-13.391
				c6.403-9.996,12.735-20.037,19.048-30.09c14.28-22.74,28.46-45.542,42.822-68.229c6.221-9.826,9.876-20.27,9.708-32.025
				c-0.17-11.91,0.217-23.833-0.191-35.731c-0.102-2.956-1.865-6.179-3.691-8.674c-2.565-3.505-6.804-4.457-10.962-4.526
				c-9.324-0.156-18.653-0.049-28.442-0.049C94.723,19.927,95.115,26.636,95.544,33.98z"/>
			<path fill-rule="evenodd" clip-rule="evenodd" d="M95.544,33.98c-0.429-7.345-0.821-14.054-1.224-20.966
				c9.79,0,19.119-0.107,28.442,0.049c4.158,0.069,8.396,1.021,10.962,4.526c1.826,2.495,3.589,5.718,3.691,8.674
				c0.408,11.898,0.021,23.821,0.191,35.731c0.167,11.756-3.488,22.2-9.708,32.025c-14.362,22.687-28.542,45.489-42.822,68.229
				c-6.313,10.053-12.645,20.094-19.048,30.09c-3.55,5.542-3.408,11.111,1.015,13.391c2.572,1.326,5.729,2.11,8.626,2.12
				c37.122,0.127,74.245,0.089,111.368,0.042c5.938-0.007,10.982-2.54,11.508-6.37c0.354-2.578-0.269-5.744-1.56-8.02
				c-7.332-12.918-14.987-25.653-22.55-38.439c-5.763-9.743-11.462-19.526-17.368-29.182c-2.989-4.887-6.833-5.066-9.95-0.338
				c-9.39,14.245-18.641,28.583-27.77,42.997c-3.151,4.976-1.272,7.802,4.818,7.806c16.623,0.01,33.245-0.005,49.867-0.009
				c1.502,0,3.005,0,4.798,0c0,7.127,0,13.97,0,21.123c-1.197,0.083-2.393,0.236-3.59,0.236
				c-23.132,0.004-46.267,0.158-69.396-0.116c-7.321-0.086-14.163-2.109-17.518-9.842c-2.726-6.285-0.602-12.101,2.637-17.146
				c12.901-20.093,26.156-39.96,39.37-59.852c5.129-7.721,11.691-13.359,21.639-13.375c8.877-0.015,15.141,4.94,19.602,11.753
				c9.027,13.789,17.521,27.93,26.084,42.017c7.918,13.026,16.223,25.868,23.265,39.361c5.597,10.726,4.52,23.334-3.723,31.203
				c-5.289,5.049-12.018,6.644-18.852,6.67c-44.878,0.177-89.761,0.306-134.637-0.098c-12.246-0.11-20.899-4.892-24.162-17.105
				c-2.182-8.169-0.857-16.481,3.554-23.815c8.227-13.68,16.772-27.168,25.207-40.722c11.815-18.986,23.524-38.04,35.532-56.903
				c5.444-8.553,10.826-17.154,11.856-27.401c0.771-7.671,0.641-15.481,0.251-23.196c-0.16-3.176-2.928-5.145-6.457-5.148
				C104.95,33.977,100.407,33.98,95.544,33.98z"/>
		</g>
	</g>
</g>
<g id="BoB">
	<g>
		<g>
			<g>
				<path fill-rule="evenodd" clip-rule="evenodd" d="M133.195,1.892c0.418,0,0.836,0,1.254,0c2.707,0.163,5.414,0.311,8.119,0.49
					c18.314,1.217,35.39,6.568,51.392,15.461c8.591,4.774,16.292,10.793,23.502,17.41c10.007,9.184,17.928,20.074,24.202,32.03
					c8.791,16.752,13.571,34.617,13.141,53.696c-0.092,4.093,0.27,8.22-0.122,12.278c-1.626,16.815-6.214,32.72-14.818,47.403
					c-6.548,11.174-14.166,21.42-23.901,30.058c-7.878,6.991-16.28,13.153-25.653,18.027c-11.898,6.188-24.432,10.324-37.661,12.413
					c-2.137,0.338-4.275,0.664-6.414,0.996c-8.193,0-16.385,0-24.578,0c-0.272-0.086-0.54-0.224-0.817-0.249
					c-8.652-0.813-17.06-2.797-25.322-5.407c-8.724-2.757-16.898-6.767-24.784-11.353c-8.572-4.985-16.166-11.286-23.262-18.15
					c-10.139-9.807-17.868-21.419-24.016-34.023c-6.442-13.206-9.921-27.282-10.92-41.954c-0.175-2.58-0.319-5.161-0.477-7.742
					c0-0.418,0-0.836,0-1.254c0.063-0.703,0.162-1.405,0.185-2.109c0.567-17.676,4.301-34.542,12.473-50.359
					c6.376-12.342,14.09-23.635,24.277-33.186c7.404-6.941,15.25-13.232,24.156-18.181c7.839-4.355,15.921-8.083,24.524-10.679
					c9.036-2.728,18.226-4.552,27.652-5.137C127.95,2.209,130.573,2.051,133.195,1.892z M133.862,20.596
					c-4.699,0.373-9.419,0.575-14.093,1.155c-8.638,1.072-16.944,3.514-25.016,6.725c-8.462,3.367-16.181,8.085-23.463,13.49
					c-9.488,7.041-17.246,15.8-23.741,25.58c-8.911,13.416-14.05,28.276-15.747,44.319c-0.982,9.278-0.792,18.525,0.864,27.694
					c2.568,14.226,7.655,27.431,16.092,39.305c7,9.854,15.023,18.621,24.986,25.57c7.352,5.128,15.06,9.516,23.476,12.673
					c14.848,5.572,30.124,7.71,45.936,6.321c9.115-0.801,17.898-2.925,26.475-5.993c8.534-3.052,16.359-7.504,23.777-12.639
					c9.64-6.673,17.673-15.066,24.438-24.56c10.606-14.885,16.556-31.558,18.003-49.815c0.741-9.341,0.27-18.618-1.644-27.778
					c-3.097-14.829-8.88-28.462-18.231-40.523c-6.959-8.977-14.766-16.992-24.263-23.323c-7.563-5.042-15.484-9.297-24.1-12.272
					C156.672,22.748,145.45,20.774,133.862,20.596z"/>
				<path fill-rule="evenodd" clip-rule="evenodd" fill="none" d="M146.237,242.154c2.138-0.332,4.277-0.658,6.414-0.996
					c13.229-2.089,25.762-6.226,37.661-12.413c9.373-4.874,17.774-11.036,25.653-18.027c9.735-8.638,17.353-18.884,23.901-30.058
					c8.604-14.683,13.192-30.587,14.818-47.403c0.392-4.058,0.03-8.185,0.122-12.278c0.43-19.08-4.351-36.944-13.141-53.696
					c-6.274-11.956-14.195-22.847-24.202-32.03c-7.21-6.617-14.911-12.635-23.502-17.41C177.958,8.95,160.882,3.599,142.568,2.382
					c-2.705-0.18-5.412-0.328-8.119-0.49c40.211,0,80.422,0,120.633,0c0,80.087,0,160.175,0,240.263
					C218.8,242.154,182.519,242.154,146.237,242.154z"/>
				<path fill-rule="evenodd" clip-rule="evenodd" fill="none" d="M133.195,1.892c-2.623,0.16-5.245,0.317-7.868,0.48
					c-9.427,0.584-18.616,2.409-27.652,5.137c-8.603,2.597-16.685,6.324-24.524,10.679c-8.905,4.948-16.752,11.239-24.156,18.181
					c-10.187,9.55-17.9,20.844-24.277,33.186c-8.172,15.818-11.906,32.684-12.473,50.359c-0.023,0.705-0.122,1.406-0.185,2.109
					c0-40.023,0-80.046,0-120.131C52.439,1.892,92.817,1.892,133.195,1.892z"/>
				<path fill-rule="evenodd" clip-rule="evenodd" fill="none" d="M12.061,123.277c0.158,2.581,0.302,5.162,0.477,7.742
					c0.999,14.672,4.478,28.748,10.92,41.954c6.147,12.604,13.877,24.216,24.016,34.023c7.097,6.864,14.69,13.165,23.262,18.15
					c7.886,4.586,16.06,8.596,24.784,11.353c8.262,2.61,16.669,4.595,25.322,5.407c0.278,0.025,0.545,0.163,0.817,0.249
					c-36.513,0-73.025,0-109.598,0C12.061,202.528,12.061,162.902,12.061,123.277z"/>
				<path fill-rule="evenodd" clip-rule="evenodd" fill="none" d="M133.862,20.596c11.588,0.178,22.81,2.152,33.75,5.929
					c8.616,2.975,16.537,7.23,24.1,12.272c9.497,6.332,17.303,14.347,24.263,23.323c9.351,12.062,15.134,25.694,18.231,40.523
					c1.913,9.16,2.384,18.437,1.644,27.778c-1.447,18.257-7.396,34.93-18.003,49.815c-6.765,9.494-14.798,17.887-24.438,24.56
					c-7.418,5.135-15.243,9.587-23.777,12.639c-8.577,3.067-17.36,5.192-26.475,5.993c-15.812,1.389-31.088-0.749-45.936-6.321
					c-8.417-3.158-16.125-7.545-23.476-12.673c-9.962-6.949-17.985-15.716-24.986-25.57c-8.437-11.875-13.523-25.08-16.092-39.305
					c-1.656-9.168-1.846-18.416-0.864-27.694c1.697-16.043,6.836-30.903,15.747-44.319c6.496-9.78,14.253-18.539,23.741-25.58
					c7.282-5.404,15.001-10.123,23.463-13.49c8.071-3.211,16.378-5.653,25.016-6.725C124.442,21.171,129.163,20.969,133.862,20.596z
					 M81.787,152.063c0.01,0.047,0.021,0.095,0.031,0.142c4.981-1.85,9.968-3.681,14.94-5.553
					c14.138-5.324,28.268-10.67,42.409-15.983c0.683-0.257,0.873-0.61,0.81-1.296c-0.118-1.288-0.113-2.587-0.252-3.873
					c-0.088-0.814,0.108-1.315,0.889-1.68c1.127-0.526,2.198-1.172,3.307-1.775c-3.315-23.579-6.621-47.091-9.927-70.604
					c-0.669,3.325-1.139,6.622-1.622,9.917c-0.881,6.017-1.773,12.033-2.655,18.05c-0.875,5.976-1.741,11.953-2.616,17.93
					c-0.965,6.594-1.921,13.189-2.929,19.777c-0.085,0.557-0.407,1.201-0.827,1.561c-1.263,1.08-2.653,2.008-3.951,3.049
					c-7.977,6.394-15.949,12.793-23.908,19.209C90.906,144.627,86.353,148.353,81.787,152.063z M57.108,117.829
					c-3.277,0-6.423,0-9.601,0c0,3.076,0,6.058,0,9.05c3.247,0,6.422,0,9.601,0C57.108,123.82,57.108,120.869,57.108,117.829z
					 M210.817,126.898c3.284,0,6.431,0,9.575,0c0-3.071,0-6.053,0-9.086c-3.226,0-6.369,0-9.575,0
					C210.817,120.87,210.817,123.85,210.817,126.898z M176.643,58.364c1.521-2.796,2.972-5.461,4.471-8.217
					c-2.615-1.465-5.18-2.902-7.792-4.366c-1.679,2.607-3.312,5.144-4.95,7.688C171.034,55.045,173.782,56.671,176.643,58.364z
					 M138.315,46.25c0-3.145,0-6.16,0-9.124c-2.987,0-5.876,0-8.738,0c0,3.096,0,6.08,0,9.124
					C132.516,46.25,135.378,46.25,138.315,46.25z M138.347,207.626c0-2.89,0-5.703,0-8.603c-3.121,0-6.178,0-9.3,0
					c0,2.897,0,5.71,0,8.603C132.165,207.626,135.226,207.626,138.347,207.626z M180.484,193.985
					c-1.479-2.604-2.906-5.119-4.371-7.7c-2.68,1.519-5.259,2.979-7.733,4.381c1.496,2.775,2.939,5.452,4.422,8.203
					C175.419,197.206,177.902,195.627,180.484,193.985z M64.873,156.382c-2.601,1.479-5.123,2.914-7.7,4.38
					c1.487,2.786,2.922,5.475,4.385,8.214c2.665-1.731,5.165-3.355,7.695-5C67.764,161.395,66.333,158.914,64.873,156.382z
					 M202.518,157.014c-1.509,2.56-2.959,5.021-4.476,7.593c2.65,1.483,5.202,2.912,7.808,4.371c1.668-2.627,3.25-5.116,4.89-7.699
					C207.979,159.847,205.296,158.455,202.518,157.014z M91.263,186.316c-1.489,2.563-2.958,5.093-4.457,7.673
					c2.676,1.461,5.223,2.852,7.793,4.255c1.58-2.545,3.105-5.003,4.693-7.562C96.535,189.183,93.952,187.778,91.263,186.316z
					 M91.264,58.337c2.698-1.47,5.309-2.892,8.041-4.38c-1.613-2.582-3.142-5.028-4.716-7.548c-2.613,1.452-5.106,2.837-7.675,4.265
					C88.409,53.309,89.822,55.798,91.264,58.337z M210.743,83.375c-1.498-2.637-2.931-5.157-4.377-7.704
					c-2.604,1.48-5.125,2.914-7.702,4.379c1.486,2.572,2.929,5.071,4.385,7.592C205.646,86.202,208.116,84.831,210.743,83.375z
					 M69.256,80.042c-2.63-1.486-5.163-2.918-7.719-4.362c-1.505,2.66-2.91,5.144-4.355,7.697c2.61,1.449,5.113,2.837,7.691,4.268
					C66.326,85.125,67.755,82.646,69.256,80.042z"/>
				<path fill-rule="evenodd" clip-rule="evenodd" d="M81.787,152.063c4.566-3.711,9.12-7.437,13.7-11.129
					c7.959-6.416,15.931-12.816,23.908-19.209c1.298-1.041,2.688-1.969,3.951-3.049c0.42-0.359,0.742-1.003,0.827-1.561
					c1.007-6.587,1.964-13.183,2.929-19.777c0.875-5.977,1.74-11.954,2.616-17.93c0.881-6.017,1.773-12.033,2.655-18.05
					c0.483-3.295,0.953-6.593,1.622-9.917c3.306,23.512,6.612,47.025,9.927,70.604c-1.108,0.603-2.179,1.249-3.307,1.775
					c-0.781,0.365-0.977,0.866-0.889,1.68c0.139,1.285,0.134,2.585,0.252,3.873c0.063,0.686-0.127,1.039-0.81,1.296
					c-14.142,5.313-28.271,10.66-42.409,15.983c-4.972,1.872-9.959,3.703-14.94,5.553C81.807,152.158,81.797,152.111,81.787,152.063
					z"/>
				<path fill-rule="evenodd" clip-rule="evenodd" d="M57.108,117.829c0,3.04,0,5.991,0,9.05c-3.179,0-6.354,0-9.601,0
					c0-2.993,0-5.974,0-9.05C50.685,117.829,53.831,117.829,57.108,117.829z"/>
				<path fill-rule="evenodd" clip-rule="evenodd" d="M210.817,126.898c0-3.048,0-6.028,0-9.086c3.207,0,6.35,0,9.575,0
					c0,3.033,0,6.015,0,9.086C217.248,126.898,214.101,126.898,210.817,126.898z"/>
				<path fill-rule="evenodd" clip-rule="evenodd" d="M176.643,58.364c-2.86-1.693-5.609-3.319-8.271-4.895
					c1.638-2.544,3.271-5.081,4.95-7.688c2.613,1.464,5.177,2.901,7.792,4.366C179.614,52.903,178.164,55.568,176.643,58.364z"/>
				<path fill-rule="evenodd" clip-rule="evenodd" d="M138.315,46.25c-2.938,0-5.799,0-8.738,0c0-3.043,0-6.027,0-9.124
					c2.862,0,5.751,0,8.738,0C138.315,40.091,138.315,43.105,138.315,46.25z"/>
				<path fill-rule="evenodd" clip-rule="evenodd" d="M138.347,207.626c-3.121,0-6.182,0-9.3,0c0-2.892,0-5.706,0-8.603
					c3.122,0,6.179,0,9.3,0C138.347,201.923,138.347,204.737,138.347,207.626z"/>
				<path fill-rule="evenodd" clip-rule="evenodd" d="M180.484,193.985c-2.583,1.642-5.065,3.22-7.683,4.884
					c-1.483-2.75-2.926-5.428-4.422-8.203c2.475-1.402,5.054-2.863,7.733-4.381C177.578,188.866,179.005,191.381,180.484,193.985z"
					/>
				<path fill-rule="evenodd" clip-rule="evenodd" d="M64.873,156.382c1.46,2.532,2.892,5.013,4.381,7.595
					c-2.531,1.645-5.03,3.269-7.695,5c-1.463-2.74-2.898-5.428-4.385-8.214C59.75,159.296,62.272,157.861,64.873,156.382z"/>
				<path fill-rule="evenodd" clip-rule="evenodd" d="M202.518,157.014c2.779,1.441,5.461,2.833,8.222,4.266
					c-1.64,2.583-3.221,5.072-4.89,7.699c-2.606-1.459-5.158-2.888-7.808-4.371C199.558,162.035,201.009,159.574,202.518,157.014z"
					/>
				<path fill-rule="evenodd" clip-rule="evenodd" d="M91.263,186.316c2.688,1.462,5.271,2.867,8.029,4.367
					c-1.588,2.559-3.113,5.016-4.693,7.562c-2.57-1.403-5.117-2.794-7.793-4.255C88.305,191.41,89.774,188.879,91.263,186.316z"/>
				<path fill-rule="evenodd" clip-rule="evenodd" d="M91.264,58.337c-1.442-2.539-2.855-5.028-4.351-7.663
					c2.569-1.427,5.062-2.813,7.675-4.265c1.575,2.52,3.104,4.966,4.716,7.548C96.573,55.445,93.962,56.867,91.264,58.337z"/>
				<path fill-rule="evenodd" clip-rule="evenodd" d="M210.743,83.375c-2.627,1.457-5.098,2.827-7.694,4.268
					c-1.456-2.521-2.899-5.02-4.385-7.592c2.577-1.465,5.098-2.898,7.702-4.379C207.813,78.217,209.245,80.738,210.743,83.375z"/>
				<path fill-rule="evenodd" clip-rule="evenodd" d="M69.256,80.042c-1.501,2.604-2.93,5.083-4.382,7.603
					c-2.579-1.431-5.081-2.819-7.691-4.268c1.445-2.553,2.85-5.037,4.355-7.697C64.094,77.124,66.626,78.556,69.256,80.042z"/>
			</g>
		</g>
	</g>
</g>
</svg>
