<?xml version="1.0" encoding="UTF-8" standalone="no"?>
<!DOCTYPE svg PUBLIC "-//W3C//DTD SVG 1.1//EN" "http://www.w3.org/Graphics/SVG/1.1/DTD/svg11.dtd">
<svg width="100%" height="100%" viewBox="0 0 267 244" version="1.1" xmlns="http://www.w3.org/2000/svg" xmlns:xlink="http://www.w3.org/1999/xlink" xml:space="preserve" style="fill-rule:evenodd;clip-rule:evenodd;stroke-miterlimit:1.41421;">
    <g transform="matrix(0.889777,0,0,0.889777,10.2335,17.871)">
        <g id="i-GRasp">
            <g>
                <g>
                    <path d="M179.314,200.658C179.249,202.354 179.183,204.051 179.118,205.748C120.118,205.748 61.118,205.748 2.118,205.748C4.272,167.956 22.361,140.937 56.947,125.36C65.995,121.285 75.754,119.422 85.674,118.708C87.158,118.78 88.65,118.896 90.142,118.916C126.83,119.428 153.254,136.467 170.29,168.65C175.595,178.676 177.469,189.661 179.314,200.658Z" style="fill:black;"/>
                    <path d="M179.314,200.658C179.249,202.354 179.183,204.051 179.118,205.748C120.118,205.748 61.118,205.748 2.118,205.748C4.272,167.956 22.361,140.937 56.947,125.36C65.995,121.285 75.754,119.422 85.674,118.708C87.158,118.78 88.65,118.896 90.142,118.916C126.83,119.428 153.254,136.467 170.29,168.65C175.595,178.676 177.469,189.661 179.314,200.658Z" style="fill:none;stroke-width:1px;stroke:white;"/>
                </g>
                <g transform="matrix(1,0,0,1,10,-10)">
                    <path d="M180.314,199.658C178.469,188.661 176.595,177.676 171.289,167.651C154.253,135.468 127.829,118.428 91.141,117.917C89.649,117.896 88.158,117.78 86.673,117.709C92.452,115.912 98.453,117.605 104.368,116.237C117.756,113.14 130.069,108.13 141.296,100.017C161.806,85.197 173.438,65.144 177.94,40.57C178.047,39.983 178.495,39.459 179.362,37.796C181.116,42.714 182.775,46.634 183.922,50.699C190.487,73.975 204.174,91.598 224.722,104.418C236.939,112.04 249.801,116.68 264.293,117.55C259.628,119.013 254.835,119.105 250.223,120.277C234.096,124.372 220.151,132.204 208.264,143.733C192.666,158.86 183.623,177.296 180.828,198.826C180.79,199.12 180.491,199.381 180.314,199.658Z" style="fill:black;"/>
                </g>
            </g>
        </g>
    </g>
</svg>
