<?xml version="1.0" encoding="utf-8"?>
<!-- Generator: Adobe Illustrator 16.0.0, SVG Export Plug-In . SVG Version: 6.00 Build 0)  -->
<!DOCTYPE svg PUBLIC "-//W3C//DTD SVG 1.1//EN" "http://www.w3.org/Graphics/SVG/1.1/DTD/svg11.dtd">
<svg version="1.1" id="Layer_1" xmlns="http://www.w3.org/2000/svg" xmlns:xlink="http://www.w3.org/1999/xlink" x="0px" y="0px"
	 width="172.784px" height="172.784px" viewBox="0 0 172.784 172.784" enable-background="new 0 0 172.784 172.784"
	 xml:space="preserve">
<g id="MyHR">
	<path fill-rule="evenodd" clip-rule="evenodd" fill="none" d="M-290.884,290.175c0-88.185,0-176.369,0-264.553
		c154.322,0,308.645,0,462.967,0c0,88.184,0,176.368,0,264.553C17.76,290.175-136.562,290.175-290.884,290.175z M-287.544,230.889
		c8.771,0,15.856,0,23.431,0c0.209-3.983,0.507-7.12,0.518-10.258c0.051-13.77-0.046-27.537,0.036-41.307
		c0.083-14.14,5.52-21.127,16.011-20.852c10.51,0.276,15.313,6.909,15.404,21.452c0.064,10.096,0.013,20.195,0.013,30.292
		c0,6.757,0,13.514,0,20.51c8.655,0,15.643,0,22.339,0c0.517-1.92,0.954-2.79,0.958-3.661c0.055-15.146,0.05-30.292,0.085-45.438
		c0.008-3.204-0.176-6.45,0.251-9.604c1.146-8.43,7.822-13.872,16.201-13.527c7.923,0.325,13.98,5.585,14.938,13.408
		c0.443,3.624,0.23,7.332,0.24,11.003c0.032,11.933-0.296,23.877,0.145,35.795c0.333,8.924,4.034,12.374,12.719,12.992
		c3.057,0.216,6.171-0.364,10.894-0.693c0-18.445,0-36.213,0-53.979c7.65,15.426,13.159,30.919,18.635,46.423
		c6.098,17.263,5.074,18.959-13.242,22.509c-0.714,0.139-1.265,1.133-2.531,2.336c0,2.108-0.125,4.832,0.036,7.538
		c0.153,2.562,0.608,5.104,0.9,7.415c32.36,3.088,34.192-6.794,40.579-25.276c0.149-0.434,0.25-0.884,0.397-1.319
		c8.918-26.51,17.809-53.033,26.806-79.518c1.062-3.128,2.712-6.057,4.09-9.078c3.092,27.757,1.152,55.098,2.834,82.802
		c7.606-0.187,13.911,1.814,20.439-1.695c0-10.212-0.06-20.29,0.02-30.367c0.058-7.337-0.428-14.78,0.625-21.987
		c1.647-11.262,9.244-17.373,19.708-17.244c10.232,0.128,17.428,6.717,18.969,18.044c0.676,4.969,0.433,10.076,0.456,15.121
		c0.053,12.275,0.018,24.552,0.018,37.604c14.859,0,28.392,0,42.667,0c0.284-4.075,0.708-7.626,0.747-11.18
		c0.118-11.014-0.306-22.049,0.217-33.04c0.698-14.682,5.549-19.417,19.902-20.999c2.17-0.238,4.305-0.808,6.248-1.183
		c0-7.409,0-14.071,0-21.25c-22.599,0.622-39.829,7.78-47.609,31.012c-3.699-14.501-10.208-26.097-23.97-30.86
		c-13.371-4.626-25.842-1.077-38.001,10.091c0-7.884,0.044-13.313-0.008-18.742c-0.153-16.151-3.519-18.819-21.479-15.558
		c0,7.192,0,14.683,0,23.225c-6.098,0-10.614,0.1-15.125-0.023c-7.021-0.191-11.185,3.072-12.826,9.889
		c-0.965,4.01-2.255,7.941-3.413,11.904c-3.622,12.428-7.25,24.854-10.876,37.281c-0.812-0.005-1.625-0.01-2.437-0.015
		c-5.771-19.542-11.541-39.084-17.308-58.615c-8.416,0-15.663,0-22.86,0c-0.689,2.521-1.259,4.604-1.837,6.713
		c-24.777-11.697-33.966-12-55.677-2.813c-10.13-2.354-18.467-5.735-26.889-5.965c-21.291-0.583-41.168,8.488-42.229,33.329
		C-288.187,192.264-287.544,211.059-287.544,230.889z M78.251,81.521c1.479,6.374-1.669,9.388-6.531,10.807
		c-3.938,1.149-8.094,1.539-12.143,2.322c-13.321,2.576-25.639,7.463-35.467,17.076c-9.376,9.171-15.695,19.863-14.278,36.229
		c2.401-4.422,3.701-6.744,4.935-9.102c7.833-14.959,20.356-23.156,36.848-25.776c16.445-2.612,31.935-0.254,46.39,8.301
		c5.525,3.27,11.178,6.339,16.882,9.286c7.767,4.011,16.129,4.924,23.928,1.112c10.092-4.932,18.412-12.286,24.137-22.375
		c-7.439,2.42-14.32,5.69-21.29,8.757c-4.913,2.161-9.757,2.354-14.234-1.316c-7.274-5.958-13.698-12.862-14.935-22.37
		c-0.655-5.04,0.638-10.963,2.892-15.591c2.907-5.971,12.939-7.996,19.677-5.325c6.554,2.6,8.938,7.424,7.473,15.764
		c-0.65,3.698-1.766,7.313-2.669,10.966c3.624-2.402,6.086-5.14,7.902-8.255c8.639-14.813,5.765-23.61-10.377-29.982
		c-18.53-7.316-37.275-8.702-56.329-1.137c-23.244,9.231-38.515,3.101-48.73-16.464c-0.5-0.957-1.443-1.681-2.179-2.512
		c0.896,7.001,2.966,13.496,6.257,19.298c2.429,4.279,6.205,7.911,9.813,11.378C55.226,81.262,67.764,78.528,78.251,81.521z
		 M-91.362,241.444c0,15.401,0,29.808,0,45.501c50.2,0.003,99.752,0.036,149.108-0.022c0-16.279,0-30.687,0-45.479
		C7.959,241.444-40.947,241.444-91.362,241.444z M94.924,52.037c6.892-0.373,13.622-6.708,13.675-12.876
		c0.055-6.249-5.094-10.419-12.02-9.731c-6.23,0.619-12.694,8.084-12.226,14.121C84.713,48.191,89.843,52.312,94.924,52.037z"/>
	<path fill-rule="evenodd" clip-rule="evenodd" d="M78.251,81.521c-10.487-2.994-23.025-0.26-32.027-8.91
		c-3.609-3.468-7.385-7.1-9.813-11.378c-3.291-5.802-5.361-12.297-6.257-19.298c0.736,0.832,1.679,1.556,2.179,2.512
		c10.215,19.565,25.486,25.695,48.73,16.464c19.054-7.565,37.799-6.179,56.329,1.137c16.142,6.373,19.016,15.169,10.377,29.982
		c-1.816,3.115-4.279,5.853-7.902,8.255c0.904-3.653,2.02-7.269,2.669-10.966c1.465-8.34-0.919-13.164-7.473-15.764
		c-6.738-2.671-16.77-0.646-19.677,5.325c-2.254,4.628-3.547,10.552-2.892,15.591c1.237,9.508,7.661,16.412,14.935,22.37
		c4.477,3.669,9.321,3.477,14.234,1.316c6.97-3.066,13.85-6.336,21.29-8.757c-5.725,10.089-14.045,17.443-24.137,22.375
		c-7.799,3.812-16.162,2.899-23.928-1.112c-5.704-2.947-11.357-6.016-16.882-9.286c-14.456-8.555-29.945-10.913-46.39-8.301
		c-16.492,2.62-29.015,10.817-36.848,25.776c-1.234,2.357-2.534,4.68-4.935,9.102c-1.417-16.365,4.902-27.057,14.278-36.229
		c9.828-9.613,22.146-14.5,35.467-17.076c4.049-0.783,8.204-1.173,12.143-2.322C76.582,90.91,79.73,87.896,78.251,81.521z"/>
	<path fill-rule="evenodd" clip-rule="evenodd" d="M94.924,52.037c-5.081,0.274-10.211-3.846-10.571-8.486
		C83.885,37.514,90.35,30.049,96.58,29.43c6.926-0.688,12.075,3.482,12.02,9.731C108.546,45.33,101.816,51.665,94.924,52.037z"/>
	<path fill-rule="evenodd" clip-rule="evenodd" fill="none" d="M-36.258,270.105c2.858,1.026,8.023,2.418,5.845,8.596
		c-2.008,5.694-7.366,6.432-12.615,5.98c-5.058-0.435-8.781-2.598-8.384-8.61c0.182-2.738,0.176-5.488,0.308-8.23
		c0.719-14.846,4.508-17.342,21.812-12.975C-31.713,260.161-34.011,265.191-36.258,270.105z"/>
	<path fill-rule="evenodd" clip-rule="evenodd" fill="none" d="M-21.255,276.88c-7.211-7.433-3.313-15.264-3.821-22.576
		c21.143-2.387,24.859,2.252,18.481,21.83c-4.979-1.456-3.209-5.684-3.854-8.826c-0.589-2.874-1.456-5.69-2.341-9.069
		C-21.649,262.486-14.808,271.138-21.255,276.88z"/>
	<path fill-rule="evenodd" clip-rule="evenodd" fill="none" d="M24.75,254.256c20.963-2.274,24.775,2.535,17.26,24.547
		c-2.088-8.443-3.529-14.276-4.972-20.109c-0.915-0.044-1.831-0.088-2.748-0.132c-0.826,2.657-1.853,5.273-2.427,7.984
		c-0.635,3.015-0.856,6.116-1.492,10.941c-2.685-2.257-5.323-3.406-5.42-4.739C24.498,266.544,24.75,260.288,24.75,254.256z"/>
	<path fill-rule="evenodd" clip-rule="evenodd" fill="none" d="M-81.732,272.104c3.613-0.776,6.499-1.396,9.848-2.117
		c-1.045-0.978-1.813-1.878-2.749-2.535c-3.698-2.594-8.394-4.813-5.495-10.581c2.34-4.655,7.009-4.611,15.793,0.509
		c-3.281,0.818-5.467,1.363-7.67,1.912c0.067,0.657-0.151,1.812,0.269,2.132c7.134,5.448,8.763,8.861,5.761,12.449
		C-69.205,277.734-74.482,277.337-81.732,272.104z"/>
	<path fill-rule="evenodd" clip-rule="evenodd" fill="none" d="M-56.02,278.324c-10.179-11.448-1.676-22.313-5.438-33.17
		c3.043,0.378,5.946,0.421,5.989,0.79C-54.345,255.833-51.848,265.783-56.02,278.324z"/>
	<path fill-rule="evenodd" clip-rule="evenodd" fill="none" d="M18.16,278.249c-9.55-10.994-2.117-21.574-4.201-31.096
		c-0.125-0.573,2.412-1.729,5.261-3.67C19.661,255.436,22.909,265.54,18.16,278.249z"/>
</g>
<g id="Layer_3">
</g>
</svg>
