<?xml version="1.0" encoding="utf-8"?>
<!-- Generator: Adobe Illustrator 16.0.0, SVG Export Plug-In . SVG Version: 6.00 Build 0)  -->
<!DOCTYPE svg PUBLIC "-//W3C//DTD SVG 1.1//EN" "http://www.w3.org/Graphics/SVG/1.1/DTD/svg11.dtd">
<svg version="1.1" id="Layer_1" xmlns="http://www.w3.org/2000/svg" xmlns:xlink="http://www.w3.org/1999/xlink" x="0px" y="0px"
	 width="266.411px" height="243.544px" viewBox="0 0 266.411 243.544" enable-background="new 0 0 266.411 243.544"
	 xml:space="preserve">
<g id="MyHR" display="none">
	<g display="inline">
		<path fill-rule="evenodd" clip-rule="evenodd" d="M130.295,103.436c-16.937-4.834-37.185-0.419-51.723-14.39
			c-5.828-5.6-11.926-11.465-15.849-18.375c-5.314-9.371-8.657-19.86-10.104-31.166c1.188,1.343,2.712,2.512,3.519,4.057
			c16.497,31.597,41.159,41.497,78.696,26.589c30.771-12.217,61.043-9.978,90.969,1.836c26.068,10.291,30.709,24.497,16.758,48.42
			c-2.933,5.03-6.91,9.453-12.762,13.332c1.459-5.9,3.261-11.738,4.312-17.71c2.366-13.468-1.484-21.259-12.069-25.458
			c-10.881-4.313-27.083-1.043-31.777,8.599c-3.64,7.475-5.728,17.041-4.67,25.179c1.998,15.355,12.372,26.505,24.119,36.127
			c7.23,5.926,15.053,5.615,22.987,2.125c11.255-4.952,22.367-10.233,34.381-14.142c-9.246,16.293-22.682,28.17-38.98,36.134
			c-12.595,6.156-26.1,4.683-38.643-1.795c-9.212-4.759-18.341-9.716-27.264-14.996c-23.345-13.816-48.359-17.624-74.917-13.406
			c-26.633,4.231-46.858,17.469-59.507,41.627c-1.993,3.807-4.092,7.558-7.97,14.699c-2.287-26.429,7.917-43.696,23.059-58.507
			c15.872-15.524,35.764-23.417,57.277-27.577c6.538-1.265,13.249-1.895,19.609-3.75
			C127.599,118.597,132.683,113.729,130.295,103.436z"/>
		<path fill-rule="evenodd" clip-rule="evenodd" d="M157.221,55.82c-8.206,0.443-16.491-6.21-17.071-13.705
			c-0.757-9.749,9.683-21.805,19.744-22.804c11.185-1.111,19.501,5.623,19.412,15.715C179.219,44.988,168.352,55.218,157.221,55.82z
			"/>
	</g>
</g>
<g id="Layer_3" display="none">
	<g display="inline">
		<path fill-rule="evenodd" clip-rule="evenodd" d="M249.296,44.176c1.222,0.418,2.583,0.618,3.64,1.293
			c3.428,2.188,7.562,3.916,9.935,6.976c5.058,6.52,1.104,14.445-7.116,14.299c-5.203-0.093-10.336-2.304-15.574-2.828
			c-3.6-0.36-7.519-0.046-10.933,1.072c-2.726,0.893-3.79,3.517-0.05,5.253c3.918,1.819,4.78,5.024,4.835,9.009
			c0.122,8.651,0.731,17.299,0.761,25.949c0.014,4.194,1.882,7.039,5.097,9.066c3.636,2.292,7.431,4.385,11.325,6.201
			c4.961,2.314,5.771,5.384,2.628,9.704c-0.994,1.367-1.608,3.692-1.203,5.273c1.401,5.464,3.561,10.732,4.961,16.197
			c0.738,2.881,0.387,6.026,0.761,9.023c0.148,1.192,0.855,2.345,1.435,3.449c1.19,2.268,2.465,4.491,4.319,7.842
			c-7.392,0-13.468,0.083-19.534-0.13c-0.593-0.021-1.378-1.819-1.575-2.886c-0.104-0.562,0.727-1.586,1.386-1.952
			c6.248-3.469,4.618-8.279,2.235-13.119c-2.929-5.95-5.535-12.145-9.203-17.615c-2.508-3.74-6.125-7.289-10.061-9.421
			c-12.579-6.816-25.419-13.11-35.11-23.866c-0.623,0.271-1.137,0.358-1.167,0.53c-1.376,7.948-7.699,11.374-13.951,14.222
			c-11.921,5.432-24.029,10.504-36.287,15.123c-6.874,2.59-7.692,1.653-9.106-5.699c-0.153-0.793-0.362-1.575-1.504-2.584
			c-0.952,2.881-2.102,5.721-2.729,8.671c-0.176,0.826,0.957,2.383,1.884,2.907c2.885,1.635,5.949,2.957,8.962,4.358
			c4.594,2.135,8.873,3.778,11.78-2.688c1.45-3.225,3.816-3.072,5.957,0.026c2.354,3.407,5.015,6.602,8.116,10.636
			c-2.405,0.6-4.265,1.614-5.973,1.402c-15.142-1.876-30.273-3.863-45.36-6.136c-1.806-0.272-4.177-2.114-4.82-3.791
			c-1.894-4.939-3.327-10.104-4.402-15.294c-0.74-3.569-0.153-6.866,2.748-10.005c4.079-4.414,3.656-8.547,0.772-12.232
			c3.113-6.203,6.667-11.661,8.636-17.641c2.236-6.794-2.268-15.57-8.243-18.089c-1.216-0.514-2.774-0.216-4.175-0.291
			c0.165,1.242,0.03,2.629,0.545,3.703c2.712,5.65,1.394,10.492-3.107,14.371c-5.335,4.599-10.228,9.88-18.345,9.898
			c-2.847,0.006-5.734,2.358-8.521,3.798c-5.131,2.652-10.203,5.422-15.824,8.422c-0.272-1.494-0.747-2.387-0.485-2.913
			c5.384-10.82,4.58-22.655,5.795-34.173c1.426-13.526,7.759-19.329,21.41-20.208c19.12-1.23,37.284,3.698,55.412,8.676
			c13.023,3.577,26.023,6.962,39.705,6.491c8.283-0.285,16.276-1.623,23.234-6.396c4.235-2.905,7.301-0.55,10.248,1.853
			c2.418,1.972,4.013,2.785,6.36-0.257c3.439-4.456,8.503-4.734,13.662-4.047c1.262,0.169,2.51,0.452,4.424,0.805
			c-0.713-1.446-1.063-2.305-1.536-3.09c-3.683-6.106-3.369-6.762,3.714-8.039c1.103-0.198,2.145-0.73,3.214-1.109
			C245.296,44.176,247.296,44.176,249.296,44.176z M245.015,58.409c-0.081,0.425-0.162,0.849-0.242,1.273
			c4.313,1.208,8.577,2.864,12.971,3.359c1.357,0.152,4.242-2.767,4.368-4.434c0.231-3.072-2.492-3.887-5.312-3.207
			C252.859,56.353,248.942,57.402,245.015,58.409z"/>
		<path fill-rule="evenodd" clip-rule="evenodd" d="M108.322,71.09c7.64,10.258,6.217,14.692-9.023,32.628
			c6.918,1.908,7.984,4.696,3.088,9.906c-4.644,4.941-2.821,10.31-1.708,15.495c1.109,5.164,3.335,10.077,4.769,15.186
			c1.824,6.498,0.097,9.518-7.111,13.353c-6.807,3.622-11.088,3.345-15.175-1.447c-2.798-3.281-5.042-7.03-7.784-10.363
			c-4.582-5.57-9.236-10.696-17.704-10.142c-5.652,0.369-6.869-2.578-3.918-8.53c-12.26,1.532-25.261,5.714-32.983-10.641
			c12.466,9.689,22.735,1.619,33.396-1.452c4.661-8.372,14.361-8.957,21.417-13.646c3.208-2.131,7.573-2.515,11.403-3.723
			c0.931-0.293,1.941-0.544,2.715-1.095c4.468-3.18,9.036-6.248,13.26-9.731C107.389,83.237,110.188,78.641,108.322,71.09z"/>
		<path fill-rule="evenodd" clip-rule="evenodd" d="M176.536,171.947c-6.893,0-12.994,0.167-19.08-0.067
			c-3.255-0.125-2.193-2.439-1.017-3.777c2.289-2.606,5.22-4.677,7.347-7.392c6.053-7.723,11.747-15.728,17.773-23.471
			c2.06-2.646,2.056-4.537-0.541-6.687c-2.396-1.984-4.565-4.243-6.96-6.499c5.463-3.43,10.501-6.606,15.562-9.746
			c0.532-0.331,1.342-0.784,1.784-0.602c5.547,2.295,11.051,4.697,17.072,7.291c-1.47,1.09-2.471,1.891-3.529,2.605
			c-6.247,4.217-6.491,5.529-2.063,11.396c4.016,5.32,3.93,5.173-2.049,8.68c-8.457,4.959-16.751,10.196-25.158,15.242
			c-3.043,1.827-4.429,3.639-1.542,6.926C175.317,167.195,175.566,169.365,176.536,171.947z"/>
		<path fill-rule="evenodd" clip-rule="evenodd" d="M71.148,145.941c2.51,3.387,4.647,6.27,6.967,9.399
			c-1.336,0.808-2.258,1.437-3.24,1.948c-6.222,3.241-6.227,3.232-2.857,9.483c2.242,4.159,1.687,5.158-3.021,5.194
			c-4.811,0.036-9.622-0.009-14.432-0.05c-0.474-0.004-0.947-0.222-2.305-0.563C58.542,162.903,64.604,154.746,71.148,145.941z"/>
	</g>
</g>
<g id="QM_x2B_" display="none">
	<g>
		<path display="inline" fill-rule="evenodd" clip-rule="evenodd" d="M162.721,98.958c0-14.023,0.354-28.059-0.108-42.068
			c-0.397-12.074-5.305-16.73-16.374-17.107c-11.835-0.404-17.491,4.484-17.983,17.128c-0.546,14.006-0.125,28.051-0.125,42.079
			c-1.159,0.165-2.319,0.33-3.479,0.495c-0.922-2.108-2.599-4.201-2.643-6.327c-0.26-12.756-0.621-25.542-0.026-38.276
			c0.665-14.178,8.236-20.717,22.777-21.041c14.635-0.324,23.196,5.856,24.111,19.667c0.996,15.042,0.225,30.202,0.225,45.309
			C166.971,98.864,164.847,98.911,162.721,98.958z"/>
		<path display="inline" fill-rule="evenodd" clip-rule="evenodd" d="M188.624,108.703c16.754,0,33.605-1.076,50.229,0.393
			c10.443,0.924,14.327,9.685,14.285,23.398c-0.033,10.686-3.304,20.45-14.654,21.496c-16.593,1.53-33.43,0.393-50.164,0.393
			c-0.156-1.027-0.314-2.057-0.471-3.086c2.476-0.895,4.933-2.504,7.429-2.565c12.267-0.302,24.563,0.205,36.813-0.352
			c10.776-0.491,15.512-5.793,15.876-16.06c0.393-11.063-4.447-17.247-15.614-18.125c-9.55-0.752-19.199-0.258-28.804-0.297
			c-5.04-0.022-10.081-0.005-15.121-0.005C188.494,112.163,188.559,110.433,188.624,108.703z"/>
		<path display="inline" fill-rule="evenodd" clip-rule="evenodd" d="M128.082,164.305c0,13.382-0.044,26.764,0.016,40.145
			c0.038,8.385,1.362,15.9,11.174,18.692c12.925,3.678,22.5-2.315,23.29-15.719c0.624-10.592,0.055-21.248,0.255-31.871
			c0.072-3.83,0.842-7.646,1.292-11.467c1.337-0.053,2.675-0.105,4.012-0.158c0.444,4.756,1.24,9.51,1.259,14.266
			c0.048,11.149,0.558,22.393-0.668,33.426c-1.455,13.091-9.835,18.179-25.621,17.411c-13.415-0.65-20.342-6.27-20.998-18.93
			c-0.715-13.773-0.234-27.615-0.023-41.424c0.025-1.639,1.625-3.256,2.495-4.883C125.737,163.964,126.909,164.135,128.082,164.305z
			"/>
		<path display="inline" fill-rule="evenodd" clip-rule="evenodd" d="M101.539,154.374c-16.679,0-33.468,1.156-50.001-0.397
			c-11.475-1.078-14.436-11.375-14.522-21.72c-0.086-10.09,1.567-21.29,13.171-22.544c16.857-1.824,34.057-0.467,51.112-0.467
			c0.075,1.55,0.148,3.1,0.222,4.65c-6.344,0-12.688-0.003-19.03,0.001c-6.935,0.004-13.87-0.06-20.803,0.045
			c-9.205,0.138-16.984,2.375-19.011,13.096c-2.392,12.634,3.662,20.813,16.632,21.418c9.58,0.446,19.2,0.008,28.799,0.171
			c4.5,0.076,8.992,0.64,13.487,0.982C101.574,151.197,101.557,152.785,101.539,154.374z"/>
		<path display="inline" fill-rule="evenodd" clip-rule="evenodd" d="M87.434,204.587c2.779-3.015,5.989-5.742,8.247-9.104
			c4.82-7.186,2.869-15.794-4.066-19.119c-8.204-3.932-11.615,1.786-14.611,7.734c-1.908,3.786-3.263,7.85-5.133,11.657
			c-6.638,13.521-16.488,17.804-26.43,11.624c-8.841-5.496-11.723-22.311-4.667-31.466c2.839-3.683,7.581-5.901,11.457-8.785
			c0.789,0.963,1.578,1.925,2.368,2.889c-3.216,3.551-6.958,6.758-9.535,10.725c-4.927,7.581-2.951,17.785,3.948,20.957
			c9.156,4.208,13.839-1.531,17.306-8.846c1.589-3.352,2.601-6.971,4.114-10.363c5.282-11.843,12.68-16.238,21.928-13.174
			c9.151,3.033,14.274,14.457,9.924,25.303c-2.024,5.049-7.065,8.887-10.739,13.274C90.174,206.792,88.804,205.688,87.434,204.587z"
			/>
		<path display="inline" fill-rule="evenodd" clip-rule="evenodd" d="M39.029,8.185c19.726,0,39.452-0.047,59.175,0.109
			c1.252,0.01,2.894,1.323,3.671,2.487c3.83,5.732,0.028,30.097-5.263,34.78c-9.247,8.185-24.485,4.14-28.662-7.647
			c-0.525-1.482-0.741-3.084-1.02-4.646c-1.085-6.095-0.122-14.641-3.75-17.636c-3.917-3.231-12.12-1.205-18.443-1.624
			c-1.98-0.131-3.927-0.757-5.89-1.156C38.908,11.297,38.969,9.741,39.029,8.185z M97.4,23.467c2.093-11.15-6.7-8.872-13.928-9.479
			c-8.568-0.719-12.6,1.868-11.917,11.233c0.857,11.745,4.986,17.902,13.434,17.807C93.385,42.933,97.602,36.716,97.4,23.467z"/>
		<path display="inline" fill-rule="evenodd" clip-rule="evenodd" d="M102.915,68.889c-14.76,0-28.051-0.138-41.338,0.036
			c-17.291,0.225-19.062-3.672-18.766,17.4c0.047,3.374-1.154,6.765-1.778,10.146c-1.084-0.055-2.169-0.111-3.255-0.166
			c0-8.818-0.485-17.68,0.307-26.425c0.227-2.521,4.105-6.704,6.354-6.733c18.484-0.239,36.978,0.304,55.465,0.743
			C100.401,63.901,100.864,65.414,102.915,68.889z"/>
	</g>
	<g display="inline">
		
			<path fill-rule="evenodd" clip-rule="evenodd" fill="none" stroke="#000000" stroke-width="6" stroke-linecap="round" stroke-linejoin="round" stroke-miterlimit="10" d="
			M159.024,101.934c0-14.888,0.207-29.777-0.057-44.657c-0.272-15.415-7.395-22.332-22.273-22.332
			c-14.878,0-21.999,6.917-22.272,22.332c-0.264,14.88-0.058,29.77-0.058,44.657"/>
		
			<path fill-rule="evenodd" clip-rule="evenodd" fill="none" stroke="#000000" stroke-width="6" stroke-linecap="round" stroke-linejoin="round" stroke-miterlimit="10" d="
			M181.354,158.618c15.46,0,30.919,0.096,46.379-0.029c14.728-0.117,20.092-5.137,20.611-18.865
			c0.683-18.04-3.769-24.819-18.902-25.585c-15.991-0.808-32.057-0.181-48.088-0.181"/>
		
			<path fill-rule="evenodd" clip-rule="evenodd" fill="none" stroke="#000000" stroke-width="6" stroke-linecap="round" stroke-linejoin="round" stroke-miterlimit="10" d="
			M114.364,170.642c0,15.46-0.095,30.919,0.026,46.379c0.119,14.657,7.893,22.33,22.304,22.33c14.006,0,21.917-7.622,22.251-22.332
			c0.352-15.451,0.079-30.917,0.079-46.377"/>
		
			<path fill-rule="evenodd" clip-rule="evenodd" fill="none" stroke="#000000" stroke-width="6" stroke-linecap="round" stroke-linejoin="round" stroke-miterlimit="10" d="
			M88.599,113.958c-13.742,0-27.486-0.203-41.224,0.053c-15.167,0.286-25.767,9.659-25.767,22.277
			c0,12.917,10.753,22.271,25.765,22.32c13.742,0.045,27.483,0.01,41.226,0.01"/>
		
			<path fill-rule="evenodd" clip-rule="evenodd" fill="none" stroke="#000000" stroke-width="6" stroke-linecap="round" stroke-linejoin="round" stroke-miterlimit="10" d="
			M35.35,179.23c-11.403,2.321-12.93,12.953-12.927,20.611c0.003,6.175,2.283,16.368,12.929,17.156
			c8.068,0.595,14.2-0.262,17.728-10.087c2.257-6.291,4.86-13.008,8.207-18.996c4.429-7.928,12.193-12.223,20.223-6.651
			c7.881,5.465,9.431,14.356,5.443,23.763c-2.384,5.62-6.756,8.392-12.096,10.275"/>
		
			<path fill-rule="evenodd" clip-rule="evenodd" fill="none" stroke="#000000" stroke-width="6" stroke-linecap="round" stroke-linejoin="round" stroke-miterlimit="10" d="
			M55.962,10.896c0,6.299,0.256,12.609-0.053,18.891c-0.615,12.411,6.686,15.309,17.228,15.563
			c11.188,0.27,13.663-6.434,13.733-15.559c0.053-6.895,0.01-13.788,0.01-22.33c-22.298,0-42.927,0-63.555,0"/>
		
			<path fill-rule="evenodd" clip-rule="evenodd" fill="none" stroke="#000000" stroke-width="6" stroke-linecap="round" stroke-linejoin="round" stroke-miterlimit="10" d="
			M88.599,65.863c-20.628,0-41.258,0-63.556,0c0,11.959,0,22.298,0,32.635"/>
	</g>
</g>
<g id="QM_crown">
	<path fill-rule="evenodd" clip-rule="evenodd" fill="none" d="M1128.303,102.327c0,66.052,0,132.104,0,198.157
		c-178.846,0-357.693,0-536.539,0c4.412-1.163,7.808-3.584,9.59-7.909c0.718-1.743,1.404-3.516,1.898-5.332
		c2.904-10.683,5.749-21.382,8.613-32.076c0.874-3.262,1.746-6.524,2.675-9.994c-3.408,0-6.44,0-9.7,0
		c-1.904,8.598-3.797,17.143-5.859,26.451c-0.418-1.211-0.62-1.669-0.734-2.147c-1.777-7.443-3.512-14.897-5.357-22.324
		c-0.194-0.779-0.994-1.95-1.586-1.997c-2.74-0.213-5.506-0.094-8.473-0.094c0.269,1.104,0.414,1.801,0.608,2.483
		c3.225,11.34,6.552,22.652,9.652,34.026c2.032,7.456-0.019,10.074-7.8,10.607c-0.254,0.017-0.499,0.142-1.107,0.323
		c0,2.614,0,5.298,0,7.982c-194.482,0-388.965,0-583.643,0c0-76.159,0-152.318,0-228.477c0.312,0.822,0.711,1.621,0.924,2.468
		c6.569,26.216,13.115,52.438,19.678,78.655c0.97,3.874,2.001,7.732,3.176,12.259c3.762-9.9,11.013-13.902,20.257-14.814
		c9.285-0.915,16.77,2.889,23.055,10c-0.196-7.317-4.818-20.48-8.866-25.735c-4.809-6.244-11.127-7.698-18.204-4.088
		c-1.677,0.855-3.328,1.855-4.773,3.051c-2.766,2.289-5.375,4.766-8.306,7.394c0.394-1.042,0.693-1.852,1.005-2.656
		c3.607-9.299,4.101-18.753,1.417-28.367c-3.187-11.417-9.603-20.92-17.797-29.243c-3.565-3.622-7.693-6.689-11.566-10.008
		c0-23.43,0-46.86,0-70.383c44.937,0,89.875,0,134.812,0c-1.916,4.153-3.507,8.498-5.819,12.417
		c-3.996,6.771-5.202,13.36-0.446,20.211c0.032,0.046-0.013,0.145-0.021,0.218c-10.509-7.519-19.077-3.921-21.711,1.713
		c-2.858,6.114,0.537,16.447,6.403,18.791c0.398-1.739,0.599-3.551,1.231-5.197c1.495-3.896,6.901-6.227,10.857-4.85
		c3.283,1.143,4.505,4.877,2.9,9.47c-0.728,2.082-1.818,4.037-2.743,6.047c3.283-0.3,6.49-0.83,9.694-0.819
		c3.155,0.01,6.309,0.568,9.209,0.86c-0.955-2.854-2.294-5.581-2.733-8.446c-0.777-5.076,2.605-8.06,7.651-7.226
		c4.572,0.756,6.967,3.215,7.625,7.851c0.119,0.837,0.187,1.683,0.327,2.97c4.331-3.311,6.569-7.269,7.5-12.168
		c1.133-5.964-3.09-14.185-11.771-13.058c-3.603,0.468-7.077,1.923-10.426,2.876c0.175-0.387,0.546-1.363,1.042-2.272
		c2.099-3.845,2.13-7.754,0.372-11.699c-0.732-1.642-1.626-3.211-2.411-4.832c-2.073-4.281-4.127-8.571-6.189-12.857
		c330.803,0,661.606,0,992.409,0c0,33.567,0,67.135,0,100.703c-2.791,0.046-5.598,0.287-8.37,0.079
		c-2.329-0.175-3.27,0.749-3.978,2.844c-6.313,18.681-12.721,37.329-19.106,55.984c-1.771,5.176-3.564,10.345-5.503,15.969
		c-0.415-1.049-0.661-1.601-0.854-2.17c-3.838-11.342-7.667-22.686-11.502-34.028c-4.095-12.112-8.178-24.229-12.324-36.323
		c-0.279-0.816-1.009-2.063-1.587-2.097c-3.463-0.198-6.943-0.098-10.73-0.098c0.376,1.248,0.596,2.1,0.888,2.926
		c10.048,28.441,20.107,56.878,30.139,85.325c0.317,0.902,0.71,1.998,0.477,2.84c-1.808,6.545-4.161,12.866-8.534,18.215
		c-4.171,5.104-9.433,7.332-16.043,6.067c-1.98-0.379-4.002-0.553-6.274-0.856c0,2.544,0.09,4.698-0.029,6.839
		c-0.084,1.502,0.556,2.185,1.937,2.276c3.321,0.218,6.649,0.6,9.969,0.549c10.341-0.161,17.838-4.99,22.436-14.24
		c1.241-2.495,2.442-5.035,3.362-7.658c9.211-26.254,18.345-52.535,27.535-78.796
		C1122.849,117.348,1125.602,109.847,1128.303,102.327z M906.314,76.43c0.212,0.002,0.425,0.004,0.637,0.006
		c0,38.821,0,77.641,0,116.5c3.996,0,7.726,0,11.528,0c0-42.392,0-84.575,0-127.099c-6.172,0-12.192,0.067-18.21-0.041
		c-1.794-0.032-2.459,0.672-2.984,2.292c-9.422,29.048-18.903,58.077-28.381,87.107c-1.973,6.043-3.98,12.075-6.132,18.597
		c-0.436-1.173-0.705-1.828-0.924-2.499c-3.359-10.274-6.723-20.547-10.064-30.827c-7.822-24.07-15.658-48.137-23.404-72.232
		c-0.612-1.905-1.506-2.488-3.433-2.441c-5.049,0.125-10.104,0.036-15.156,0.049c-0.861,0.002-1.722,0.089-2.575,0.136
		c0,42.504,0,84.685,0,127.015c3.838,0,7.491,0,11.502,0c0-38.898,0-77.661,0-116.423c0.74,0.603,1.037,1.241,1.253,1.905
		c11.479,35.385,22.946,70.775,34.438,106.157c0.912,2.809,1.254,6.483,3.221,8.066c1.721,1.385,5.369,0.251,8.144,0.49
		c2.144,0.185,2.895-0.708,3.519-2.651c6.884-21.44,13.877-42.846,20.836-64.263C895.526,109.662,900.918,93.045,906.314,76.43z
		 M176.467,179.754c0.201-0.526,0.209-0.633,0.267-0.688c0.524-0.493,1.06-0.975,1.588-1.464
		c17.076-15.833,24.455-35.35,20.562-58.311c-6.252-36.875-41.813-59.928-78.649-51.611c-41.078,9.275-62.153,55.81-41.944,92.612
		c16.255,29.602,52.379,41.659,83.614,27.984c1.153-0.504,2.808-0.575,3.996-0.168c6.647,2.281,13.217,4.787,19.824,7.185
		c8.303,3.014,16.57,6.1,25.54,6.628c12.127,0.715,22.418-4.604,27.058-14.187c3.969-8.197,2.188-17.341-4.618-23.713
		c-6.402-5.993-15.438-6.969-23.291-2.473c-2.703,1.548-4.62,3.747-5.138,6.924c-0.517,3.169,1.042,6.242,3.843,7.705
		c2.753,1.437,6.011,1.02,8.308-1.064c2.194-1.989,3.272-5.58,1.696-8.135c-1.272-2.063-3.481-3.55-5.093-5.115
		c7.14-3.049,15.939,1.842,17.031,10.112c1.143,8.657-5.685,17.994-14.365,18.996c-3.588,0.414-7.543,0.392-10.927-0.692
		C195.915,187.121,186.266,183.326,176.467,179.754z M404.905,188.106c6.781,10.986,16.969,15.567,29.669,15.58
		c0-3.705,0-7.08,0-10.622c-0.989,0-1.795,0.017-2.601-0.002c-7.672-0.185-13.715-3.232-17.838-9.897
		c-0.95-1.536-0.969-2.42,0.208-3.93c2.592-3.324,5.305-6.707,7.092-10.48c11.283-23.822,11.459-48.239,2.699-72.762
		c-4.355-12.194-12.155-21.91-24.115-27.597c-18.075-8.594-48.331-7.214-62.534,23.073c-10.172,21.693-10.286,44.324-3.622,67.037
		c3.377,11.509,9.403,21.619,19.595,28.368C370.105,197.899,387.287,197.402,404.905,188.106z M136.174,206.417
		c-28.595,0-57.189-0.043-85.783,0.069c-2.813,0.011-5.818,0.511-8.393,1.594c-5.785,2.435-6.263,8.067-1.24,11.892
		c3.421,2.604,7.379,3.93,11.63,3.668c14.481-0.892,28.949-2.006,43.428-2.956c13.127-0.86,26.278-2.458,39.389-2.212
		c18.362,0.345,36.698,2.088,55.044,3.254c9.893,0.628,19.776,1.446,29.677,1.892c4.629,0.208,8.929-1.318,12.341-4.619
		c3.549-3.434,3.131-8.198-1.274-10.313c-2.816-1.352-6.182-2.157-9.308-2.175C193.183,206.352,164.678,206.417,136.174,206.417z
		 M996.667,193.013c-0.357-3.854-0.925-7.342-0.963-10.835c-0.151-13.893-0.109-27.788-0.198-41.681
		c-0.038-5.95,0.016-11.916-0.39-17.845c-0.833-12.199-7.662-19.824-19.714-21.992c-4.053-0.729-8.247-1.068-12.363-0.979
		c-14.925,0.327-25.479,7.637-32.35,20.85c2.419,1.434,4.716,2.796,6.905,4.094c0.312-0.207,0.406-0.239,0.456-0.306
		c0.585-0.798,1.158-1.605,1.743-2.404c7.077-9.662,16.318-14.604,28.563-13.639c10.208,0.804,15.724,5.274,16.752,14.569
		c0.354,3.196,0.056,6.465,0.056,9.943c-3.681,0.832-7.456,1.645-11.211,2.541c-10.689,2.551-21.433,4.91-31.403,9.804
		c-11.54,5.665-16.583,14.98-15.828,27.646c0.686,11.514,8.031,19.841,19.461,21.616c11.939,1.854,22.923-0.828,32.855-7.73
		c1.968-1.368,3.911-2.771,6.096-4.32c0.522,3.782,0.994,7.208,1.471,10.667C990.077,193.013,993.295,193.013,996.667,193.013z
		 M527.173,147.634c21.373,0,42.417,0,64.136,0c-0.605-5.567-0.885-10.781-1.792-15.884c-1.591-8.94-4.844-17.246-11.706-23.544
		c-16.776-15.396-44.797-10.091-55.057,10.891c-8.778,17.954-8.475,36.67-1.234,55.083c4.072,10.355,12.07,17.006,23.029,19.409
		c4.526,0.992,9.29,1.285,13.941,1.251c14.526-0.105,28.436-9.604,33.297-22.503c-2.749-1.464-5.516-2.939-8.235-4.388
		c-2.476,3.291-4.83,6.472-7.239,9.61c-9.73,12.678-29.486,10.26-37.643,2.487C529.455,171.264,527.542,159.949,527.173,147.634z
		 M674.316,147.694c-0.867-6.579-1.305-12.694-2.547-18.641c-1.666-7.969-5.011-15.288-11.171-20.899
		c-16.77-15.274-44.723-10.005-54.938,10.802c-8.822,17.969-8.539,36.672-1.352,55.112c4.001,10.267,11.859,16.971,22.715,19.425
		c4.607,1.041,9.464,1.35,14.207,1.35c15.996,0.001,26.15-8.994,33.553-22.415c-2.882-1.538-5.645-3.012-8.385-4.475
		c-2.528,3.336-4.943,6.576-7.413,9.774c-9.577,12.398-29.185,10.066-37.267,2.508c-9.397-8.79-11.338-20.187-11.707-32.541
		C631.324,147.694,652.305,147.694,674.316,147.694z M693.953,193.018c0-1.388,0-2.458,0-3.527c0-20.474-0.017-40.948,0.045-61.421
		c0.003-1.142,0.303-2.658,1.059-3.359c4.025-3.739,8.132-7.41,12.419-10.842c4.387-3.512,9.412-5.532,15.166-5.685
		c10.879-0.289,17.137,4.901,18.563,15.719c0.317,2.405,0.502,4.847,0.507,7.271c0.04,19.572,0.022,39.144,0.022,58.716
		c0,1.031,0,2.062,0,3.002c3.822,0,7.188,0,10.573,0c0.05-0.788,0.112-1.325,0.112-1.862c0.005-20.835,0.049-41.67-0.042-62.504
		c-0.014-3.133-0.405-6.316-1.058-9.384c-2.123-9.974-7.787-16.705-18.133-18.757c-13.009-2.58-24.233,0.992-33.817,10.028
		c-1.66,1.565-3.322,3.127-5.549,5.222c0-5.209,0-9.655,0-14.102c-3.664,0-6.969,0-10.366,0c0,30.564,0,60.979,0,91.485
		C686.95,193.018,690.251,193.018,693.953,193.018z M508.132,101.542c-3.613,0-6.988,0-10.654,0c0,1.211,0,2.272,0,3.333
		c0,20.563,0.014,41.126-0.039,61.689c-0.003,1.062-0.245,2.493-0.943,3.124c-4.54,4.106-9.083,8.24-13.927,11.972
		c-4.966,3.826-10.777,5.166-17.077,4.609c-7.558-0.667-12.521-4.33-14.396-11.708c-0.986-3.883-1.414-8.002-1.444-12.019
		c-0.144-19.209-0.064-38.42-0.064-57.63c0-1.063,0-2.125,0-3.328c-3.667,0-7.03,0-10.452,0c-0.051,0.822-0.123,1.447-0.124,2.072
		c-0.005,20.653-0.027,41.307,0.025,61.96c0.007,2.603,0.261,5.229,0.665,7.803c2.182,13.884,11.008,21.205,25.066,21.555
		c11.218,0.28,20.287-4.056,28.147-11.623c1.365-1.314,2.785-2.572,4.728-4.361c0,5.206,0,9.58,0,13.942c3.64,0,7.01,0,10.489,0
		C508.132,162.439,508.132,132.158,508.132,101.542z M240.954,140.502c-3.906-2.99-7.96-6.781-12.634-9.512
		c-7.228-4.223-13.805-2.436-18.676,4.283c-0.895,1.234-1.844,2.515-2.357,3.924c-1.902,5.229-3.687,10.502-5.395,15.798
		c-0.545,1.691-0.718,3.503-1.061,5.26c6.458-6.862,13.981-10.563,23.304-9.674c9.342,0.891,16.585,5.046,20.302,14.854
		c7.989-31.878,15.807-63.078,23.8-94.974c-6.729,5.076-12.213,10.383-16.963,16.403
		C238.416,103.162,232.438,120.791,240.954,140.502z M1016.988,193.003c0-1.407,0-2.479,0-3.552
		c-0.001-15.781-0.01-31.563,0.013-47.345c0.003-1.707,0.098-3.426,0.316-5.117c1.943-15.058,16.293-28.843,29.757-27.098
		c0.409,0.053,0.845-0.098,1.285-0.156c0-3.438,0-6.708,0-9.992c-5.41-0.436-10.493-0.05-15.284,2.18
		c-7.217,3.359-12.066,9.091-16.157,15.951c0-5.421,0-10.842,0-16.342c-3.681,0-6.978,0-10.429,0c0,30.552,0,60.956,0,91.471
		C1010.005,193.003,1013.302,193.003,1016.988,193.003z M344.417,231.868c-3.755,0-7.04,0-10.445,0c0,1.208-0.002,2.193,0,3.18
		c0.018,12.44-0.157,24.886,0.127,37.32c0.173,7.563,4.993,12.74,12.288,13.975c2.294,0.388,4.675,0.532,6.997,0.42
		c9.029-0.439,15.152-4.702,15.552-12.722c0.695-13.996,0.193-28.052,0.193-42.191c-3.319,0-6.671,0-10.175,0
		c0,2.897,0,5.591,0,8.285c-0.001,9.916,0.032,19.833-0.017,29.75c-0.023,4.768-2.133,7.238-6.272,7.616
		c-5.293,0.483-8.22-2.127-8.236-7.495c-0.037-11.72-0.012-23.439-0.012-35.159C344.417,233.88,344.417,232.912,344.417,231.868z
		 M96.734,189.839c-3.513-2.771-6.391-4.939-9.141-7.258c-1.167-0.984-2.129-1.24-3.612-0.655c-4.94,1.948-9.897,3.881-14.946,5.516
		c-3.833,1.241-7.765,2.494-11.74,2.911c-11.15,1.172-20.618-8.201-19.308-19.04c0.285-2.361,1.449-4.886,2.923-6.779
		c3.435-4.412,10.542-5.749,14.378-3.061c-0.645,0.225-1.255,0.381-1.817,0.642c-3.288,1.526-4.982,5.079-4.095,8.53
		c0.884,3.435,4.101,5.664,7.759,5.374c3.523-0.279,6.36-3.108,6.561-6.754c0.189-3.443-1.399-6.063-4.182-7.999
		c-6.421-4.464-15.583-4.511-21.891-0.122c-6.989,4.862-10.533,13.574-8.636,21.23c2.581,10.421,11.964,17.992,23.656,18.384
		c4.982,0.167,10.193-0.158,14.967-1.471C77.281,196.627,86.726,193.141,96.734,189.839z M828.823,248.606
		c-1.357-0.874-2.243-1.464-3.148-2.023c-7.95-4.916-15.267-1.72-16.171,7.618c-0.69,7.131-0.274,14.373-0.248,21.564
		c0.005,1.321,0.388,2.676,0.784,3.957c1.945,6.29,7.752,8.889,13.712,6.01c1.96-0.947,3.669-2.413,5.598-3.714
		c0.077,1.325,0.151,2.613,0.224,3.86c3.007,0,5.751,0,8.52,0c0-18.153,0-36.104,0-54.072c-3.16,0-6.09,0-9.27,0
		c0,2.84,0,5.522,0,8.206C828.823,242.702,828.823,245.392,828.823,248.606z M486.191,267.762c0-3.364,0.017-6.499-0.004-9.635
		c-0.045-6.863-4.312-12.05-11.02-13.426c-8.065-1.653-15.7,1.153-17.716,7.672c-2.662,8.61-2.746,17.736,0.004,26.303
		c2.473,7.701,13.584,10.586,21.786,6.518c4.806-2.384,6.59-6.518,6.922-11.724c-3.225,0-6.251,0-9.404,0
		c-0.126,0.616-0.202,1.137-0.341,1.64c-0.757,2.738-2.392,3.898-5.398,3.853c-2.878-0.044-4.882-1.417-5.221-4.083
		c-0.287-2.266-0.059-4.597-0.059-7.117C472.669,267.762,479.31,267.762,486.191,267.762z M842.94,265.496
		c-0.017,0.001-0.033,0.001-0.05,0.001c0,2.701-0.148,5.413,0.028,8.104c0.533,8.084,4.614,12.26,12.648,13.142
		c9.998,1.097,16.703-3.691,17.174-12.631c0.303-5.747,0.255-11.532-0.009-17.284c-0.298-6.464-4.175-11.053-10.069-12.032
		c-2.714-0.451-5.587-0.517-8.318-0.188c-6.813,0.82-10.834,5.123-11.366,11.977C842.749,259.538,842.94,262.524,842.94,265.496z
		 M663.308,265.428c0-2.433,0.045-4.866-0.008-7.299c-0.177-8.175-4.552-12.924-12.623-13.755
		c-11.297-1.164-17.348,4.19-17.427,15.495c-0.032,4.593-0.11,9.197,0.146,13.778c0.443,7.939,4.503,12.082,12.409,13.055
		c11.185,1.375,17.495-4.151,17.504-15.327C663.311,269.392,663.309,267.409,663.308,265.428z M769.02,265.709
		c-0.015,0-0.028,0-0.044,0c0-2.793,0.146-5.595-0.027-8.377c-0.484-7.81-4.768-12.22-12.554-12.924
		c-1.955-0.177-3.974-0.095-5.921,0.175c-6.332,0.873-10.229,4.164-10.956,10.454c-0.699,6.049-0.623,12.223-0.454,18.329
		c0.221,8.002,4.5,12.368,12.438,13.336c11.197,1.365,17.5-4.145,17.519-15.315C769.023,269.494,769.02,267.602,769.02,265.709z
		 M888.459,285.893c0-1.06,0-2.028,0-2.997c0-8.21,0-16.419,0-24.629c0-3.432,2.977-6.764,6.08-6.811
		c2.521-0.038,3.448,1.7,3.448,6.472c0.001,8.39-0.004,16.779,0.008,25.17c0.001,0.946,0.094,1.894,0.141,2.778
		c3.281,0,6.208,0,9.351,0c0-1.178,0-2.154,0-3.13c-0.002-9.834,0.091-19.668-0.039-29.5c-0.091-6.955-4.826-10.465-11.436-8.511
		c-1.933,0.571-3.653,1.878-5.446,2.891c-0.718,0.405-1.37,0.929-2.254,1.537c-0.146-1.554-0.252-2.688-0.365-3.893
		c-3.043,0-5.949,0-8.949,0c0,13.628,0,27.031,0,40.622C882.15,285.893,885.159,285.893,888.459,285.893z M403.847,285.92
		c0-11.579,0.225-23.005-0.105-34.414c-0.142-4.917-3.428-7.446-8.405-7.089c-2.311,0.166-4.601,1.271-6.792,2.204
		c-1.265,0.538-2.313,1.585-3.702,2.576c-0.163-1.496-0.294-2.695-0.426-3.904c-3.072,0-5.972,0-8.928,0c0,13.64,0,27.031,0,40.605
		c3.156,0,6.162,0,9.458,0c0-1.071,0-2.039,0-3.007c0-8.652-0.01-17.305,0.007-25.956c0.004-2.271,3.499-5.404,6.043-5.483
		c2.343-0.073,3.468,1.526,3.474,5.049c0.015,8.831,0.001,17.664,0.012,26.496c0.001,0.954,0.084,1.908,0.132,2.923
		C397.829,285.92,400.754,285.92,403.847,285.92z M775.252,285.867c3.156,0,6.144,0,9.335,0c0-1.187,0-2.165,0-3.144
		c-0.001-8.295-0.003-16.589,0-24.883c0.001-3.061,3.318-6.442,6.258-6.387c2.351,0.044,3.324,1.724,3.326,5.776
		c0.004,8.565,0.001,17.129,0.001,25.694c0,0.963,0,1.925,0,2.918c3.334,0,6.327,0,9.36,0c0-11.405,0.188-22.577-0.08-33.738
		c-0.132-5.47-3.488-8.205-8.95-7.688c-2.222,0.21-4.39,1.391-6.488,2.339c-1.178,0.531-2.164,1.487-3.469,2.418
		c-0.144-1.518-0.256-2.715-0.365-3.873c-3.13,0-6.039,0-8.928,0C775.252,258.953,775.252,272.351,775.252,285.867z
		 M708.469,231.808c0,18.159,0,36.052,0,54.07c9.019,0,17.875,0,26.832,0c0-3.049,0-5.893,0-9.086c-5.492,0-10.845,0-16.461,0
		c0-15.173,0-29.998,0-44.984C715.273,231.808,711.98,231.808,708.469,231.808z M541.44,254.654
		c-2.222-7.662-9.569-11.73-17.812-9.963c-4.559,0.979-7.921,3.459-8.96,8.272c-1.063,4.928,0.191,9.193,4.353,12.19
		c2.169,1.563,4.707,2.608,7.052,3.934c1.793,1.015,3.837,1.821,5.212,3.254c0.935,0.975,1.505,3.06,1.12,4.301
		c-0.32,1.032-2.198,2.005-3.516,2.22c-3.068,0.501-5.348-1-6.729-3.857c-0.34-0.705-0.639-1.432-0.998-2.243
		c-2.815,0.792-5.477,1.54-8.153,2.292c3.368,9.291,9.826,13.158,18.95,11.406c5.021-0.964,8.501-3.714,9.657-8.934
		c1.155-5.216-0.351-9.322-4.957-12.378c-2.537-1.683-5.367-2.919-8.033-4.414c-1.327-0.745-2.923-1.366-3.77-2.509
		c-0.775-1.044-1.32-3.007-0.836-4.028c0.496-1.05,2.49-2.164,3.602-1.967c1.682,0.297,3.254,1.591,4.697,2.691
		c0.723,0.552,1.056,1.612,1.676,2.623C536.533,256.56,538.999,255.603,541.44,254.654z M423.645,245.053
		c0.276,1.224,0.424,2.008,0.632,2.774c2.85,10.522,5.691,21.047,8.569,31.562c1.875,6.846,1.899,6.778,8.985,6.734
		c1.789-0.012,2.448-0.639,2.899-2.336c3.213-12.101,6.551-24.168,9.829-36.251c0.198-0.729,0.234-1.502,0.38-2.491
		c-1.538,0-2.787,0-4.037,0c-5.296,0-5.272,0.006-6.484,5.166c-1.583,6.738-3.21,13.467-4.986,20.91
		c-0.422-1.479-0.668-2.228-0.85-2.993c-1.646-6.924-3.232-13.862-4.98-20.76c-0.223-0.88-1.214-2.126-1.961-2.21
		C429.162,244.879,426.63,245.053,423.645,245.053z M680.023,285.901c0-10.438,0-20.76,0-31.443c2.009,0,3.747,0,5.384,0
		c0-2.751,0-5.13,0-7.772c-1.906,0-3.575,0-5.211,0c-0.581-6.425-0.321-6.769,5.565-7.649c0-2.554,0-5.104,0-7.786
		c-4.051-0.285-8.029-1.096-11.445,1.361c-4.845,3.484-3.437,9.055-4.11,14.012c-1.293,0.128-2.503,0.248-3.76,0.372
		c0,2.548,0,4.928,0,7.407c1.379,0.11,2.588,0.209,4.021,0.325c0,10.494,0,20.746,0,31.174
		C673.719,285.901,676.727,285.901,680.023,285.901z M573.174,235.806c-3.403,0-6.346,0-9.597,0c0,3.696,0,7.248,0,10.809
		c-1.336,0.156-2.369,0.277-3.437,0.403c0,2.55,0,4.935,0,7.361c1.214,0.13,2.252,0.241,3.467,0.371c0,1.139,0,2.116,0,3.094
		c0.001,6.758-0.049,13.517,0.02,20.273c0.049,4.68,1.891,7.442,5.92,8.157c3.121,0.554,6.366,0.403,9.628,0.569
		c0-3.14,0-5.688,0-8.207c-5.908-0.666-5.957-0.721-5.958-6.45c-0.001-3.874,0-7.749,0-11.624c0-1.941,0-3.884,0-6.11
		c2.271,0,4.108,0,5.924,0c0-2.692,0-5.079,0-7.747c-2.016,0-3.861,0-5.967,0C573.174,242.946,573.174,239.468,573.174,235.806z
		 M500.863,245.212c-3.3,0-6.223,0-9.22,0c0,13.687,0,27.205,0,40.662c3.185,0,6.107,0,9.243,0c0-1.181,0-2.156,0-3.132
		c0-7.566-0.005-15.133,0.001-22.7c0.005-5.554,2.17-7.256,7.646-6.027c0.602,0.135,1.205,0.264,1.905,0.418
		c0-3.412,0-6.692,0-10.015c-4.298-0.25-7.098,1.894-9.576,5.697C500.863,248.093,500.863,246.787,500.863,245.212z M545.88,245.2
		c0,13.646,0,27.112,0,40.708c3.146,0,6.151,0,9.301,0c0-13.633,0-27.093,0-40.708C552.071,245.2,549.125,245.2,545.88,245.2z
		 M419.1,285.912c0-13.626,0-27.083,0-40.651c-3.157,0-6.145,0-9.139,0c0,13.681,0,27.146,0,40.651
		C413.087,285.912,416.017,285.912,419.1,285.912z M555.134,237.93c0-2.907,0-5.629,0-8.367c-3.222,0-6.221,0-9.254,0
		c0,2.886,0,5.55,0,8.367C548.958,237.93,551.9,237.93,555.134,237.93z M419.114,229.544c-3.274,0-6.198,0-9.105,0
		c0,2.926,0,5.645,0,8.337c3.166,0,6.09,0,9.105,0C419.114,235.016,419.114,232.354,419.114,229.544z"/>
	<g>
		<path fill-rule="evenodd" clip-rule="evenodd" d="M1.392,77.336c3.834,3.286,7.92,6.323,11.45,9.908
			c8.113,8.24,14.464,17.647,17.62,28.951c2.657,9.517,2.168,18.877-1.403,28.083c-0.309,0.796-0.605,1.598-0.996,2.629
			c2.901-2.602,5.485-5.054,8.223-7.319c1.432-1.184,3.065-2.174,4.726-3.021c7.006-3.574,13.261-2.134,18.022,4.047
			c4.007,5.203,8.583,18.234,8.777,25.478c-6.223-7.041-13.633-10.806-22.825-9.9c-9.152,0.902-16.33,4.865-20.055,14.666
			c-1.163-4.482-2.184-8.302-3.144-12.137C15.291,132.765,8.81,106.806,2.306,80.852c-0.21-0.838-0.605-1.63-0.915-2.443
			C1.392,78.052,1.392,77.694,1.392,77.336z"/>
		<path fill-rule="evenodd" clip-rule="evenodd" d="M135.391,7.657c2.042,4.243,4.075,8.49,6.127,12.729
			c0.777,1.604,1.662,3.157,2.387,4.783c1.741,3.905,1.709,7.775-0.368,11.582c-0.491,0.899-0.858,1.866-1.032,2.249
			c3.315-0.943,6.755-2.384,10.322-2.848c8.594-1.116,12.775,7.022,11.653,12.927c-0.921,4.851-3.137,8.769-7.425,12.046
			c-0.138-1.274-0.206-2.111-0.323-2.94c-0.651-4.589-3.022-7.023-7.548-7.772c-4.996-0.826-8.345,2.129-7.575,7.154
			c0.435,2.837,1.76,5.537,2.706,8.362c-2.872-0.289-5.994-0.841-9.118-0.852c-3.172-0.011-6.347,0.513-9.597,0.811
			c0.916-1.99,1.995-3.926,2.715-5.986c1.589-4.547,0.379-8.244-2.871-9.375c-3.916-1.363-9.268,0.944-10.749,4.802
			c-0.625,1.63-0.825,3.423-1.218,5.145c-5.808-2.32-9.169-12.55-6.339-18.603c2.608-5.578,11.09-9.14,21.494-1.696
			c0.009-0.073,0.053-0.17,0.021-0.216c-4.709-6.782-3.515-13.305,0.441-20.009c2.29-3.879,3.865-8.181,5.761-12.292
			C135.034,7.657,135.212,7.657,135.391,7.657z"/>
		<path fill-rule="evenodd" clip-rule="evenodd" d="M175.558,185.078c9.702,3.535,19.254,7.292,29.008,10.419
			c3.35,1.074,7.266,1.095,10.817,0.686c8.594-0.992,15.353-10.235,14.222-18.806c-1.081-8.188-9.792-13.029-16.86-10.011
			c1.595,1.549,3.782,3.021,5.042,5.063c1.56,2.53,0.493,6.084-1.679,8.054c-2.274,2.063-5.5,2.476-8.225,1.054
			c-2.772-1.448-4.316-4.49-3.805-7.627c0.514-3.146,2.411-5.323,5.087-6.855c7.774-4.451,16.72-3.484,23.058,2.449
			c6.738,6.308,8.501,15.36,4.572,23.476c-4.593,9.487-14.781,14.753-26.787,14.045c-8.88-0.523-17.065-3.578-25.285-6.563
			c-6.542-2.374-13.045-4.854-19.626-7.113c-1.176-0.403-2.814-0.333-3.956,0.167c-30.922,13.538-66.685,1.602-82.777-27.705
			c-20.007-36.434,0.857-82.503,41.524-91.686c36.468-8.234,71.672,14.589,77.862,51.095c3.854,22.731-3.451,42.052-20.356,57.728
			c-0.523,0.484-1.053,0.961-1.572,1.45C175.765,184.451,175.756,184.557,175.558,185.078z M105.194,181.204
			c3.681-5.913,8.627-8.813,14.641-9.427c4.128-0.422,8.395-0.325,12.516,0.203c9.885,1.265,19.246,4.605,28.45,8.266
			c2.938,1.168,4.537,0.558,6.523-1.703c20.043-22.822,20.472-61.954,0.815-85.142c-19.64-23.17-51.244-21.88-68.337,3.544
			c-15.819,23.53-16.043,48.309-2.6,73.148C99.286,173.944,102.333,177.274,105.194,181.204z M154.081,188.824
			c-3.785-1.563-7.381-3.042-10.974-4.529c-7.637-3.163-15.466-5.448-23.849-5.025c-4.137,0.208-8.201,0.777-11.813,3.283
			C119.413,194.628,140.574,197.498,154.081,188.824z"/>
		<path fill-rule="evenodd" clip-rule="evenodd" d="M135.668,211.474c28.219,0,56.439-0.065,84.657,0.094
			c3.094,0.018,6.427,0.814,9.215,2.153c4.361,2.095,4.775,6.811,1.261,10.21c-3.378,3.268-7.635,4.779-12.218,4.572
			c-9.801-0.442-19.586-1.251-29.38-1.873c-18.163-1.155-36.315-2.88-54.494-3.222c-12.98-0.244-25.999,1.338-38.995,2.189
			c-14.333,0.94-28.657,2.043-42.994,2.926c-4.208,0.259-8.126-1.053-11.513-3.632c-4.973-3.787-4.5-9.362,1.227-11.773
			c2.549-1.072,5.524-1.567,8.309-1.578C79.051,211.43,107.359,211.474,135.668,211.474z"/>
		<path fill-rule="evenodd" clip-rule="evenodd" d="M239.4,146.218c-8.431-19.514-2.513-36.967,10.217-53.101
			c4.703-5.96,10.132-11.214,16.793-16.239c-7.914,31.578-15.653,62.465-23.563,94.024c-3.68-9.709-10.85-13.823-20.099-14.705
			c-9.23-0.88-16.678,2.784-23.071,9.578c0.339-1.739,0.51-3.533,1.05-5.208c1.691-5.243,3.458-10.464,5.341-15.64
			c0.508-1.395,1.448-2.663,2.333-3.885c4.822-6.652,11.333-8.421,18.489-4.241C231.52,139.505,235.534,143.259,239.4,146.218z"/>
		<path fill-rule="evenodd" clip-rule="evenodd" d="M96.623,195.062c-9.909,3.269-19.259,6.721-28.834,9.355
			c-4.726,1.3-9.885,1.621-14.817,1.456c-11.575-0.389-20.864-7.884-23.419-18.2c-1.877-7.58,1.631-16.205,8.55-21.018
			c6.245-4.345,15.315-4.298,21.671,0.121c2.755,1.916,4.328,4.51,4.141,7.918c-0.199,3.61-3.008,6.411-6.496,6.687
			c-3.621,0.287-6.806-1.919-7.681-5.32c-0.878-3.417,0.8-6.934,4.054-8.444c0.557-0.258,1.16-0.413,1.799-0.636
			c-3.798-2.662-10.834-1.338-14.235,3.03c-1.458,1.875-2.611,4.374-2.894,6.711c-1.296,10.73,8.077,20.01,19.115,18.85
			c3.936-0.414,7.829-1.654,11.623-2.882c4.999-1.618,9.906-3.532,14.797-5.46c1.469-0.579,2.421-0.325,3.576,0.649
			C90.295,190.171,93.145,192.318,96.623,195.062z"/>
	</g>
</g>
</svg>
